<?xml version="1.0" encoding="UTF-8" standalone="no"?>
<!DOCTYPE svg PUBLIC "-//W3C//DTD SVG 1.1//EN"
 "http://www.w3.org/Graphics/SVG/1.1/DTD/svg11.dtd">
<!-- Generated by graphviz version 2.40.1 (20161225.0304)
 -->
<!-- Title: finite_state_machine Pages: 1 -->
<svg width="1132pt" height="656pt"
 viewBox="0.00 0.00 1131.92 655.77" xmlns="http://www.w3.org/2000/svg" xmlns:xlink="http://www.w3.org/1999/xlink">
<g id="graph0" class="graph" transform="scale(1 1) rotate(0) translate(4 651.774)">
<title>finite_state_machine</title>
<polygon fill="#ffffff" stroke="transparent" points="-4,4 -4,-651.774 1127.9172,-651.774 1127.9172,4 -4,4"/>
<text text-anchor="start" x="8" y="-632.574" font-family="Times,serif" font-size="14.00" fill="#000000">ARPA2 ACL FSM</text>
<text text-anchor="start" x="8" y="-602.574" font-family="Times,serif" font-size="14.00" fill="#000000">blank: SPACE or TAB</text>
<text text-anchor="start" x="8" y="-588.574" font-family="Times,serif" font-size="14.00" fill="#000000">basechar: all visible characters except SPACE, DOT, PLUS, AT</text>
<text text-anchor="start" x="8" y="-574.574" font-family="Times,serif" font-size="14.00" fill="#000000">	%x21&#45;2A / %x2C&#45;2D / %x2F&#45;3F / %x41&#45;7E</text>
<!-- WILDCARD -->
<g id="node1" class="node">
<title>WILDCARD</title>
<ellipse fill="none" stroke="#000000" cx="61.757" cy="-283.774" rx="57.5307" ry="57.5307"/>
<ellipse fill="none" stroke="#000000" cx="61.757" cy="-283.774" rx="61.515" ry="61.515"/>
<text text-anchor="middle" x="61.757" y="-279.574" font-family="Times,serif" font-size="14.00" fill="#000000">WILDCARD</text>
</g>
<!-- SEGMENTNAME -->
<g id="node2" class="node">
<title>SEGMENTNAME</title>
<ellipse fill="none" stroke="#000000" cx="297.3852" cy="-283.774" rx="77.8153" ry="77.8153"/>
<ellipse fill="none" stroke="#000000" cx="297.3852" cy="-283.774" rx="81.8107" ry="81.8107"/>
<text text-anchor="middle" x="297.3852" y="-279.574" font-family="Times,serif" font-size="14.00" fill="#000000">SEGMENTNAME</text>
</g>
<!-- WILDCARD&#45;&gt;SEGMENTNAME -->
<g id="edge9" class="edge">
<title>WILDCARD&#45;&gt;SEGMENTNAME</title>
<path fill="none" stroke="#000000" d="M123.6656,-283.774C148.4514,-283.774 177.5348,-283.774 204.74,-283.774"/>
<polygon fill="#000000" stroke="#000000" points="205.0618,-287.2741 215.0618,-283.774 205.0618,-280.2741 205.0618,-287.2741"/>
<text text-anchor="middle" x="169.497" y="-286.574" font-family="Times,serif" font-size="14.00" fill="#000000">basechar .</text>
</g>
<!-- POSTSEGMENT -->
<g id="node3" class="node">
<title>POSTSEGMENT</title>
<ellipse fill="none" stroke="#000000" cx="763.962" cy="-246.774" rx="73.4848" ry="73.4848"/>
<ellipse fill="none" stroke="#000000" cx="763.962" cy="-246.774" rx="77.4844" ry="77.4844"/>
<text text-anchor="middle" x="763.962" y="-242.574" font-family="Times,serif" font-size="14.00" fill="#000000">POSTSEGMENT</text>
</g>
<!-- WILDCARD&#45;&gt;POSTSEGMENT -->
<g id="edge7" class="edge">
<title>WILDCARD&#45;&gt;POSTSEGMENT</title>
<path fill="none" stroke="#000000" d="M72.3339,-345.0572C82.7031,-384.8032 102.8597,-433.6971 141.5141,-458.774 337.9922,-586.2384 472.3677,-586.8162 668.4698,-458.774 711.2168,-430.8629 735.0335,-378.7886 748.1911,-333.2375"/>
<polygon fill="#000000" stroke="#000000" points="751.6393,-333.8983 750.9185,-323.328 744.8903,-332.0407 751.6393,-333.8983"/>
<text text-anchor="middle" x="425.2734" y="-556.574" font-family="Times,serif" font-size="14.00" fill="#000000">blank</text>
</g>
<!-- REQSIGFLAGS -->
<g id="node4" class="node">
<title>REQSIGFLAGS</title>
<ellipse fill="none" stroke="#000000" cx="545.3113" cy="-136.774" rx="70.107" ry="70.107"/>
<ellipse fill="none" stroke="#000000" cx="545.3113" cy="-136.774" rx="74.11" ry="74.11"/>
<text text-anchor="middle" x="545.3113" y="-132.574" font-family="Times,serif" font-size="14.00" fill="#000000">REQSIGFLAGS</text>
</g>
<!-- WILDCARD&#45;&gt;REQSIGFLAGS -->
<g id="edge8" class="edge">
<title>WILDCARD&#45;&gt;REQSIGFLAGS</title>
<path fill="none" stroke="#000000" d="M108.6059,-243.0819C137.4746,-220.3284 176.3528,-193.6337 215.4799,-178.774 295.1683,-148.5097 392.67,-139.1854 460.919,-136.7133"/>
<polygon fill="#000000" stroke="#000000" points="461.309,-140.2027 471.192,-136.3849 461.0852,-133.2063 461.309,-140.2027"/>
<text text-anchor="middle" x="297.3852" y="-181.574" font-family="Times,serif" font-size="14.00" fill="#000000">+</text>
</g>
<!-- SEGMENTNAME&#45;&gt;SEGMENTNAME -->
<g id="edge11" class="edge">
<title>SEGMENTNAME&#45;&gt;SEGMENTNAME</title>
<path fill="none" stroke="#000000" d="M275.7342,-362.919C278.9709,-375.2634 286.1879,-383.6792 297.3852,-383.6792 305.4332,-383.6792 311.425,-379.3316 315.3606,-372.3025"/>
<polygon fill="#000000" stroke="#000000" points="318.6478,-373.5067 319.0361,-362.919 312.13,-370.9536 318.6478,-373.5067"/>
<text text-anchor="middle" x="297.3852" y="-386.4792" font-family="Times,serif" font-size="14.00" fill="#000000">basechar .</text>
</g>
<!-- SEGMENTNAME&#45;&gt;POSTSEGMENT -->
<g id="edge12" class="edge">
<title>SEGMENTNAME&#45;&gt;POSTSEGMENT</title>
<path fill="none" stroke="#000000" d="M378.048,-268.5648C407.2993,-263.6378 440.6677,-258.6949 471.2563,-255.774 539.8885,-249.2202 617.9429,-247.0843 676.1789,-246.5248"/>
<polygon fill="#000000" stroke="#000000" points="676.4771,-250.0226 686.448,-246.4405 676.4196,-243.0228 676.4771,-250.0226"/>
<text text-anchor="middle" x="545.3113" y="-258.574" font-family="Times,serif" font-size="14.00" fill="#000000">blank</text>
</g>
<!-- SEGMENTNAME&#45;&gt;REQSIGFLAGS -->
<g id="edge13" class="edge">
<title>SEGMENTNAME&#45;&gt;REQSIGFLAGS</title>
<path fill="none" stroke="#000000" d="M365.7709,-238.3702C376.2517,-231.6769 387.0049,-224.9583 397.2905,-218.774 420.9551,-204.5452 447.1963,-189.7109 470.9319,-176.6338"/>
<polygon fill="#000000" stroke="#000000" points="472.8141,-179.5933 479.8956,-171.7128 469.4453,-173.4572 472.8141,-179.5933"/>
<text text-anchor="middle" x="425.2734" y="-221.574" font-family="Times,serif" font-size="14.00" fill="#000000">+</text>
</g>
<!-- SUBSEGMENT -->
<g id="node9" class="node">
<title>SUBSEGMENT</title>
<ellipse fill="none" stroke="#000000" cx="545.3113" cy="-347.774" rx="69.141" ry="69.141"/>
<text text-anchor="middle" x="545.3113" y="-343.574" font-family="Times,serif" font-size="14.00" fill="#000000">SUBSEGMENT</text>
</g>
<!-- SEGMENTNAME&#45;&gt;SUBSEGMENT -->
<g id="edge10" class="edge">
<title>SEGMENTNAME&#45;&gt;SUBSEGMENT</title>
<path fill="none" stroke="#000000" d="M376.8536,-304.288C406.2485,-311.8761 439.492,-320.4576 468.6342,-327.9804"/>
<polygon fill="#000000" stroke="#000000" points="467.791,-331.3774 478.3484,-330.4881 469.5407,-324.5996 467.791,-331.3774"/>
<text text-anchor="middle" x="425.2734" y="-326.574" font-family="Times,serif" font-size="14.00" fill="#000000">+</text>
</g>
<!-- POSTSEGMENT&#45;&gt;WILDCARD -->
<g id="edge16" class="edge">
<title>POSTSEGMENT&#45;&gt;WILDCARD</title>
<path fill="none" stroke="#000000" d="M728.543,-316.0809C703.905,-356.1631 666.9484,-403.0434 619.3663,-425.774 457.215,-503.2357 382.7292,-472.5087 215.4799,-406.774 176.2041,-391.3372 139.0563,-362.18 111.1196,-336.1275"/>
<polygon fill="#000000" stroke="#000000" points="113.5174,-333.5778 103.8559,-329.2297 108.6971,-338.6538 113.5174,-333.5778"/>
<text text-anchor="middle" x="425.2734" y="-473.574" font-family="Times,serif" font-size="14.00" fill="#000000">+</text>
</g>
<!-- POSTSEGMENT&#45;&gt;POSTSEGMENT -->
<g id="edge17" class="edge">
<title>POSTSEGMENT&#45;&gt;POSTSEGMENT</title>
<path fill="none" stroke="#000000" d="M746.7787,-322.4229C749.3475,-334.222 755.0752,-342.2662 763.962,-342.2662 770.0716,-342.2662 774.6881,-338.464 777.8115,-332.2536"/>
<polygon fill="#000000" stroke="#000000" points="781.2483,-333.0172 781.1453,-322.4229 774.6191,-330.7691 781.2483,-333.0172"/>
<text text-anchor="middle" x="763.962" y="-345.0662" font-family="Times,serif" font-size="14.00" fill="#000000">blank</text>
</g>
<!-- SETLIST -->
<g id="node7" class="node">
<title>SETLIST</title>
<ellipse fill="none" stroke="#000000" cx="933.6124" cy="-84.774" rx="44.4923" ry="44.4923"/>
<text text-anchor="middle" x="933.6124" y="-80.574" font-family="Times,serif" font-size="14.00" fill="#000000">SETLIST</text>
</g>
<!-- POSTSEGMENT&#45;&gt;SETLIST -->
<g id="edge18" class="edge">
<title>POSTSEGMENT&#45;&gt;SETLIST</title>
<path fill="none" stroke="#000000" d="M820.4531,-192.8303C844.4232,-169.9411 871.8037,-143.7954 893.627,-122.9562"/>
<polygon fill="#000000" stroke="#000000" points="896.2846,-125.2579 901.0997,-115.8205 891.4503,-120.1953 896.2846,-125.2579"/>
<text text-anchor="middle" x="865.2852" y="-154.574" font-family="Times,serif" font-size="14.00" fill="#000000">%</text>
</g>
<!-- REQSIGFLAGS&#45;&gt;POSTSEGMENT -->
<g id="edge15" class="edge">
<title>REQSIGFLAGS&#45;&gt;POSTSEGMENT</title>
<path fill="none" stroke="#000000" d="M611.5071,-170.0761C634.8009,-181.7949 661.2059,-195.0789 685.4178,-207.2595"/>
<polygon fill="#000000" stroke="#000000" points="684.0727,-210.5007 694.5789,-211.8683 687.2186,-204.2475 684.0727,-210.5007"/>
<text text-anchor="middle" x="652.918" y="-201.574" font-family="Times,serif" font-size="14.00" fill="#000000">blank</text>
</g>
<!-- qi -->
<g id="node5" class="node">
<title>qi</title>
<ellipse fill="#000000" stroke="#000000" cx="545.3113" cy="-42.774" rx="1.8" ry="1.8"/>
</g>
<!-- S -->
<g id="node6" class="node">
<title>S</title>
<ellipse fill="none" stroke="#000000" cx="763.962" cy="-71.774" rx="18" ry="18"/>
<text text-anchor="middle" x="763.962" y="-67.574" font-family="Times,serif" font-size="14.00" fill="#000000">S</text>
</g>
<!-- qi&#45;&gt;S -->
<g id="edge1" class="edge">
<title>qi&#45;&gt;S</title>
<path fill="none" stroke="#000000" d="M547.2015,-43.0247C563.48,-45.1837 680.727,-60.7344 735.6783,-68.0226"/>
<polygon fill="#000000" stroke="#000000" points="735.4161,-71.5184 745.7895,-69.3637 736.3366,-64.5792 735.4161,-71.5184"/>
</g>
<!-- S&#45;&gt;S -->
<g id="edge2" class="edge">
<title>S&#45;&gt;S</title>
<path fill="none" stroke="#000000" d="M749.6111,-82.8311C740.6237,-94.5537 745.4073,-107.774 763.962,-107.774 777.733,-107.774 783.9184,-100.4917 782.5181,-91.9443"/>
<polygon fill="#000000" stroke="#000000" points="785.6808,-90.4446 778.3129,-82.8311 779.3249,-93.3775 785.6808,-90.4446"/>
<text text-anchor="middle" x="763.962" y="-110.574" font-family="Times,serif" font-size="14.00" fill="#000000">blank</text>
</g>
<!-- S&#45;&gt;SETLIST -->
<g id="edge3" class="edge">
<title>S&#45;&gt;SETLIST</title>
<path fill="none" stroke="#000000" d="M782.1175,-73.1652C805.0473,-74.9222 845.5351,-78.0248 878.8886,-80.5806"/>
<polygon fill="#000000" stroke="#000000" points="878.7451,-84.0798 888.9833,-81.3541 879.28,-77.1002 878.7451,-84.0798"/>
<text text-anchor="middle" x="865.2852" y="-83.574" font-family="Times,serif" font-size="14.00" fill="#000000">%</text>
</g>
<!-- LIST -->
<g id="node8" class="node">
<title>LIST</title>
<ellipse fill="none" stroke="#000000" cx="1095.1433" cy="-28.774" rx="28.5497" ry="28.5497"/>
<text text-anchor="middle" x="1095.1433" y="-24.574" font-family="Times,serif" font-size="14.00" fill="#000000">LIST</text>
</g>
<!-- SETLIST&#45;&gt;LIST -->
<g id="edge4" class="edge">
<title>SETLIST&#45;&gt;LIST</title>
<path fill="none" stroke="#000000" d="M976.0528,-70.0606C1001.5208,-61.2313 1033.6077,-50.1073 1058.0569,-41.6312"/>
<polygon fill="#000000" stroke="#000000" points="1059.3885,-44.874 1067.6903,-38.2914 1057.0955,-38.2602 1059.3885,-44.874"/>
<text text-anchor="middle" x="1022.239" y="-65.574" font-family="Times,serif" font-size="14.00" fill="#000000">W G B A</text>
</g>
<!-- LIST&#45;&gt;WILDCARD -->
<g id="edge6" class="edge">
<title>LIST&#45;&gt;WILDCARD</title>
<path fill="none" stroke="#000000" d="M1066.6326,-24.2318C1034.4238,-19.5015 980.3925,-12.774 933.6124,-12.774 297.3852,-12.774 297.3852,-12.774 297.3852,-12.774 189.9956,-12.774 120.4456,-135.4608 86.4321,-215.7363"/>
<polygon fill="#000000" stroke="#000000" points="83.0616,-214.7269 82.4602,-225.3046 89.5267,-217.4107 83.0616,-214.7269"/>
<text text-anchor="middle" x="652.918" y="-15.574" font-family="Times,serif" font-size="14.00" fill="#000000">+</text>
</g>
<!-- LIST&#45;&gt;LIST -->
<g id="edge5" class="edge">
<title>LIST&#45;&gt;LIST</title>
<path fill="none" stroke="#000000" d="M1081.8048,-54.748C1080.7127,-65.9537 1085.1589,-75.5479 1095.1433,-75.5479 1101.8515,-75.5479 1106.0598,-71.2169 1107.7679,-64.9761"/>
<polygon fill="#000000" stroke="#000000" points="1111.277,-64.9674 1108.4818,-54.748 1104.294,-64.48 1111.277,-64.9674"/>
<text text-anchor="middle" x="1095.1433" y="-78.3479" font-family="Times,serif" font-size="14.00" fill="#000000">blank</text>
</g>
<!-- SUBSEGMENT&#45;&gt;SEGMENTNAME -->
<g id="edge14" class="edge">
<title>SUBSEGMENT&#45;&gt;SEGMENTNAME</title>
<path fill="none" stroke="#000000" d="M488.6194,-308.2324C477.346,-302.0333 465.2685,-296.465 453.2563,-292.774 433.1251,-286.5882 410.8561,-283.3281 389.6011,-281.7877"/>
<polygon fill="#000000" stroke="#000000" points="389.7851,-278.2925 379.5914,-281.1804 389.3611,-285.2797 389.7851,-278.2925"/>
<text text-anchor="middle" x="425.2734" y="-295.574" font-family="Times,serif" font-size="14.00" fill="#000000">basechar .</text>
</g>
</g>
</svg>
