<?xml version="1.0" encoding="UTF-8" standalone="no"?>
<!DOCTYPE svg PUBLIC "-//W3C//DTD SVG 1.1//EN"
 "http://www.w3.org/Graphics/SVG/1.1/DTD/svg11.dtd">
<!-- Generated by graphviz version 2.40.1 (20161225.0304)
 -->
<!-- Title: finite_state_machine Pages: 1 -->
<svg width="1094pt" height="443pt"
 viewBox="0.00 0.00 1094.03 443.34" xmlns="http://www.w3.org/2000/svg" xmlns:xlink="http://www.w3.org/1999/xlink">
<g id="graph0" class="graph" transform="scale(1 1) rotate(0) translate(4 439.3374)">
<title>finite_state_machine</title>
<polygon fill="#ffffff" stroke="transparent" points="-4,4 -4,-439.3374 1090.0271,-439.3374 1090.0271,4 -4,4"/>
<text text-anchor="middle" x="543.0135" y="-420.1374" font-family="Times,serif" font-size="14.00" fill="#000000">ARPA2 ID Selector FSM</text>
<!-- DOMAIN -->
<g id="node1" class="node">
<title>DOMAIN</title>
<ellipse fill="none" stroke="#000000" cx="825.1345" cy="-314.8765" rx="46.4249" ry="46.4249"/>
<ellipse fill="none" stroke="#000000" cx="825.1345" cy="-314.8765" rx="50.4218" ry="50.4218"/>
<text text-anchor="middle" x="825.1345" y="-310.6765" font-family="Times,serif" font-size="14.00" fill="#000000">DOMAIN</text>
</g>
<!-- DOMAIN&#45;&gt;DOMAIN -->
<g id="edge17" class="edge">
<title>DOMAIN&#45;&gt;DOMAIN</title>
<path fill="none" stroke="#000000" d="M808.1214,-362.5475C809.3111,-374.4448 814.9822,-383.3374 825.1345,-383.3374 832.1142,-383.3374 836.9759,-379.1343 839.7194,-372.6413"/>
<polygon fill="#000000" stroke="#000000" points="843.2115,-373.0888 842.1476,-362.5475 836.4057,-371.4515 843.2115,-373.0888"/>
<text text-anchor="middle" x="825.1345" y="-386.1374" font-family="Times,serif" font-size="14.00" fill="#000000">basechar</text>
</g>
<!-- NEWLABEL -->
<g id="node2" class="node">
<title>NEWLABEL</title>
<ellipse fill="none" stroke="#ff0000" cx="1023.2941" cy="-213.8765" rx="58.9518" ry="58.9518"/>
<ellipse fill="none" stroke="#ff0000" cx="1023.2941" cy="-213.8765" rx="62.9667" ry="62.9667"/>
<text text-anchor="middle" x="1023.2941" y="-209.6765" font-family="Times,serif" font-size="14.00" fill="#000000">NEWLABEL</text>
</g>
<!-- DOMAIN&#45;&gt;NEWLABEL -->
<g id="edge15" class="edge">
<title>DOMAIN&#45;&gt;NEWLABEL</title>
<path fill="none" stroke="#000000" d="M875.4849,-310.8423C897.0736,-307.5629 922,-301.6246 942.5612,-290.8765 953.8031,-285 964.5768,-277.0907 974.3861,-268.5733"/>
<polygon fill="#000000" stroke="#000000" points="976.9776,-270.9483 982.0368,-261.6394 972.2767,-265.7615 976.9776,-270.9483"/>
<text text-anchor="middle" x="918.0783" y="-309.6765" font-family="Times,serif" font-size="14.00" fill="#000000">.</text>
</g>
<!-- NEWLABEL&#45;&gt;DOMAIN -->
<g id="edge16" class="edge">
<title>NEWLABEL&#45;&gt;DOMAIN</title>
<path fill="none" stroke="#000000" d="M965.9837,-240.2059C958.1181,-243.8008 950.1428,-247.4361 942.5612,-250.8765 920.8353,-260.7355 914.688,-261.7268 893.5954,-272.8765 888.0133,-275.8273 882.264,-279.0482 876.5813,-282.3514"/>
<polygon fill="#000000" stroke="#000000" points="874.5638,-279.4783 867.7398,-287.5829 878.1285,-285.5027 874.5638,-279.4783"/>
<text text-anchor="middle" x="918.0783" y="-275.6765" font-family="Times,serif" font-size="14.00" fill="#000000">basechar</text>
</g>
<!-- NEWLABEL&#45;&gt;NEWLABEL -->
<g id="edge3" class="edge">
<title>NEWLABEL&#45;&gt;NEWLABEL</title>
<path fill="none" stroke="#ff0000" d="M1004.5987,-274.0829C1006.703,-286.0651 1012.9348,-294.6095 1023.2941,-294.6095 1030.5781,-294.6095 1035.8214,-290.3852 1039.0241,-283.712"/>
<polygon fill="#ff0000" stroke="#ff0000" points="1042.3912,-284.6702 1041.9896,-274.0829 1035.7013,-282.6098 1042.3912,-284.6702"/>
<text text-anchor="middle" x="1023.2941" y="-297.4095" font-family="Times,serif" font-size="14.00" fill="#000000">.</text>
</g>
<!-- qi -->
<g id="node3" class="node">
<title>qi</title>
<ellipse fill="#000000" stroke="#000000" cx="148.1382" cy="-87.8765" rx="1.8" ry="1.8"/>
</g>
<!-- S -->
<g id="node6" class="node">
<title>S</title>
<ellipse fill="none" stroke="#000000" cx="351.2764" cy="-87.8765" rx="18" ry="18"/>
<text text-anchor="middle" x="351.2764" y="-83.6765" font-family="Times,serif" font-size="14.00" fill="#000000">S</text>
</g>
<!-- qi&#45;&gt;S -->
<g id="edge4" class="edge">
<title>qi&#45;&gt;S</title>
<path fill="none" stroke="#000000" d="M150.4195,-87.8765C167.1448,-87.8765 271.611,-87.8765 322.9135,-87.8765"/>
<polygon fill="#000000" stroke="#000000" points="323.0032,-91.3766 333.0032,-87.8765 323.0032,-84.3766 323.0032,-91.3766"/>
</g>
<!-- SERVICE -->
<g id="node4" class="node">
<title>SERVICE</title>
<ellipse fill="none" stroke="#000000" cx="459.4255" cy="-87.8765" rx="46.0086" ry="46.0086"/>
<text text-anchor="middle" x="459.4255" y="-83.6765" font-family="Times,serif" font-size="14.00" fill="#000000">SERVICE</text>
</g>
<!-- SERVICE&#45;&gt;NEWLABEL -->
<g id="edge2" class="edge">
<title>SERVICE&#45;&gt;NEWLABEL</title>
<path fill="none" stroke="#ff0000" d="M496.1621,-116.5247C522.7843,-135.6434 560.4889,-159.4718 597.6449,-171.8765 716.5984,-211.5896 863.8509,-217.1837 950.2944,-216.3922"/>
<polygon fill="#ff0000" stroke="#ff0000" points="950.5728,-219.8891 960.5288,-216.2658 950.4864,-212.8896 950.5728,-219.8891"/>
<text text-anchor="middle" x="728.6907" y="-208.6765" font-family="Times,serif" font-size="14.00" fill="#000000">@</text>
</g>
<!-- OPTION -->
<g id="node5" class="node">
<title>OPTION</title>
<ellipse fill="none" stroke="#000000" cx="640.1764" cy="-87.8765" rx="42.5629" ry="42.5629"/>
<text text-anchor="middle" x="640.1764" y="-83.6765" font-family="Times,serif" font-size="14.00" fill="#000000">OPTION</text>
</g>
<!-- SERVICE&#45;&gt;OPTION -->
<g id="edge1" class="edge">
<title>SERVICE&#45;&gt;OPTION</title>
<path fill="none" stroke="#ff0000" d="M505.9733,-87.8765C530.7954,-87.8765 561.4375,-87.8765 587.1723,-87.8765"/>
<polygon fill="#ff0000" stroke="#ff0000" points="587.5019,-91.3766 597.5019,-87.8765 587.5019,-84.3766 587.5019,-91.3766"/>
<text text-anchor="middle" x="551.662" y="-90.6765" font-family="Times,serif" font-size="14.00" fill="#000000">+</text>
</g>
<!-- LOCAL -->
<g id="node7" class="node">
<title>LOCAL</title>
<ellipse fill="none" stroke="#000000" cx="825.1345" cy="-40.8765" rx="39.6645" ry="39.6645"/>
<text text-anchor="middle" x="825.1345" y="-36.6765" font-family="Times,serif" font-size="14.00" fill="#000000">LOCAL</text>
</g>
<!-- SERVICE&#45;&gt;LOCAL -->
<g id="edge14" class="edge">
<title>SERVICE&#45;&gt;LOCAL</title>
<path fill="none" stroke="#000000" d="M498.8145,-63.2325C525.5689,-47.9932 562.3736,-29.8656 597.6449,-21.8765 658.5032,-8.092 730.5525,-18.4502 777.007,-28.4683"/>
<polygon fill="#000000" stroke="#000000" points="776.2822,-31.8926 786.8049,-30.6583 777.8093,-25.0611 776.2822,-31.8926"/>
<text text-anchor="middle" x="640.1764" y="-24.6765" font-family="Times,serif" font-size="14.00" fill="#000000">basechar .</text>
</g>
<!-- OPTION&#45;&gt;NEWLABEL -->
<g id="edge11" class="edge">
<title>OPTION&#45;&gt;NEWLABEL</title>
<path fill="none" stroke="#000000" d="M681.8766,-98.1228C740.7751,-113.0499 851.3279,-142.7452 942.5612,-176.8765 947.3131,-178.6542 952.1772,-180.5863 957.0463,-182.6036"/>
<polygon fill="#000000" stroke="#000000" points="955.8151,-185.8832 966.3877,-186.5699 958.551,-179.44 955.8151,-185.8832"/>
<text text-anchor="middle" x="825.1345" y="-155.6765" font-family="Times,serif" font-size="14.00" fill="#000000">@</text>
</g>
<!-- OPTION&#45;&gt;OPTION -->
<g id="edge10" class="edge">
<title>OPTION&#45;&gt;OPTION</title>
<path fill="none" stroke="#000000" d="M623.7015,-127.1745C624.1144,-139.0922 629.6061,-148.4079 640.1764,-148.4079 647.4435,-148.4079 652.3101,-144.0048 654.7762,-137.3801"/>
<polygon fill="#000000" stroke="#000000" points="658.2865,-137.6423 656.6512,-127.1745 651.4018,-136.3774 658.2865,-137.6423"/>
<text text-anchor="middle" x="640.1764" y="-151.2079" font-family="Times,serif" font-size="14.00" fill="#000000">+</text>
</g>
<!-- OPTION&#45;&gt;LOCAL -->
<g id="edge12" class="edge">
<title>OPTION&#45;&gt;LOCAL</title>
<path fill="none" stroke="#000000" d="M682.2525,-80.4817C704.5269,-76.2474 732.2515,-70.4686 756.6736,-63.8765 763.6643,-61.9896 770.985,-59.7835 778.1309,-57.4983"/>
<polygon fill="#000000" stroke="#000000" points="779.307,-60.7961 787.7196,-54.3557 777.1269,-54.1442 779.307,-60.7961"/>
<text text-anchor="middle" x="728.6907" y="-78.6765" font-family="Times,serif" font-size="14.00" fill="#000000">basechar .</text>
</g>
<!-- S&#45;&gt;NEWLABEL -->
<g id="edge6" class="edge">
<title>S&#45;&gt;NEWLABEL</title>
<path fill="none" stroke="#000000" d="M355.2106,-105.5539C365.1485,-145.0224 395.1781,-236.8765 459.4255,-236.8765 459.4255,-236.8765 459.4255,-236.8765 825.1345,-236.8765 867.0805,-236.8765 913.6898,-231.7286 951.1617,-226.3037"/>
<polygon fill="#000000" stroke="#000000" points="952.1002,-229.7027 961.4769,-224.7703 951.0709,-222.7788 952.1002,-229.7027"/>
<text text-anchor="middle" x="640.1764" y="-239.6765" font-family="Times,serif" font-size="14.00" fill="#000000">@</text>
</g>
<!-- S&#45;&gt;SERVICE -->
<g id="edge7" class="edge">
<title>S&#45;&gt;SERVICE</title>
<path fill="none" stroke="#000000" d="M369.6224,-87.8765C378.9446,-87.8765 390.831,-87.8765 402.8812,-87.8765"/>
<polygon fill="#000000" stroke="#000000" points="402.9894,-91.3766 412.9893,-87.8765 402.9893,-84.3766 402.9894,-91.3766"/>
<text text-anchor="middle" x="391.2241" y="-90.6765" font-family="Times,serif" font-size="14.00" fill="#000000">+</text>
</g>
<!-- S&#45;&gt;LOCAL -->
<g id="edge5" class="edge">
<title>S&#45;&gt;LOCAL</title>
<path fill="none" stroke="#000000" d="M363.0597,-73.867C374.5348,-61.1695 393.1361,-42.9494 413.1719,-32.8765 457.9932,-10.3429 473.7761,-15.0147 523.6791,-9.8765 626.7028,.731 655.1975,6.8358 756.6736,-13.8765 764.3314,-15.4396 772.2384,-17.7973 779.8384,-20.4806"/>
<polygon fill="#000000" stroke="#000000" points="778.6669,-23.7793 789.259,-24.0184 781.1279,-17.2261 778.6669,-23.7793"/>
<text text-anchor="middle" x="551.662" y="-12.6765" font-family="Times,serif" font-size="14.00" fill="#000000">basechar .</text>
</g>
<!-- LOCAL&#45;&gt;NEWLABEL -->
<g id="edge13" class="edge">
<title>LOCAL&#45;&gt;NEWLABEL</title>
<path fill="none" stroke="#000000" d="M859.4603,-60.9694C883.8231,-75.9946 916.6645,-97.8421 942.5612,-120.8765 954.7326,-131.7027 966.8099,-144.322 977.7712,-156.7082"/>
<polygon fill="#000000" stroke="#000000" points="975.237,-159.1277 984.4427,-164.3722 980.5167,-154.5316 975.237,-159.1277"/>
<text text-anchor="middle" x="918.0783" y="-123.6765" font-family="Times,serif" font-size="14.00" fill="#000000">@</text>
</g>
<!-- LOCAL&#45;&gt;OPTION -->
<g id="edge9" class="edge">
<title>LOCAL&#45;&gt;OPTION</title>
<path fill="none" stroke="#000000" d="M785.5237,-38.9058C760.5985,-38.8347 728.0835,-40.9138 700.7078,-49.8765 694.9665,-51.7562 689.2195,-54.2954 683.6768,-57.1753"/>
<polygon fill="#000000" stroke="#000000" points="681.5822,-54.3374 674.5785,-62.2871 685.0111,-60.4401 681.5822,-54.3374"/>
<text text-anchor="middle" x="728.6907" y="-52.6765" font-family="Times,serif" font-size="14.00" fill="#000000">+</text>
</g>
<!-- LOCAL&#45;&gt;LOCAL -->
<g id="edge8" class="edge">
<title>LOCAL&#45;&gt;LOCAL</title>
<path fill="none" stroke="#000000" d="M807.8856,-76.5838C807.795,-88.7111 813.5447,-98.4587 825.1345,-98.4587 833.2836,-98.4587 838.5454,-93.6396 840.9199,-86.5627"/>
<polygon fill="#000000" stroke="#000000" points="844.3952,-86.9858 842.3834,-76.5838 837.4693,-85.97 844.3952,-86.9858"/>
<text text-anchor="middle" x="825.1345" y="-101.2587" font-family="Times,serif" font-size="14.00" fill="#000000">basechar .</text>
</g>
<!-- basechar -->
<g id="node8" class="node">
<title>basechar</title>
<polygon fill="none" stroke="#000000" points="296.4147,-207.8765 -.1383,-207.8765 -.1383,-107.8765 296.4147,-107.8765 296.4147,-207.8765"/>
<text text-anchor="middle" x="148.1382" y="-189.6765" font-family="Times,serif" font-size="14.00" fill="#000000">basechar &#45; visible characters</text>
<text text-anchor="middle" x="148.1382" y="-175.6765" font-family="Times,serif" font-size="14.00" fill="#000000">except SPACE, DOT, PLUS, AT </text>
<text text-anchor="middle" x="148.1382" y="-161.6765" font-family="Times,serif" font-size="14.00" fill="#000000">%x21&#45;2A / %x2C&#45;2D / %x2F&#45;3F / %x41&#45;7E</text>
<text text-anchor="middle" x="148.1382" y="-131.6765" font-family="Times,serif" font-size="14.00" fill="#000000">		changes from the regular A2ID FSM are</text>
<text text-anchor="middle" x="148.1382" y="-117.6765" font-family="Times,serif" font-size="14.00" fill="#000000">		colored in red</text>
</g>
</g>
</svg>
