<?xml version="1.0" encoding="UTF-8" standalone="no"?>
<!DOCTYPE svg PUBLIC "-//W3C//DTD SVG 1.1//EN"
 "http://www.w3.org/Graphics/SVG/1.1/DTD/svg11.dtd">
<!-- Generated by graphviz version 2.40.1 (20161225.0304)
 -->
<!-- Title: finite_state_machine Pages: 1 -->
<svg width="900pt" height="232pt"
 viewBox="0.00 0.00 899.65 232.32" xmlns="http://www.w3.org/2000/svg" xmlns:xlink="http://www.w3.org/1999/xlink">
<g id="graph0" class="graph" transform="scale(1 1) rotate(0) translate(4 228.3151)">
<title>finite_state_machine</title>
<polygon fill="#ffffff" stroke="transparent" points="-4,4 -4,-228.3151 895.6545,-228.3151 895.6545,4 -4,4"/>
<text text-anchor="middle" x="445.8273" y="-209.1151" font-family="Times,serif" font-size="14.00" fill="#000000">DoNAI Selector FSM</text>
<!-- DOMAIN -->
<g id="node1" class="node">
<title>DOMAIN</title>
<ellipse fill="none" stroke="#000000" cx="841.1936" cy="-58.7329" rx="46.4249" ry="46.4249"/>
<ellipse fill="none" stroke="#000000" cx="841.1936" cy="-58.7329" rx="50.4218" ry="50.4218"/>
<text text-anchor="middle" x="841.1936" y="-54.5329" font-family="Times,serif" font-size="14.00" fill="#000000">DOMAIN</text>
</g>
<!-- DOMAIN&#45;&gt;DOMAIN -->
<g id="edge7" class="edge">
<title>DOMAIN&#45;&gt;DOMAIN</title>
<path fill="none" stroke="#000000" d="M823.4089,-106.0874C824.5779,-118.1431 830.5061,-127.1938 841.1936,-127.1938 848.7083,-127.1938 853.87,-122.7193 856.6788,-115.8718"/>
<polygon fill="#000000" stroke="#000000" points="860.0976,-116.6229 858.9783,-106.0874 853.2832,-115.0214 860.0976,-116.6229"/>
<text text-anchor="middle" x="841.1936" y="-129.9938" font-family="Times,serif" font-size="14.00" fill="#000000">basechar .</text>
</g>
<!-- qi -->
<g id="node2" class="node">
<title>qi</title>
<ellipse fill="#000000" stroke="#000000" cx="138.4414" cy="-58.7329" rx="1.8" ry="1.8"/>
</g>
<!-- S -->
<g id="node3" class="node">
<title>S</title>
<ellipse fill="none" stroke="#000000" cx="331.8828" cy="-58.7329" rx="18" ry="18"/>
<text text-anchor="middle" x="331.8828" y="-54.5329" font-family="Times,serif" font-size="14.00" fill="#000000">S</text>
</g>
<!-- qi&#45;&gt;S -->
<g id="edge1" class="edge">
<title>qi&#45;&gt;S</title>
<path fill="none" stroke="#000000" d="M140.6138,-58.7329C156.3969,-58.7329 254.2305,-58.7329 303.5381,-58.7329"/>
<polygon fill="#000000" stroke="#000000" points="303.8364,-62.233 313.8363,-58.7329 303.8363,-55.233 303.8364,-62.233"/>
</g>
<!-- LOCAL -->
<g id="node4" class="node">
<title>LOCAL</title>
<ellipse fill="none" stroke="#000000" cx="492.8263" cy="-114.7329" rx="39.6645" ry="39.6645"/>
<text text-anchor="middle" x="492.8263" y="-110.5329" font-family="Times,serif" font-size="14.00" fill="#000000">LOCAL</text>
</g>
<!-- S&#45;&gt;LOCAL -->
<g id="edge2" class="edge">
<title>S&#45;&gt;LOCAL</title>
<path fill="none" stroke="#000000" d="M349.1066,-64.7259C371.9618,-72.6783 413.205,-87.0289 445.6663,-98.3237"/>
<polygon fill="#000000" stroke="#000000" points="444.8336,-101.7397 455.4284,-101.7204 447.134,-95.1285 444.8336,-101.7397"/>
<text text-anchor="middle" x="401.5635" y="-95.5329" font-family="Times,serif" font-size="14.00" fill="#000000">basechar . +</text>
</g>
<!-- NEWLABEL -->
<g id="node5" class="node">
<title>NEWLABEL</title>
<ellipse fill="none" stroke="#000000" cx="640.034" cy="-58.7329" rx="58.9668" ry="58.9668"/>
<text text-anchor="middle" x="640.034" y="-54.5329" font-family="Times,serif" font-size="14.00" fill="#000000">NEWLABEL</text>
</g>
<!-- S&#45;&gt;NEWLABEL -->
<g id="edge3" class="edge">
<title>S&#45;&gt;NEWLABEL</title>
<path fill="none" stroke="#000000" d="M349.9626,-57.364C373.6629,-55.6444 416.5372,-52.7907 453.2441,-51.7329 488.4137,-50.7195 497.2429,-50.5905 532.4085,-51.7329 544.9604,-52.1407 558.3228,-52.8153 571.2093,-53.5889"/>
<polygon fill="#000000" stroke="#000000" points="571.2185,-57.0962 581.4175,-54.2273 571.6555,-50.1099 571.2185,-57.0962"/>
<text text-anchor="middle" x="492.8263" y="-54.5329" font-family="Times,serif" font-size="14.00" fill="#000000">@</text>
</g>
<!-- LOCAL&#45;&gt;LOCAL -->
<g id="edge4" class="edge">
<title>LOCAL&#45;&gt;LOCAL</title>
<path fill="none" stroke="#000000" d="M480.8622,-152.6672C481.2758,-163.739 485.2638,-172.3151 492.8263,-172.3151 497.9074,-172.3151 501.3748,-168.4437 503.2288,-162.5451"/>
<polygon fill="#000000" stroke="#000000" points="506.6858,-163.0911 504.7904,-152.6672 499.7717,-161.998 506.6858,-163.0911"/>
<text text-anchor="middle" x="492.8263" y="-175.1151" font-family="Times,serif" font-size="14.00" fill="#000000">basechar . +</text>
</g>
<!-- LOCAL&#45;&gt;NEWLABEL -->
<g id="edge5" class="edge">
<title>LOCAL&#45;&gt;NEWLABEL</title>
<path fill="none" stroke="#000000" d="M529.973,-100.6018C543.7978,-95.3426 559.9183,-89.2101 575.4896,-83.2866"/>
<polygon fill="#000000" stroke="#000000" points="576.9864,-86.462 585.0884,-79.635 574.4974,-79.9194 576.9864,-86.462"/>
<text text-anchor="middle" x="556.8548" y="-94.5329" font-family="Times,serif" font-size="14.00" fill="#000000">@</text>
</g>
<!-- NEWLABEL&#45;&gt;DOMAIN -->
<g id="edge6" class="edge">
<title>NEWLABEL&#45;&gt;DOMAIN</title>
<path fill="none" stroke="#000000" d="M699.0293,-58.7329C724.7179,-58.7329 754.799,-58.7329 780.659,-58.7329"/>
<polygon fill="#000000" stroke="#000000" points="780.714,-62.233 790.714,-58.7329 780.7139,-55.233 780.714,-62.233"/>
<text text-anchor="middle" x="744.7498" y="-61.5329" font-family="Times,serif" font-size="14.00" fill="#000000">basechar .</text>
</g>
<!-- basechar -->
<g id="node6" class="node">
<title>basechar</title>
<polygon fill="none" stroke="#000000" points="276.8242,-148.7329 .0586,-148.7329 .0586,-78.7329 276.8242,-78.7329 276.8242,-148.7329"/>
<text text-anchor="middle" x="138.4414" y="-123.5329" font-family="Times,serif" font-size="14.00" fill="#000000">basechar &#45; visible characters</text>
<text text-anchor="middle" x="138.4414" y="-109.5329" font-family="Times,serif" font-size="14.00" fill="#000000">except SPACE, DOT, PLUS, AT </text>
<text text-anchor="middle" x="138.4414" y="-95.5329" font-family="Times,serif" font-size="14.00" fill="#000000">%x21&#45;2A / %x2C&#45;2D / %x2F&#45;3F / %x41&#45;7E</text>
</g>
</g>
</svg>
