<?xml version="1.0" encoding="UTF-8" standalone="no"?>
<!DOCTYPE svg PUBLIC "-//W3C//DTD SVG 1.1//EN"
 "http://www.w3.org/Graphics/SVG/1.1/DTD/svg11.dtd">
<!-- Generated by graphviz version 2.40.1 (20161225.0304)
 -->
<!-- Title: finite_state_machine Pages: 1 -->
<svg width="1469pt" height="625pt"
 viewBox="0.00 0.00 1468.79 624.84" xmlns="http://www.w3.org/2000/svg" xmlns:xlink="http://www.w3.org/1999/xlink">
<g id="graph0" class="graph" transform="scale(1 1) rotate(0) translate(4 620.8405)">
<title>finite_state_machine</title>
<polygon fill="#ffffff" stroke="transparent" points="-4,4 -4,-620.8405 1464.7864,-620.8405 1464.7864,4 -4,4"/>
<text text-anchor="middle" x="730.3932" y="-601.6405" font-family="Times,serif" font-size="14.00" fill="#000000">DoNAI user FSM</text>
<!-- USER -->
<g id="node1" class="node">
<title>USER</title>
<ellipse fill="none" stroke="#000000" cx="346.113" cy="-408.8787" rx="32.9021" ry="32.9021"/>
<ellipse fill="none" stroke="#000000" cx="346.113" cy="-408.8787" rx="36.9254" ry="36.9254"/>
<text text-anchor="middle" x="346.113" y="-404.6787" font-family="Times,serif" font-size="14.00" fill="#000000">USER</text>
</g>
<!-- USER&#45;&gt;USER -->
<g id="edge3" class="edge">
<title>USER&#45;&gt;USER</title>
<path fill="none" stroke="#000000" d="M330.0037,-441.9986C329.6573,-453.8932 335.0271,-463.5907 346.113,-463.5907 353.7346,-463.5907 358.6544,-459.0071 360.8724,-452.2772"/>
<polygon fill="#000000" stroke="#000000" points="364.3903,-452.3693 362.2223,-441.9986 357.4499,-451.4577 364.3903,-452.3693"/>
<text text-anchor="middle" x="346.113" y="-466.3907" font-family="Times,serif" font-size="14.00" fill="#000000">userchar</text>
</g>
<!-- USERDOT -->
<g id="node8" class="node">
<title>USERDOT</title>
<ellipse fill="none" stroke="#000000" cx="535.858" cy="-488.8787" rx="50.7741" ry="50.7741"/>
<text text-anchor="middle" x="535.858" y="-484.6787" font-family="Times,serif" font-size="14.00" fill="#000000">USERDOT</text>
</g>
<!-- USER&#45;&gt;USERDOT -->
<g id="edge4" class="edge">
<title>USER&#45;&gt;USERDOT</title>
<path fill="none" stroke="#000000" d="M376.2094,-430.4254C386.6799,-437.2784 398.7244,-444.4738 410.3666,-449.8787 431.1784,-459.5405 455.0061,-467.63 476.2681,-473.8915"/>
<polygon fill="#000000" stroke="#000000" points="475.5773,-477.3344 486.1547,-476.7278 477.5076,-470.6058 475.5773,-477.3344"/>
<text text-anchor="middle" x="434.0737" y="-470.6787" font-family="Times,serif" font-size="14.00" fill="#000000">.</text>
</g>
<!-- USERALIAS -->
<g id="node9" class="node">
<title>USERALIAS</title>
<ellipse fill="none" stroke="#000000" cx="535.858" cy="-360.8787" rx="58.5015" ry="58.5015"/>
<text text-anchor="middle" x="535.858" y="-356.6787" font-family="Times,serif" font-size="14.00" fill="#000000">USERALIAS</text>
</g>
<!-- USER&#45;&gt;USERALIAS -->
<g id="edge6" class="edge">
<title>USER&#45;&gt;USERALIAS</title>
<path fill="none" stroke="#000000" d="M381.8026,-399.8502C406.3008,-393.6529 439.565,-385.238 468.9142,-377.8135"/>
<polygon fill="#000000" stroke="#000000" points="469.8628,-381.1839 478.6991,-375.3382 468.1461,-374.3976 469.8628,-381.1839"/>
<text text-anchor="middle" x="434.0737" y="-394.6787" font-family="Times,serif" font-size="14.00" fill="#000000">+</text>
</g>
<!-- USERALIAS_E -->
<g id="node2" class="node">
<title>USERALIAS_E</title>
<ellipse fill="none" stroke="#000000" cx="751.9232" cy="-372.8787" rx="68.6438" ry="68.6438"/>
<ellipse fill="none" stroke="#000000" cx="751.9232" cy="-372.8787" rx="72.6478" ry="72.6478"/>
<text text-anchor="middle" x="751.9232" y="-368.6787" font-family="Times,serif" font-size="14.00" fill="#000000">USERALIAS_E</text>
</g>
<!-- USERALIAS_E&#45;&gt;USERALIAS_E -->
<g id="edge8" class="edge">
<title>USERALIAS_E&#45;&gt;USERALIAS_E</title>
<path fill="none" stroke="#000000" d="M731.8842,-442.755C734.556,-454.9612 741.2357,-463.4525 751.9232,-463.4525 759.4379,-463.4525 764.9711,-459.2546 768.523,-452.519"/>
<polygon fill="#000000" stroke="#000000" points="771.941,-453.3498 771.9623,-442.755 765.3387,-451.0241 771.941,-453.3498"/>
<text text-anchor="middle" x="751.9232" y="-466.2525" font-family="Times,serif" font-size="14.00" fill="#000000">userchar</text>
</g>
<!-- USERFLAGS -->
<g id="node3" class="node">
<title>USERFLAGS</title>
<ellipse fill="none" stroke="#000000" cx="984.8362" cy="-495.8787" rx="60.9341" ry="60.9341"/>
<ellipse fill="none" stroke="#000000" cx="984.8362" cy="-495.8787" rx="64.9479" ry="64.9479"/>
<text text-anchor="middle" x="984.8362" y="-491.6787" font-family="Times,serif" font-size="14.00" fill="#000000">USERFLAGS</text>
</g>
<!-- USERALIAS_E&#45;&gt;USERFLAGS -->
<g id="edge11" class="edge">
<title>USERALIAS_E&#45;&gt;USERFLAGS</title>
<path fill="none" stroke="#000000" d="M816.1843,-406.8146C848.0616,-423.6488 886.5177,-443.9572 918.6533,-460.9278"/>
<polygon fill="#000000" stroke="#000000" points="917.0617,-464.0454 927.5388,-465.6202 920.3306,-457.8555 917.0617,-464.0454"/>
<text text-anchor="middle" x="866.2041" y="-447.6787" font-family="Times,serif" font-size="14.00" fill="#000000">+</text>
</g>
<!-- USERALIASDOT -->
<g id="node10" class="node">
<title>USERALIASDOT</title>
<ellipse fill="none" stroke="#000000" cx="984.8362" cy="-335.8787" rx="76.8502" ry="76.8502"/>
<text text-anchor="middle" x="984.8362" y="-331.6787" font-family="Times,serif" font-size="14.00" fill="#000000">USERALIASDOT</text>
</g>
<!-- USERALIAS_E&#45;&gt;USERALIASDOT -->
<g id="edge9" class="edge">
<title>USERALIAS_E&#45;&gt;USERALIASDOT</title>
<path fill="none" stroke="#000000" d="M823.7053,-361.4755C847.4357,-357.7058 874.0831,-353.4726 898.7712,-349.5507"/>
<polygon fill="#000000" stroke="#000000" points="899.5243,-352.9751 908.8513,-347.9494 898.426,-346.0618 899.5243,-352.9751"/>
<text text-anchor="middle" x="866.2041" y="-360.6787" font-family="Times,serif" font-size="14.00" fill="#000000">.</text>
</g>
<!-- USERSIG -->
<g id="node4" class="node">
<title>USERSIG</title>
<ellipse fill="none" stroke="#000000" cx="1196.1372" cy="-495.8787" rx="46.9266" ry="46.9266"/>
<ellipse fill="none" stroke="#000000" cx="1196.1372" cy="-495.8787" rx="50.9236" ry="50.9236"/>
<text text-anchor="middle" x="1196.1372" y="-491.6787" font-family="Times,serif" font-size="14.00" fill="#000000">USERSIG</text>
</g>
<!-- USERFLAGS&#45;&gt;USERSIG -->
<g id="edge12" class="edge">
<title>USERFLAGS&#45;&gt;USERSIG</title>
<path fill="none" stroke="#000000" d="M1049.6695,-495.8787C1076.6581,-495.8787 1107.8459,-495.8787 1134.4884,-495.8787"/>
<polygon fill="#000000" stroke="#000000" points="1134.8376,-499.3788 1144.8375,-495.8787 1134.8375,-492.3788 1134.8376,-499.3788"/>
<text text-anchor="middle" x="1103.4683" y="-498.6787" font-family="Times,serif" font-size="14.00" fill="#000000">userchar</text>
</g>
<!-- USERSIG&#45;&gt;USERSIG -->
<g id="edge13" class="edge">
<title>USERSIG&#45;&gt;USERSIG</title>
<path fill="none" stroke="#000000" d="M1179.1567,-544.2159C1180.4145,-556.0406 1186.0747,-564.8405 1196.1372,-564.8405 1203.0551,-564.8405 1207.8923,-560.6812 1210.6487,-554.2391"/>
<polygon fill="#000000" stroke="#000000" points="1214.1243,-554.7628 1213.1176,-544.2159 1207.3274,-553.0885 1214.1243,-554.7628"/>
<text text-anchor="middle" x="1196.1372" y="-567.6405" font-family="Times,serif" font-size="14.00" fill="#000000">userchar</text>
</g>
<!-- USERSIGDOT -->
<g id="node11" class="node">
<title>USERSIGDOT</title>
<ellipse fill="none" stroke="#000000" cx="1395.6497" cy="-495.8787" rx="65.2736" ry="65.2736"/>
<text text-anchor="middle" x="1395.6497" y="-491.6787" font-family="Times,serif" font-size="14.00" fill="#000000">USERSIGDOT</text>
</g>
<!-- USERSIG&#45;&gt;USERSIGDOT -->
<g id="edge14" class="edge">
<title>USERSIG&#45;&gt;USERSIGDOT</title>
<path fill="none" stroke="#000000" d="M1247.2575,-495.8787C1269.3815,-495.8787 1295.7311,-495.8787 1320.0443,-495.8787"/>
<polygon fill="#000000" stroke="#000000" points="1320.3213,-499.3788 1330.3213,-495.8787 1320.3213,-492.3788 1320.3213,-499.3788"/>
<text text-anchor="middle" x="1288.806" y="-498.6787" font-family="Times,serif" font-size="14.00" fill="#000000">.</text>
</g>
<!-- SERVICE_E -->
<g id="node5" class="node">
<title>SERVICE_E</title>
<ellipse fill="none" stroke="#000000" cx="535.858" cy="-180.8787" rx="56.1495" ry="56.1495"/>
<ellipse fill="none" stroke="#000000" cx="535.858" cy="-180.8787" rx="60.1547" ry="60.1547"/>
<text text-anchor="middle" x="535.858" y="-176.6787" font-family="Times,serif" font-size="14.00" fill="#000000">SERVICE_E</text>
</g>
<!-- SERVICE_E&#45;&gt;SERVICE_E -->
<g id="edge18" class="edge">
<title>SERVICE_E&#45;&gt;SERVICE_E</title>
<path fill="none" stroke="#000000" d="M517.7672,-238.4192C519.6715,-250.3654 525.7017,-258.956 535.858,-258.956 542.9991,-258.956 548.1004,-254.7089 551.1619,-248.0346"/>
<polygon fill="#000000" stroke="#000000" points="554.5265,-248.9983 553.9488,-238.4192 547.8032,-247.0495 554.5265,-248.9983"/>
<text text-anchor="middle" x="535.858" y="-261.756" font-family="Times,serif" font-size="14.00" fill="#000000">userchar</text>
</g>
<!-- SERVICEDOT -->
<g id="node13" class="node">
<title>SERVICEDOT</title>
<ellipse fill="none" stroke="#000000" cx="751.9232" cy="-217.8787" rx="64.3571" ry="64.3571"/>
<text text-anchor="middle" x="751.9232" y="-213.6787" font-family="Times,serif" font-size="14.00" fill="#000000">SERVICEDOT</text>
</g>
<!-- SERVICE_E&#45;&gt;SERVICEDOT -->
<g id="edge19" class="edge">
<title>SERVICE_E&#45;&gt;SERVICEDOT</title>
<path fill="none" stroke="#000000" d="M595.0782,-192.4602C601.4383,-193.643 607.8177,-194.8036 613.9353,-195.8787 634.6734,-199.523 657.2114,-203.2251 677.9448,-206.5269"/>
<polygon fill="#000000" stroke="#000000" points="677.5379,-210.006 687.9623,-208.1136 678.633,-203.0922 677.5379,-210.006"/>
<text text-anchor="middle" x="637.6423" y="-206.6787" font-family="Times,serif" font-size="14.00" fill="#000000">.</text>
</g>
<!-- SERVICEPLUS -->
<g id="node14" class="node">
<title>SERVICEPLUS</title>
<ellipse fill="none" stroke="#000000" cx="751.9232" cy="-67.8787" rx="67.7575" ry="67.7575"/>
<text text-anchor="middle" x="751.9232" y="-63.6787" font-family="Times,serif" font-size="14.00" fill="#000000">SERVICEPLUS</text>
</g>
<!-- SERVICE_E&#45;&gt;SERVICEPLUS -->
<g id="edge21" class="edge">
<title>SERVICE_E&#45;&gt;SERVICEPLUS</title>
<path fill="none" stroke="#000000" d="M589.2674,-152.9461C617.3537,-138.2572 652.1244,-120.0725 682.2991,-104.2914"/>
<polygon fill="#000000" stroke="#000000" points="684.2643,-107.2134 691.5036,-99.4775 681.0202,-101.0105 684.2643,-107.2134"/>
<text text-anchor="middle" x="637.6423" y="-140.6787" font-family="Times,serif" font-size="14.00" fill="#000000">+</text>
</g>
<!-- qi -->
<g id="node6" class="node">
<title>qi</title>
<ellipse fill="#000000" stroke="#000000" cx="71.7227" cy="-312.8787" rx="1.8" ry="1.8"/>
</g>
<!-- S -->
<g id="node7" class="node">
<title>S</title>
<ellipse fill="none" stroke="#000000" cx="198.4453" cy="-312.8787" rx="18" ry="18"/>
<text text-anchor="middle" x="198.4453" y="-308.6787" font-family="Times,serif" font-size="14.00" fill="#000000">S</text>
</g>
<!-- qi&#45;&gt;S -->
<g id="edge1" class="edge">
<title>qi&#45;&gt;S</title>
<path fill="none" stroke="#000000" d="M73.9222,-312.8787C85.1916,-312.8787 137.2164,-312.8787 170.3536,-312.8787"/>
<polygon fill="#000000" stroke="#000000" points="170.3732,-316.3788 180.3732,-312.8787 170.3732,-309.3788 170.3732,-316.3788"/>
</g>
<!-- S&#45;&gt;USER -->
<g id="edge2" class="edge">
<title>S&#45;&gt;USER</title>
<path fill="none" stroke="#000000" d="M213.6922,-322.7908C235.4224,-336.9178 276.0489,-363.3294 306.5962,-383.1885"/>
<polygon fill="#000000" stroke="#000000" points="305.0282,-386.3437 315.3199,-388.8598 308.8436,-380.4748 305.0282,-386.3437"/>
<text text-anchor="middle" x="258.1523" y="-369.6787" font-family="Times,serif" font-size="14.00" fill="#000000">userchar</text>
</g>
<!-- SERVICE -->
<g id="node12" class="node">
<title>SERVICE</title>
<ellipse fill="none" stroke="#000000" cx="346.113" cy="-262.8787" rx="46.0086" ry="46.0086"/>
<text text-anchor="middle" x="346.113" y="-258.6787" font-family="Times,serif" font-size="14.00" fill="#000000">SERVICE</text>
</g>
<!-- S&#45;&gt;SERVICE -->
<g id="edge16" class="edge">
<title>S&#45;&gt;SERVICE</title>
<path fill="none" stroke="#000000" d="M215.6737,-307.0452C234.4429,-300.6899 265.4089,-290.2049 292.4601,-281.0454"/>
<polygon fill="#000000" stroke="#000000" points="293.8701,-284.2633 302.2193,-277.741 291.625,-277.633 293.8701,-284.2633"/>
<text text-anchor="middle" x="258.1523" y="-302.6787" font-family="Times,serif" font-size="14.00" fill="#000000">+</text>
</g>
<!-- USERDOT&#45;&gt;USER -->
<g id="edge5" class="edge">
<title>USERDOT&#45;&gt;USER</title>
<path fill="none" stroke="#000000" d="M496.9657,-455.4774C485.0365,-446.6586 471.4384,-437.9266 457.7807,-431.8787 437.4208,-422.8629 413.3915,-417.3294 392.8492,-413.9588"/>
<polygon fill="#000000" stroke="#000000" points="393.1824,-410.4694 382.7704,-412.4292 392.132,-417.3901 393.1824,-410.4694"/>
<text text-anchor="middle" x="434.0737" y="-434.6787" font-family="Times,serif" font-size="14.00" fill="#000000">userchar</text>
</g>
<!-- USERALIAS&#45;&gt;USERALIAS_E -->
<g id="edge7" class="edge">
<title>USERALIAS&#45;&gt;USERALIAS_E</title>
<path fill="none" stroke="#000000" d="M594.6134,-364.1419C617.568,-365.4167 644.3002,-366.9014 669.1448,-368.2812"/>
<polygon fill="#000000" stroke="#000000" points="669.1128,-371.7848 679.2915,-368.8448 669.501,-364.7955 669.1128,-371.7848"/>
<text text-anchor="middle" x="637.6423" y="-370.6787" font-family="Times,serif" font-size="14.00" fill="#000000">userchar</text>
</g>
<!-- USERALIASDOT&#45;&gt;USERALIAS_E -->
<g id="edge10" class="edge">
<title>USERALIASDOT&#45;&gt;USERALIAS_E</title>
<path fill="none" stroke="#000000" d="M908.1736,-328.739C886.7401,-328.378 863.5556,-329.5376 842.4971,-333.8787 837.3881,-334.9318 832.2123,-336.2868 827.0579,-337.8567"/>
<polygon fill="#000000" stroke="#000000" points="825.5906,-334.6554 817.1951,-341.1181 827.7883,-341.3015 825.5906,-334.6554"/>
<text text-anchor="middle" x="866.2041" y="-336.6787" font-family="Times,serif" font-size="14.00" fill="#000000">userchar</text>
</g>
<!-- USERSIGDOT&#45;&gt;USERSIG -->
<g id="edge15" class="edge">
<title>USERSIGDOT&#45;&gt;USERSIG</title>
<path fill="none" stroke="#000000" d="M1332.2678,-480.35C1310.9376,-476.9337 1286.998,-475.0678 1265.099,-477.8787 1261.8466,-478.2961 1258.5287,-478.82 1255.1935,-479.4239"/>
<polygon fill="#000000" stroke="#000000" points="1254.2923,-476.0352 1245.185,-481.4487 1255.6804,-482.8962 1254.2923,-476.0352"/>
<text text-anchor="middle" x="1288.806" y="-480.6787" font-family="Times,serif" font-size="14.00" fill="#000000">userchar</text>
</g>
<!-- SERVICE&#45;&gt;SERVICE_E -->
<g id="edge17" class="edge">
<title>SERVICE&#45;&gt;SERVICE_E</title>
<path fill="none" stroke="#000000" d="M388.6955,-244.4763C412.935,-234.0009 443.7972,-220.6635 470.9924,-208.9109"/>
<polygon fill="#000000" stroke="#000000" points="472.6508,-212.0071 480.4419,-204.8272 469.8739,-205.5815 472.6508,-212.0071"/>
<text text-anchor="middle" x="434.0737" y="-237.6787" font-family="Times,serif" font-size="14.00" fill="#000000">userchar</text>
</g>
<!-- SERVICEDOT&#45;&gt;SERVICE_E -->
<g id="edge20" class="edge">
<title>SERVICEDOT&#45;&gt;SERVICE_E</title>
<path fill="none" stroke="#000000" d="M694.6503,-188.3543C683.8474,-184.0139 672.4502,-180.2208 661.3493,-177.8787 643.62,-174.138 624.1697,-173.1437 605.9865,-173.5062"/>
<polygon fill="#000000" stroke="#000000" points="605.6191,-170.0165 595.743,-173.8521 605.8554,-177.0126 605.6191,-170.0165"/>
<text text-anchor="middle" x="637.6423" y="-180.6787" font-family="Times,serif" font-size="14.00" fill="#000000">userchar</text>
</g>
<!-- SERVICEPLUS&#45;&gt;SERVICE_E -->
<g id="edge22" class="edge">
<title>SERVICEPLUS&#45;&gt;SERVICE_E</title>
<path fill="none" stroke="#000000" d="M684.1315,-75.6023C660.8051,-80.2879 635.2206,-87.8093 613.9353,-99.8787 601.7671,-106.7783 590.2966,-116.1569 580.0858,-126.0873"/>
<polygon fill="#000000" stroke="#000000" points="577.414,-123.8119 572.8813,-133.3882 582.3965,-128.7286 577.414,-123.8119"/>
<text text-anchor="middle" x="637.6423" y="-102.6787" font-family="Times,serif" font-size="14.00" fill="#000000">userchar</text>
</g>
<!-- userchar -->
<g id="node15" class="node">
<title>userchar</title>
<polygon fill="none" stroke="#000000" points="143.6687,-432.8787 -.2233,-432.8787 -.2233,-332.8787 143.6687,-332.8787 143.6687,-432.8787"/>
<text text-anchor="middle" x="71.7227" y="-407.6787" font-family="Times,serif" font-size="14.00" fill="#000000">userchar </text>
<text text-anchor="middle" x="71.7227" y="-377.6787" font-family="Times,serif" font-size="14.00" fill="#000000">0&#45;9A&#45;Za&#45;z</text>
<text text-anchor="middle" x="71.7227" y="-363.6787" font-family="Times,serif" font-size="14.00" fill="#000000">!#$%&amp;&#39;*&#45;/=?^_`{|}~</text>
<text text-anchor="middle" x="71.7227" y="-349.6787" font-family="Times,serif" font-size="14.00" fill="#000000">UTF8&#45;char</text>
</g>
</g>
</svg>
