<?xml version="1.0" encoding="UTF-8" standalone="no"?>
<!DOCTYPE svg PUBLIC "-//W3C//DTD SVG 1.1//EN"
 "http://www.w3.org/Graphics/SVG/1.1/DTD/svg11.dtd">
<!-- Generated by graphviz version 2.40.1 (20161225.0304)
 -->
<!-- Title: finite_state_machine Pages: 1 -->
<svg width="1577pt" height="390pt"
 viewBox="0.00 0.00 1576.65 390.43" xmlns="http://www.w3.org/2000/svg" xmlns:xlink="http://www.w3.org/1999/xlink">
<g id="graph0" class="graph" transform="scale(1 1) rotate(0) translate(4 386.4259)">
<title>finite_state_machine</title>
<polygon fill="#ffffff" stroke="transparent" points="-4,4 -4,-386.4259 1572.6524,-386.4259 1572.6524,4 -4,4"/>
<text text-anchor="middle" x="784.3262" y="-367.2259" font-family="Times,serif" font-size="14.00" fill="#000000">DoNAI user FSM</text>
<!-- USER -->
<g id="node1" class="node">
<title>USER</title>
<ellipse fill="none" stroke="#000000" cx="349.613" cy="-228.8787" rx="32.9021" ry="32.9021"/>
<ellipse fill="none" stroke="#000000" cx="349.613" cy="-228.8787" rx="36.9254" ry="36.9254"/>
<text text-anchor="middle" x="349.613" y="-224.6787" font-family="Times,serif" font-size="14.00" fill="#000000">USER</text>
</g>
<!-- USER&#45;&gt;USER -->
<g id="edge3" class="edge">
<title>USER&#45;&gt;USER</title>
<path fill="none" stroke="#000000" d="M333.5037,-261.9986C333.1573,-273.8932 338.5271,-283.5907 349.613,-283.5907 357.2346,-283.5907 362.1544,-279.0071 364.3724,-272.2772"/>
<polygon fill="#000000" stroke="#000000" points="367.8903,-272.3693 365.7223,-261.9986 360.9499,-271.4577 367.8903,-272.3693"/>
<text text-anchor="middle" x="349.613" y="-286.3907" font-family="Times,serif" font-size="14.00" fill="#000000">userchar</text>
</g>
<!-- USERALIAS -->
<g id="node8" class="node">
<title>USERALIAS</title>
<ellipse fill="none" stroke="#000000" cx="539.358" cy="-237.8787" rx="58.5015" ry="58.5015"/>
<text text-anchor="middle" x="539.358" y="-233.6787" font-family="Times,serif" font-size="14.00" fill="#000000">USERALIAS</text>
</g>
<!-- USER&#45;&gt;USERALIAS -->
<g id="edge4" class="edge">
<title>USER&#45;&gt;USERALIAS</title>
<path fill="none" stroke="#000000" d="M386.6482,-230.6353C410.3735,-231.7607 441.9024,-233.2561 470.1492,-234.5959"/>
<polygon fill="#000000" stroke="#000000" points="470.2323,-238.1037 480.3869,-235.0815 470.564,-231.1116 470.2323,-238.1037"/>
<text text-anchor="middle" x="437.5737" y="-236.6787" font-family="Times,serif" font-size="14.00" fill="#000000">+</text>
</g>
<!-- USERALIAS_E -->
<g id="node2" class="node">
<title>USERALIAS_E</title>
<ellipse fill="none" stroke="#000000" cx="755.4232" cy="-237.8787" rx="68.6438" ry="68.6438"/>
<ellipse fill="none" stroke="#000000" cx="755.4232" cy="-237.8787" rx="72.6478" ry="72.6478"/>
<text text-anchor="middle" x="755.4232" y="-233.6787" font-family="Times,serif" font-size="14.00" fill="#000000">USERALIAS_E</text>
</g>
<!-- USERALIAS_E&#45;&gt;USERALIAS_E -->
<g id="edge6" class="edge">
<title>USERALIAS_E&#45;&gt;USERALIAS_E</title>
<path fill="none" stroke="#000000" d="M739.116,-308.8883C741.4504,-320.4837 746.8861,-328.4525 755.4232,-328.4525 761.2925,-328.4525 765.6959,-324.686 768.6334,-318.564"/>
<polygon fill="#000000" stroke="#000000" points="772.0152,-319.4793 771.7304,-308.8883 765.3484,-317.3453 772.0152,-319.4793"/>
<text text-anchor="middle" x="755.4232" y="-331.2525" font-family="Times,serif" font-size="14.00" fill="#000000">userchar</text>
</g>
<!-- USERFLAGS -->
<g id="node9" class="node">
<title>USERFLAGS</title>
<ellipse fill="none" stroke="#000000" cx="932.6162" cy="-237.8787" rx="60.948" ry="60.948"/>
<text text-anchor="middle" x="932.6162" y="-233.6787" font-family="Times,serif" font-size="14.00" fill="#000000">USERFLAGS</text>
</g>
<!-- USERALIAS_E&#45;&gt;USERFLAGS -->
<g id="edge7" class="edge">
<title>USERALIAS_E&#45;&gt;USERFLAGS</title>
<path fill="none" stroke="#000000" d="M828.0056,-237.8787C839.1281,-237.8787 850.599,-237.8787 861.6851,-237.8787"/>
<polygon fill="#000000" stroke="#000000" points="861.7372,-241.3788 871.7371,-237.8787 861.7371,-234.3788 861.7372,-241.3788"/>
<text text-anchor="middle" x="849.9449" y="-240.6787" font-family="Times,serif" font-size="14.00" fill="#000000">+</text>
</g>
<!-- USERFLAGS_E -->
<g id="node3" class="node">
<title>USERFLAGS_E</title>
<ellipse fill="none" stroke="#000000" cx="1151.3011" cy="-237.8787" rx="70.592" ry="70.592"/>
<ellipse fill="none" stroke="#000000" cx="1151.3011" cy="-237.8787" rx="74.5945" ry="74.5945"/>
<text text-anchor="middle" x="1151.3011" y="-233.6787" font-family="Times,serif" font-size="14.00" fill="#000000">USERFLAGS_E</text>
</g>
<!-- USERFLAGS_E&#45;&gt;USERFLAGS_E -->
<g id="edge9" class="edge">
<title>USERFLAGS_E&#45;&gt;USERFLAGS_E</title>
<path fill="none" stroke="#000000" d="M1134.7249,-310.8163C1137.1507,-322.4576 1142.6761,-330.4259 1151.3011,-330.4259 1157.2307,-330.4259 1161.6954,-326.6596 1164.695,-320.5229"/>
<polygon fill="#000000" stroke="#000000" points="1168.0877,-321.4091 1167.8772,-310.8163 1161.436,-319.2283 1168.0877,-321.4091"/>
<text text-anchor="middle" x="1151.3011" y="-333.2259" font-family="Times,serif" font-size="14.00" fill="#000000">userchar</text>
</g>
<!-- USERSIG -->
<g id="node10" class="node">
<title>USERSIG</title>
<ellipse fill="none" stroke="#000000" cx="1316.7056" cy="-237.8787" rx="46.9236" ry="46.9236"/>
<text text-anchor="middle" x="1316.7056" y="-233.6787" font-family="Times,serif" font-size="14.00" fill="#000000">USERSIG</text>
</g>
<!-- USERFLAGS_E&#45;&gt;USERSIG -->
<g id="edge10" class="edge">
<title>USERFLAGS_E&#45;&gt;USERSIG</title>
<path fill="none" stroke="#000000" d="M1226.2601,-237.8787C1237.4014,-237.8787 1248.7318,-237.8787 1259.433,-237.8787"/>
<polygon fill="#000000" stroke="#000000" points="1259.4734,-241.3788 1269.4733,-237.8787 1259.4733,-234.3788 1259.4734,-241.3788"/>
<text text-anchor="middle" x="1247.7961" y="-240.6787" font-family="Times,serif" font-size="14.00" fill="#000000">+</text>
</g>
<!-- USERSIG_E -->
<g id="node4" class="node">
<title>USERSIG_E</title>
<ellipse fill="none" stroke="#000000" cx="1507.8669" cy="-237.8787" rx="56.5858" ry="56.5858"/>
<ellipse fill="none" stroke="#000000" cx="1507.8669" cy="-237.8787" rx="60.5717" ry="60.5717"/>
<text text-anchor="middle" x="1507.8669" y="-233.6787" font-family="Times,serif" font-size="14.00" fill="#000000">USERSIG_E</text>
</g>
<!-- USERSIG_E&#45;&gt;USERSIG_E -->
<g id="edge12" class="edge">
<title>USERSIG_E&#45;&gt;USERSIG_E</title>
<path fill="none" stroke="#000000" d="M1489.4143,-295.9411C1491.3567,-307.9957 1497.5076,-316.6641 1507.8669,-316.6641 1515.1509,-316.6641 1520.3542,-312.3786 1523.4769,-305.6437"/>
<polygon fill="#000000" stroke="#000000" points="1526.8667,-306.5218 1526.3196,-295.9411 1520.1491,-304.5536 1526.8667,-306.5218"/>
<text text-anchor="middle" x="1507.8669" y="-319.4641" font-family="Times,serif" font-size="14.00" fill="#000000">userchar</text>
</g>
<!-- SERVICE_E -->
<g id="node5" class="node">
<title>SERVICE_E</title>
<ellipse fill="none" stroke="#000000" cx="539.358" cy="-68.8787" rx="56.1495" ry="56.1495"/>
<ellipse fill="none" stroke="#000000" cx="539.358" cy="-68.8787" rx="60.1547" ry="60.1547"/>
<text text-anchor="middle" x="539.358" y="-64.6787" font-family="Times,serif" font-size="14.00" fill="#000000">SERVICE_E</text>
</g>
<!-- SERVICE_E&#45;&gt;SERVICE_E -->
<g id="edge15" class="edge">
<title>SERVICE_E&#45;&gt;SERVICE_E</title>
<path fill="none" stroke="#000000" d="M521.2672,-126.4192C523.1715,-138.3654 529.2017,-146.956 539.358,-146.956 546.4991,-146.956 551.6004,-142.7089 554.6619,-136.0346"/>
<polygon fill="#000000" stroke="#000000" points="558.0265,-136.9983 557.4488,-126.4192 551.3032,-135.0495 558.0265,-136.9983"/>
<text text-anchor="middle" x="539.358" y="-149.756" font-family="Times,serif" font-size="14.00" fill="#000000">userchar</text>
</g>
<!-- SERVICEPLUS -->
<g id="node12" class="node">
<title>SERVICEPLUS</title>
<ellipse fill="none" stroke="#000000" cx="755.4232" cy="-67.8787" rx="67.7575" ry="67.7575"/>
<text text-anchor="middle" x="755.4232" y="-63.6787" font-family="Times,serif" font-size="14.00" fill="#000000">SERVICEPLUS</text>
</g>
<!-- SERVICE_E&#45;&gt;SERVICEPLUS -->
<g id="edge16" class="edge">
<title>SERVICE_E&#45;&gt;SERVICEPLUS</title>
<path fill="none" stroke="#000000" d="M599.4586,-70.5733C605.5308,-70.698 611.6052,-70.804 617.4353,-70.8787 638.5065,-71.1485 643.7793,-71.2275 664.8493,-70.8787 668.8067,-70.8131 672.8609,-70.7315 676.9547,-70.6376"/>
<polygon fill="#000000" stroke="#000000" points="677.2708,-74.1309 687.1798,-70.381 677.0951,-67.1331 677.2708,-74.1309"/>
<text text-anchor="middle" x="641.1423" y="-74.6787" font-family="Times,serif" font-size="14.00" fill="#000000">+</text>
</g>
<!-- qi -->
<g id="node6" class="node">
<title>qi</title>
<ellipse fill="#000000" stroke="#000000" cx="73.4727" cy="-169.8787" rx="1.8" ry="1.8"/>
</g>
<!-- S -->
<g id="node7" class="node">
<title>S</title>
<ellipse fill="none" stroke="#000000" cx="201.9453" cy="-169.8787" rx="18" ry="18"/>
<text text-anchor="middle" x="201.9453" y="-165.6787" font-family="Times,serif" font-size="14.00" fill="#000000">S</text>
</g>
<!-- qi&#45;&gt;S -->
<g id="edge1" class="edge">
<title>qi&#45;&gt;S</title>
<path fill="none" stroke="#000000" d="M75.2888,-169.8787C85.8014,-169.8787 139.5653,-169.8787 173.5793,-169.8787"/>
<polygon fill="#000000" stroke="#000000" points="173.849,-173.3788 183.849,-169.8787 173.849,-166.3788 173.849,-173.3788"/>
</g>
<!-- S&#45;&gt;USER -->
<g id="edge2" class="edge">
<title>S&#45;&gt;USER</title>
<path fill="none" stroke="#000000" d="M218.8847,-176.6467C239.9161,-185.0497 276.5748,-199.6965 305.7305,-211.3456"/>
<polygon fill="#000000" stroke="#000000" points="304.7122,-214.7077 315.2971,-215.1679 307.3095,-208.2074 304.7122,-214.7077"/>
<text text-anchor="middle" x="261.6523" y="-206.6787" font-family="Times,serif" font-size="14.00" fill="#000000">userchar</text>
</g>
<!-- SERVICE -->
<g id="node11" class="node">
<title>SERVICE</title>
<ellipse fill="none" stroke="#000000" cx="349.613" cy="-119.8787" rx="46.0086" ry="46.0086"/>
<text text-anchor="middle" x="349.613" y="-115.6787" font-family="Times,serif" font-size="14.00" fill="#000000">SERVICE</text>
</g>
<!-- S&#45;&gt;SERVICE -->
<g id="edge13" class="edge">
<title>S&#45;&gt;SERVICE</title>
<path fill="none" stroke="#000000" d="M219.1737,-164.0452C237.9429,-157.6899 268.9089,-147.2049 295.9601,-138.0454"/>
<polygon fill="#000000" stroke="#000000" points="297.3701,-141.2633 305.7193,-134.741 295.125,-134.633 297.3701,-141.2633"/>
<text text-anchor="middle" x="261.6523" y="-159.6787" font-family="Times,serif" font-size="14.00" fill="#000000">+</text>
</g>
<!-- USERALIAS&#45;&gt;USERALIAS_E -->
<g id="edge5" class="edge">
<title>USERALIAS&#45;&gt;USERALIAS_E</title>
<path fill="none" stroke="#000000" d="M598.1134,-237.8787C621.068,-237.8787 647.8002,-237.8787 672.6448,-237.8787"/>
<polygon fill="#000000" stroke="#000000" points="672.7916,-241.3788 682.7915,-237.8787 672.7915,-234.3788 672.7916,-241.3788"/>
<text text-anchor="middle" x="641.1423" y="-240.6787" font-family="Times,serif" font-size="14.00" fill="#000000">userchar</text>
</g>
<!-- USERFLAGS&#45;&gt;USERFLAGS_E -->
<g id="edge8" class="edge">
<title>USERFLAGS&#45;&gt;USERFLAGS_E</title>
<path fill="none" stroke="#000000" d="M993.5321,-237.8787C1016.0911,-237.8787 1042.0965,-237.8787 1066.4033,-237.8787"/>
<polygon fill="#000000" stroke="#000000" points="1066.7015,-241.3788 1076.7015,-237.8787 1066.7015,-234.3788 1066.7015,-241.3788"/>
<text text-anchor="middle" x="1035.0468" y="-240.6787" font-family="Times,serif" font-size="14.00" fill="#000000">userchar</text>
</g>
<!-- USERSIG&#45;&gt;USERSIG_E -->
<g id="edge11" class="edge">
<title>USERSIG&#45;&gt;USERSIG_E</title>
<path fill="none" stroke="#000000" d="M1363.959,-237.8787C1385.9196,-237.8787 1412.4991,-237.8787 1436.8089,-237.8787"/>
<polygon fill="#000000" stroke="#000000" points="1437.0683,-241.3788 1447.0683,-237.8787 1437.0683,-234.3788 1437.0683,-241.3788"/>
<text text-anchor="middle" x="1405.3744" y="-240.6787" font-family="Times,serif" font-size="14.00" fill="#000000">userchar</text>
</g>
<!-- SERVICE&#45;&gt;SERVICE_E -->
<g id="edge14" class="edge">
<title>SERVICE&#45;&gt;SERVICE_E</title>
<path fill="none" stroke="#000000" d="M394.5799,-107.7924C417.4123,-101.6554 445.6358,-94.0695 471.0822,-87.2299"/>
<polygon fill="#000000" stroke="#000000" points="472.3011,-90.5266 481.0498,-84.5508 470.4841,-83.7666 472.3011,-90.5266"/>
<text text-anchor="middle" x="437.5737" y="-105.6787" font-family="Times,serif" font-size="14.00" fill="#000000">userchar</text>
</g>
<!-- SERVICEPLUS&#45;&gt;SERVICE_E -->
<g id="edge17" class="edge">
<title>SERVICEPLUS&#45;&gt;SERVICE_E</title>
<path fill="none" stroke="#000000" d="M688.7677,-54.9782C666.1335,-52.1028 640.6905,-50.5204 617.4353,-52.8787 614.368,-53.1897 611.2432,-53.5678 608.0941,-53.999"/>
<polygon fill="#000000" stroke="#000000" points="607.3529,-50.5714 597.9949,-55.5392 608.4083,-57.4914 607.3529,-50.5714"/>
<text text-anchor="middle" x="641.1423" y="-55.6787" font-family="Times,serif" font-size="14.00" fill="#000000">userchar</text>
</g>
<!-- userchar -->
<g id="node13" class="node">
<title>userchar</title>
<polygon fill="none" stroke="#000000" points="146.918,-289.8787 .0273,-289.8787 .0273,-189.8787 146.918,-189.8787 146.918,-289.8787"/>
<text text-anchor="middle" x="73.4727" y="-264.6787" font-family="Times,serif" font-size="14.00" fill="#000000">userchar </text>
<text text-anchor="middle" x="73.4727" y="-234.6787" font-family="Times,serif" font-size="14.00" fill="#000000">0&#45;9A&#45;Za&#45;z</text>
<text text-anchor="middle" x="73.4727" y="-220.6787" font-family="Times,serif" font-size="14.00" fill="#000000">!#$%&amp;&#39;*.&#45;/=?^_`{|}~</text>
<text text-anchor="middle" x="73.4727" y="-206.6787" font-family="Times,serif" font-size="14.00" fill="#000000">UTF8&#45;char</text>
</g>
</g>
</svg>
