<?xml version="1.0" encoding="UTF-8" standalone="no"?>
<!DOCTYPE svg PUBLIC "-//W3C//DTD SVG 1.1//EN"
 "http://www.w3.org/Graphics/SVG/1.1/DTD/svg11.dtd">
<!-- Generated by graphviz version 2.40.1 (20161225.0304)
 -->
<!-- Title: finite_state_machine Pages: 1 -->
<svg width="550pt" height="207pt"
 viewBox="0.00 0.00 549.69 206.75" xmlns="http://www.w3.org/2000/svg" xmlns:xlink="http://www.w3.org/1999/xlink">
<g id="graph0" class="graph" transform="scale(1 1) rotate(0) translate(4 202.748)">
<title>finite_state_machine</title>
<polygon fill="#ffffff" stroke="transparent" points="-4,4 -4,-202.748 545.6937,-202.748 545.6937,4 -4,4"/>
<text text-anchor="middle" x="270.8468" y="-183.548" font-family="Times,serif" font-size="14.00" fill="#000000">DoNAI user FSM</text>
<!-- USER -->
<g id="node1" class="node">
<title>USER</title>
<ellipse fill="none" stroke="#000000" cx="340.0714" cy="-40.748" rx="32.9021" ry="32.9021"/>
<ellipse fill="none" stroke="#000000" cx="340.0714" cy="-40.748" rx="36.9254" ry="36.9254"/>
<text text-anchor="middle" x="340.0714" y="-36.548" font-family="Times,serif" font-size="14.00" fill="#000000">USER</text>
</g>
<!-- USER&#45;&gt;USER -->
<g id="edge3" class="edge">
<title>USER&#45;&gt;USER</title>
<path fill="none" stroke="#000000" d="M325.4473,-74.6755C325.3706,-86.1984 330.2453,-95.4601 340.0714,-95.4601 346.8269,-95.4601 351.2421,-91.0825 353.3169,-84.6021"/>
<polygon fill="#000000" stroke="#000000" points="356.7865,-85.062 354.6955,-74.6755 349.8531,-84.0989 356.7865,-85.062"/>
<text text-anchor="middle" x="340.0714" y="-98.2601" font-family="Times,serif" font-size="14.00" fill="#000000">userchar</text>
</g>
<!-- PARAM -->
<g id="node4" class="node">
<title>PARAM</title>
<ellipse fill="none" stroke="#000000" cx="500.9456" cy="-40.748" rx="40.9976" ry="40.9976"/>
<text text-anchor="middle" x="500.9456" y="-36.548" font-family="Times,serif" font-size="14.00" fill="#000000">PARAM</text>
</g>
<!-- USER&#45;&gt;PARAM -->
<g id="edge4" class="edge">
<title>USER&#45;&gt;PARAM</title>
<path fill="none" stroke="#000000" d="M376.9792,-40.748C398.5546,-40.748 426.1092,-40.748 449.7586,-40.748"/>
<polygon fill="#000000" stroke="#000000" points="449.9691,-44.2481 459.969,-40.748 449.969,-37.2481 449.9691,-44.2481"/>
<text text-anchor="middle" x="418.4905" y="-43.548" font-family="Times,serif" font-size="14.00" fill="#000000">+</text>
</g>
<!-- qi -->
<g id="node2" class="node">
<title>qi</title>
<ellipse fill="#000000" stroke="#000000" cx="73.4727" cy="-40.748" rx="1.8" ry="1.8"/>
</g>
<!-- S -->
<g id="node3" class="node">
<title>S</title>
<ellipse fill="none" stroke="#000000" cx="201.9453" cy="-40.748" rx="18" ry="18"/>
<text text-anchor="middle" x="201.9453" y="-36.548" font-family="Times,serif" font-size="14.00" fill="#000000">S</text>
</g>
<!-- qi&#45;&gt;S -->
<g id="edge1" class="edge">
<title>qi&#45;&gt;S</title>
<path fill="none" stroke="#000000" d="M75.2888,-40.748C85.8014,-40.748 139.5653,-40.748 173.5793,-40.748"/>
<polygon fill="#000000" stroke="#000000" points="173.849,-44.2481 183.849,-40.748 173.849,-37.2481 173.849,-44.2481"/>
</g>
<!-- S&#45;&gt;USER -->
<g id="edge2" class="edge">
<title>S&#45;&gt;USER</title>
<path fill="none" stroke="#000000" d="M220.0029,-40.748C238.513,-40.748 268.0676,-40.748 293.2221,-40.748"/>
<polygon fill="#000000" stroke="#000000" points="293.3283,-44.2481 303.3282,-40.748 293.3282,-37.2481 293.3283,-44.2481"/>
<text text-anchor="middle" x="261.6523" y="-43.548" font-family="Times,serif" font-size="14.00" fill="#000000">userchar</text>
</g>
<!-- PARAM&#45;&gt;USER -->
<g id="edge6" class="edge">
<title>PARAM&#45;&gt;USER</title>
<path fill="none" stroke="#000000" d="M462.4529,-27.1791C455.7768,-25.339 448.8439,-23.7434 442.1976,-22.748 421.3571,-19.627 415.5909,-19.4132 394.7835,-22.748 391.3216,-23.3029 387.7817,-24.0434 384.2501,-24.9083"/>
<polygon fill="#000000" stroke="#000000" points="383.102,-21.5941 374.3907,-27.6244 384.9612,-28.3427 383.102,-21.5941"/>
<text text-anchor="middle" x="418.4905" y="-25.548" font-family="Times,serif" font-size="14.00" fill="#000000">userchar</text>
</g>
<!-- PARAM&#45;&gt;PARAM -->
<g id="edge5" class="edge">
<title>PARAM&#45;&gt;PARAM</title>
<path fill="none" stroke="#000000" d="M485.5856,-78.6056C485.8959,-90.3072 491.0159,-99.4961 500.9456,-99.4961 507.7723,-99.4961 512.3256,-95.1529 514.6056,-88.6359"/>
<polygon fill="#000000" stroke="#000000" points="518.0853,-89.0499 516.3056,-78.6056 511.1837,-87.8801 518.0853,-89.0499"/>
<text text-anchor="middle" x="500.9456" y="-102.2961" font-family="Times,serif" font-size="14.00" fill="#000000">userchar</text>
</g>
<!-- userchar -->
<g id="node5" class="node">
<title>userchar</title>
<polygon fill="none" stroke="#000000" points="146.918,-160.748 .0273,-160.748 .0273,-60.748 146.918,-60.748 146.918,-160.748"/>
<text text-anchor="middle" x="73.4727" y="-135.548" font-family="Times,serif" font-size="14.00" fill="#000000">userchar </text>
<text text-anchor="middle" x="73.4727" y="-105.548" font-family="Times,serif" font-size="14.00" fill="#000000">0&#45;9A&#45;Za&#45;z</text>
<text text-anchor="middle" x="73.4727" y="-91.548" font-family="Times,serif" font-size="14.00" fill="#000000">!#$%&amp;&#39;*&#45;./=?^_`{|}~</text>
<text text-anchor="middle" x="73.4727" y="-77.548" font-family="Times,serif" font-size="14.00" fill="#000000">UTF8&#45;char</text>
</g>
</g>
</svg>
