<?xml version="1.0" encoding="UTF-8" standalone="no"?>
<!DOCTYPE svg PUBLIC "-//W3C//DTD SVG 1.1//EN"
 "http://www.w3.org/Graphics/SVG/1.1/DTD/svg11.dtd">
<!-- Generated by graphviz version 2.40.1 (20161225.0304)
 -->
<!-- Title: finite_state_machine Pages: 1 -->
<svg width="760pt" height="339pt"
 viewBox="0.00 0.00 760.20 338.58" xmlns="http://www.w3.org/2000/svg" xmlns:xlink="http://www.w3.org/1999/xlink">
<g id="graph0" class="graph" transform="scale(1 1) rotate(0) translate(4 334.5822)">
<title>finite_state_machine</title>
<polygon fill="#ffffff" stroke="transparent" points="-4,4 -4,-334.5822 756.2021,-334.5822 756.2021,4 -4,4"/>
<text text-anchor="middle" x="376.101" y="-315.3822" font-family="Times,serif" font-size="14.00" fill="#000000">DoNAI FSM</text>
<!-- DOMAIN -->
<g id="node1" class="node">
<title>DOMAIN</title>
<ellipse fill="none" stroke="#000000" cx="492.3095" cy="-179.5822" rx="46.4249" ry="46.4249"/>
<ellipse fill="none" stroke="#000000" cx="492.3095" cy="-179.5822" rx="50.4218" ry="50.4218"/>
<text text-anchor="middle" x="492.3095" y="-175.3822" font-family="Times,serif" font-size="14.00" fill="#000000">DOMAIN</text>
</g>
<!-- DOMAIN&#45;&gt;DOMAIN -->
<g id="edge10" class="edge">
<title>DOMAIN&#45;&gt;DOMAIN</title>
<path fill="none" stroke="#000000" d="M474.5249,-226.9366C475.6938,-238.9924 481.622,-248.0431 492.3095,-248.0431 499.8242,-248.0431 504.9859,-243.5685 507.7947,-236.721"/>
<polygon fill="#000000" stroke="#000000" points="511.2135,-237.4721 510.0942,-226.9366 504.3991,-235.8706 511.2135,-237.4721"/>
<text text-anchor="middle" x="492.3095" y="-250.8431" font-family="Times,serif" font-size="14.00" fill="#000000">basechar</text>
</g>
<!-- NEWLABEL -->
<g id="node5" class="node">
<title>NEWLABEL</title>
<ellipse fill="none" stroke="#000000" cx="693.4692" cy="-178.5822" rx="58.9668" ry="58.9668"/>
<text text-anchor="middle" x="693.4692" y="-174.3822" font-family="Times,serif" font-size="14.00" fill="#000000">NEWLABEL</text>
</g>
<!-- DOMAIN&#45;&gt;NEWLABEL -->
<g id="edge8" class="edge">
<title>DOMAIN&#45;&gt;NEWLABEL</title>
<path fill="none" stroke="#000000" d="M542.8605,-179.7314C565.4627,-179.7597 592.4347,-179.7405 616.7362,-179.5822 619.2425,-179.5658 621.7949,-179.5465 624.3729,-179.5247"/>
<polygon fill="#000000" stroke="#000000" points="624.4349,-183.0244 634.4012,-179.4295 624.3684,-176.0247 624.4349,-183.0244"/>
<text text-anchor="middle" x="588.7533" y="-182.3822" font-family="Times,serif" font-size="14.00" fill="#000000">.</text>
</g>
<!-- qi -->
<g id="node2" class="node">
<title>qi</title>
<ellipse fill="#000000" stroke="#000000" cx="138.4414" cy="-168.5822" rx="1.8" ry="1.8"/>
</g>
<!-- S -->
<g id="node3" class="node">
<title>S</title>
<ellipse fill="none" stroke="#000000" cx="331.8828" cy="-168.5822" rx="18" ry="18"/>
<text text-anchor="middle" x="331.8828" y="-164.3822" font-family="Times,serif" font-size="14.00" fill="#000000">S</text>
</g>
<!-- qi&#45;&gt;S -->
<g id="edge1" class="edge">
<title>qi&#45;&gt;S</title>
<path fill="none" stroke="#000000" d="M140.6138,-168.5822C156.3969,-168.5822 254.2305,-168.5822 303.5381,-168.5822"/>
<polygon fill="#000000" stroke="#000000" points="303.8364,-172.0823 313.8363,-168.5822 303.8363,-165.0823 303.8364,-172.0823"/>
</g>
<!-- LOCAL -->
<g id="node4" class="node">
<title>LOCAL</title>
<ellipse fill="none" stroke="#000000" cx="492.3095" cy="-39.5822" rx="39.6645" ry="39.6645"/>
<text text-anchor="middle" x="492.3095" y="-35.3822" font-family="Times,serif" font-size="14.00" fill="#000000">LOCAL</text>
</g>
<!-- S&#45;&gt;LOCAL -->
<g id="edge2" class="edge">
<title>S&#45;&gt;LOCAL</title>
<path fill="none" stroke="#000000" d="M346.1196,-157.1343C369.9023,-138.0105 418.5123,-98.9229 453.1458,-71.0739"/>
<polygon fill="#000000" stroke="#000000" points="455.5861,-73.6029 461.1859,-64.6088 451.1996,-68.1477 455.5861,-73.6029"/>
<text text-anchor="middle" x="395.8657" y="-139.3822" font-family="Times,serif" font-size="14.00" fill="#000000">basechar .</text>
</g>
<!-- S&#45;&gt;NEWLABEL -->
<g id="edge3" class="edge">
<title>S&#45;&gt;NEWLABEL</title>
<path fill="none" stroke="#000000" d="M342.2182,-183.7071C359.5462,-207.5542 397.0039,-252.9861 441.8486,-270.5822 509.5239,-297.1364 588.3565,-256.9716 639.4956,-221.6589"/>
<polygon fill="#000000" stroke="#000000" points="641.6194,-224.444 647.7722,-215.8188 637.5836,-218.7245 641.6194,-224.444"/>
<text text-anchor="middle" x="492.3095" y="-281.3822" font-family="Times,serif" font-size="14.00" fill="#000000">@</text>
</g>
<!-- LOCAL&#45;&gt;LOCAL -->
<g id="edge4" class="edge">
<title>LOCAL&#45;&gt;LOCAL</title>
<path fill="none" stroke="#000000" d="M474.3139,-75.007C474.1235,-87.265 480.122,-97.1643 492.3095,-97.1643 500.8789,-97.1643 506.3885,-92.2703 508.8383,-85.1033"/>
<polygon fill="#000000" stroke="#000000" points="512.331,-85.4063 510.3051,-75.007 505.4037,-84.3998 512.331,-85.4063"/>
<text text-anchor="middle" x="492.3095" y="-99.9643" font-family="Times,serif" font-size="14.00" fill="#000000">basechar .</text>
</g>
<!-- LOCAL&#45;&gt;NEWLABEL -->
<g id="edge7" class="edge">
<title>LOCAL&#45;&gt;NEWLABEL</title>
<path fill="none" stroke="#000000" d="M525.077,-62.2243C555.1726,-83.0202 600.4305,-114.2931 636.4501,-139.1823"/>
<polygon fill="#000000" stroke="#000000" points="634.7056,-142.2312 644.9223,-145.0366 638.685,-136.4723 634.7056,-142.2312"/>
<text text-anchor="middle" x="588.7533" y="-123.3822" font-family="Times,serif" font-size="14.00" fill="#000000">@</text>
</g>
<!-- PARAM -->
<g id="node6" class="node">
<title>PARAM</title>
<ellipse fill="none" stroke="#000000" cx="693.4692" cy="-54.5822" rx="40.9976" ry="40.9976"/>
<text text-anchor="middle" x="693.4692" y="-50.3822" font-family="Times,serif" font-size="14.00" fill="#000000">PARAM</text>
</g>
<!-- LOCAL&#45;&gt;PARAM -->
<g id="edge5" class="edge">
<title>LOCAL&#45;&gt;PARAM</title>
<path fill="none" stroke="#000000" d="M531.731,-35.5343C541.2295,-34.7231 551.3538,-33.994 560.7704,-33.5822 585.6204,-32.4953 592.0841,-30.2697 616.7362,-33.5822 625.884,-34.8113 635.4848,-36.8298 644.6788,-39.1418"/>
<polygon fill="#000000" stroke="#000000" points="643.891,-42.5539 654.4547,-41.7422 645.6905,-35.7891 643.891,-42.5539"/>
<text text-anchor="middle" x="588.7533" y="-36.3822" font-family="Times,serif" font-size="14.00" fill="#000000">+</text>
</g>
<!-- NEWLABEL&#45;&gt;DOMAIN -->
<g id="edge9" class="edge">
<title>NEWLABEL&#45;&gt;DOMAIN</title>
<path fill="none" stroke="#000000" d="M636.2928,-164.4859C629.7317,-163.2944 623.1112,-162.2799 616.7362,-161.5822 592.0102,-158.876 585.4389,-158.3934 560.7704,-161.5822 557.5406,-161.9997 554.2458,-162.5236 550.9342,-163.1275"/>
<polygon fill="#000000" stroke="#000000" points="550.0965,-159.7262 540.9968,-165.1524 551.4943,-166.5852 550.0965,-159.7262"/>
<text text-anchor="middle" x="588.7533" y="-164.3822" font-family="Times,serif" font-size="14.00" fill="#000000">basechar</text>
</g>
<!-- PARAM&#45;&gt;LOCAL -->
<g id="edge6" class="edge">
<title>PARAM&#45;&gt;LOCAL</title>
<path fill="none" stroke="#000000" d="M652.4745,-53.0935C626.2272,-51.9739 591.459,-50.182 560.7704,-47.5822 554.5887,-47.0585 548.103,-46.4188 541.6901,-45.7316"/>
<polygon fill="#000000" stroke="#000000" points="542.0523,-42.2504 531.7265,-44.6224 541.2778,-49.2074 542.0523,-42.2504"/>
<text text-anchor="middle" x="588.7533" y="-54.3822" font-family="Times,serif" font-size="14.00" fill="#000000">basechar .</text>
</g>
<!-- basechar -->
<g id="node7" class="node">
<title>basechar</title>
<polygon fill="none" stroke="#000000" points="276.8242,-258.5822 .0586,-258.5822 .0586,-188.5822 276.8242,-188.5822 276.8242,-258.5822"/>
<text text-anchor="middle" x="138.4414" y="-233.3822" font-family="Times,serif" font-size="14.00" fill="#000000">basechar &#45; visible characters</text>
<text text-anchor="middle" x="138.4414" y="-219.3822" font-family="Times,serif" font-size="14.00" fill="#000000">except SPACE, DOT, PLUS, AT </text>
<text text-anchor="middle" x="138.4414" y="-205.3822" font-family="Times,serif" font-size="14.00" fill="#000000">%x21&#45;2A / %x2C&#45;2D / %x2F&#45;3F / %x41&#45;7E</text>
</g>
</g>
</svg>
