<?xml version="1.0" encoding="UTF-8" standalone="no"?>
<!DOCTYPE svg PUBLIC "-//W3C//DTD SVG 1.1//EN"
 "http://www.w3.org/Graphics/SVG/1.1/DTD/svg11.dtd">
<!-- Generated by graphviz version 2.40.1 (20161225.0304)
 -->
<!-- Title: finite_state_machine Pages: 1 -->
<svg width="1061pt" height="392pt"
 viewBox="0.00 0.00 1060.73 392.46" xmlns="http://www.w3.org/2000/svg" xmlns:xlink="http://www.w3.org/1999/xlink">
<g id="graph0" class="graph" transform="scale(1 1) rotate(0) translate(4 388.4609)">
<title>finite_state_machine</title>
<polygon fill="#ffffff" stroke="transparent" points="-4,4 -4,-388.4609 1056.735,-388.4609 1056.735,4 -4,4"/>
<text text-anchor="middle" x="526.3675" y="-369.2609" font-family="Times,serif" font-size="14.00" fill="#000000">DoNAI FSM</text>
<!-- DOMAIN -->
<g id="node1" class="node">
<title>DOMAIN</title>
<ellipse fill="none" stroke="#000000" cx="799.8424" cy="-264" rx="46.4249" ry="46.4249"/>
<ellipse fill="none" stroke="#000000" cx="799.8424" cy="-264" rx="50.4218" ry="50.4218"/>
<text text-anchor="middle" x="799.8424" y="-259.8" font-family="Times,serif" font-size="14.00" fill="#000000">DOMAIN</text>
</g>
<!-- DOMAIN&#45;&gt;DOMAIN -->
<g id="edge14" class="edge">
<title>DOMAIN&#45;&gt;DOMAIN</title>
<path fill="none" stroke="#000000" d="M782.8293,-311.671C784.019,-323.5683 789.6901,-332.4609 799.8424,-332.4609 806.8222,-332.4609 811.6838,-328.2578 814.4273,-321.7647"/>
<polygon fill="#000000" stroke="#000000" points="817.9194,-322.2123 816.8555,-311.671 811.1136,-320.5749 817.9194,-322.2123"/>
<text text-anchor="middle" x="799.8424" y="-335.2609" font-family="Times,serif" font-size="14.00" fill="#000000">basechar</text>
</g>
<!-- NEWLABEL -->
<g id="node5" class="node">
<title>NEWLABEL</title>
<ellipse fill="none" stroke="#000000" cx="994.0021" cy="-182" rx="58.9668" ry="58.9668"/>
<text text-anchor="middle" x="994.0021" y="-177.8" font-family="Times,serif" font-size="14.00" fill="#000000">NEWLABEL</text>
</g>
<!-- DOMAIN&#45;&gt;NEWLABEL -->
<g id="edge12" class="edge">
<title>DOMAIN&#45;&gt;NEWLABEL</title>
<path fill="none" stroke="#000000" d="M843.029,-237.7773C851.2782,-233.2352 859.9489,-228.7681 868.3033,-225 887.1886,-216.4821 908.2963,-208.6478 927.7419,-202.066"/>
<polygon fill="#000000" stroke="#000000" points="929.0534,-205.3183 937.4368,-198.84 926.8432,-198.6764 929.0534,-205.3183"/>
<text text-anchor="middle" x="892.7862" y="-227.8" font-family="Times,serif" font-size="14.00" fill="#000000">.</text>
</g>
<!-- qi -->
<g id="node2" class="node">
<title>qi</title>
<ellipse fill="#000000" stroke="#000000" cx="138.4414" cy="-46" rx="1.8" ry="1.8"/>
</g>
<!-- S -->
<g id="node3" class="node">
<title>S</title>
<ellipse fill="none" stroke="#000000" cx="331.8828" cy="-46" rx="18" ry="18"/>
<text text-anchor="middle" x="331.8828" y="-41.8" font-family="Times,serif" font-size="14.00" fill="#000000">S</text>
</g>
<!-- qi&#45;&gt;S -->
<g id="edge1" class="edge">
<title>qi&#45;&gt;S</title>
<path fill="none" stroke="#000000" d="M140.6138,-46C156.3969,-46 254.2305,-46 303.5381,-46"/>
<polygon fill="#000000" stroke="#000000" points="303.8364,-49.5001 313.8363,-46 303.8363,-42.5001 303.8364,-49.5001"/>
</g>
<!-- LOCAL -->
<g id="node4" class="node">
<title>LOCAL</title>
<ellipse fill="none" stroke="#000000" cx="617.8335" cy="-108" rx="39.6645" ry="39.6645"/>
<text text-anchor="middle" x="617.8335" y="-103.8" font-family="Times,serif" font-size="14.00" fill="#000000">LOCAL</text>
</g>
<!-- S&#45;&gt;LOCAL -->
<g id="edge2" class="edge">
<title>S&#45;&gt;LOCAL</title>
<path fill="none" stroke="#000000" d="M350.2129,-45.1697C379.4031,-44.2691 438.0762,-44.1885 486.2856,-55 516.2173,-61.7125 548.1712,-74.4439 573.0902,-85.7461"/>
<polygon fill="#000000" stroke="#000000" points="571.7315,-88.9739 582.2773,-89.9923 574.6684,-82.6197 571.7315,-88.9739"/>
<text text-anchor="middle" x="440.0319" y="-57.8" font-family="Times,serif" font-size="14.00" fill="#000000">basechar .</text>
</g>
<!-- S&#45;&gt;NEWLABEL -->
<g id="edge3" class="edge">
<title>S&#45;&gt;NEWLABEL</title>
<path fill="none" stroke="#000000" d="M346.4456,-35.3311C366.4705,-21.7422 404.1214,0 440.0319,0 440.0319,0 440.0319,0 799.8424,0 872.0557,0 928.4658,-67.8427 961.4513,-120.6864"/>
<polygon fill="#000000" stroke="#000000" points="958.5455,-122.6437 966.7412,-129.3581 964.5214,-118.9984 958.5455,-122.6437"/>
<text text-anchor="middle" x="617.8335" y="-2.8" font-family="Times,serif" font-size="14.00" fill="#000000">@</text>
</g>
<!-- SERVICE -->
<g id="node6" class="node">
<title>SERVICE</title>
<ellipse fill="none" stroke="#000000" cx="440.0319" cy="-124" rx="46.0086" ry="46.0086"/>
<text text-anchor="middle" x="440.0319" y="-119.8" font-family="Times,serif" font-size="14.00" fill="#000000">SERVICE</text>
</g>
<!-- S&#45;&gt;SERVICE -->
<g id="edge4" class="edge">
<title>S&#45;&gt;SERVICE</title>
<path fill="none" stroke="#000000" d="M346.9205,-56.8456C359.1905,-65.695 377.2023,-78.6856 394.1224,-90.8888"/>
<polygon fill="#000000" stroke="#000000" points="392.153,-93.7838 402.311,-96.7947 396.2477,-88.1063 392.153,-93.7838"/>
<text text-anchor="middle" x="371.8306" y="-78.8" font-family="Times,serif" font-size="14.00" fill="#000000">+</text>
</g>
<!-- LOCAL&#45;&gt;LOCAL -->
<g id="edge5" class="edge">
<title>LOCAL&#45;&gt;LOCAL</title>
<path fill="none" stroke="#000000" d="M602.0874,-144.5494C602.2489,-156.2827 607.4976,-165.5822 617.8335,-165.5822 624.9395,-165.5822 629.641,-161.1867 631.9379,-154.6268"/>
<polygon fill="#000000" stroke="#000000" points="635.4261,-154.9821 633.5797,-144.5494 628.5172,-153.8564 635.4261,-154.9821"/>
<text text-anchor="middle" x="617.8335" y="-168.3822" font-family="Times,serif" font-size="14.00" fill="#000000">basechar .</text>
</g>
<!-- LOCAL&#45;&gt;NEWLABEL -->
<g id="edge10" class="edge">
<title>LOCAL&#45;&gt;NEWLABEL</title>
<path fill="none" stroke="#000000" d="M654.2851,-123.6205C680.3143,-134.1277 716.4143,-147.4012 749.3815,-155 807.6869,-168.4392 875.403,-175.2546 924.7868,-178.6715"/>
<polygon fill="#000000" stroke="#000000" points="924.827,-182.1817 935.0365,-179.3502 925.2896,-175.197 924.827,-182.1817"/>
<text text-anchor="middle" x="799.8424" y="-174.8" font-family="Times,serif" font-size="14.00" fill="#000000">@</text>
</g>
<!-- OPTION -->
<g id="node7" class="node">
<title>OPTION</title>
<ellipse fill="none" stroke="#000000" cx="799.8424" cy="-71" rx="42.5629" ry="42.5629"/>
<text text-anchor="middle" x="799.8424" y="-66.8" font-family="Times,serif" font-size="14.00" fill="#000000">OPTION</text>
</g>
<!-- LOCAL&#45;&gt;OPTION -->
<g id="edge6" class="edge">
<title>LOCAL&#45;&gt;OPTION</title>
<path fill="none" stroke="#000000" d="M649.5248,-83.9038C657.5664,-79.0295 666.4732,-74.6043 675.4157,-72 698.4381,-65.2953 724.8884,-64.2168 747.4658,-65.1461"/>
<polygon fill="#000000" stroke="#000000" points="747.3629,-68.6456 757.5403,-65.7013 747.7481,-61.6562 747.3629,-68.6456"/>
<text text-anchor="middle" x="703.3986" y="-74.8" font-family="Times,serif" font-size="14.00" fill="#000000">+</text>
</g>
<!-- NEWLABEL&#45;&gt;DOMAIN -->
<g id="edge13" class="edge">
<title>NEWLABEL&#45;&gt;DOMAIN</title>
<path fill="none" stroke="#000000" d="M948.9395,-220.3858C938.9914,-227.4197 928.1579,-234.0807 917.2691,-239 899.4773,-247.038 878.985,-252.5408 860.1501,-256.2876"/>
<polygon fill="#000000" stroke="#000000" points="859.372,-252.8722 850.1808,-258.1421 860.6523,-259.7541 859.372,-252.8722"/>
<text text-anchor="middle" x="892.7862" y="-256.8" font-family="Times,serif" font-size="14.00" fill="#000000">basechar</text>
</g>
<!-- SERVICE&#45;&gt;LOCAL -->
<g id="edge11" class="edge">
<title>SERVICE&#45;&gt;LOCAL</title>
<path fill="none" stroke="#000000" d="M486.2831,-119.838C511.3334,-117.5837 542.3046,-114.7967 567.902,-112.4932"/>
<polygon fill="#000000" stroke="#000000" points="568.5006,-115.9536 578.1467,-111.5713 567.8732,-108.9818 568.5006,-115.9536"/>
<text text-anchor="middle" x="532.2685" y="-120.8" font-family="Times,serif" font-size="14.00" fill="#000000">basechar .</text>
</g>
<!-- OPTION&#45;&gt;LOCAL -->
<g id="edge9" class="edge">
<title>OPTION&#45;&gt;LOCAL</title>
<path fill="none" stroke="#000000" d="M758.2427,-80.2841C749.3851,-82.2134 740.0805,-84.2046 731.3815,-86 710.1845,-90.375 686.7073,-94.966 666.6279,-98.8156"/>
<polygon fill="#000000" stroke="#000000" points="665.9349,-95.3846 656.7691,-100.6986 667.2482,-102.2603 665.9349,-95.3846"/>
<text text-anchor="middle" x="703.3986" y="-100.8" font-family="Times,serif" font-size="14.00" fill="#000000">basechar .</text>
</g>
<!-- OPTION&#45;&gt;NEWLABEL -->
<g id="edge8" class="edge">
<title>OPTION&#45;&gt;NEWLABEL</title>
<path fill="none" stroke="#000000" d="M836.8194,-92.1395C864.2753,-107.8359 902.3055,-129.5776 934.0806,-147.7432"/>
<polygon fill="#000000" stroke="#000000" points="932.4444,-150.8394 942.863,-152.7641 935.9186,-144.7624 932.4444,-150.8394"/>
<text text-anchor="middle" x="892.7862" y="-139.8" font-family="Times,serif" font-size="14.00" fill="#000000">@</text>
</g>
<!-- OPTION&#45;&gt;OPTION -->
<g id="edge7" class="edge">
<title>OPTION&#45;&gt;OPTION</title>
<path fill="none" stroke="#000000" d="M782.6093,-110.0068C782.9574,-122.0635 788.7018,-131.5314 799.8424,-131.5314 807.6757,-131.5314 812.8411,-126.8506 815.3387,-119.8803"/>
<polygon fill="#000000" stroke="#000000" points="818.7901,-120.462 817.0756,-110.0068 811.8959,-119.2492 818.7901,-120.462"/>
<text text-anchor="middle" x="799.8424" y="-134.3314" font-family="Times,serif" font-size="14.00" fill="#000000">+</text>
</g>
<!-- basechar -->
<g id="node8" class="node">
<title>basechar</title>
<polygon fill="none" stroke="#000000" points="276.8242,-136 .0586,-136 .0586,-66 276.8242,-66 276.8242,-136"/>
<text text-anchor="middle" x="138.4414" y="-110.8" font-family="Times,serif" font-size="14.00" fill="#000000">basechar &#45; visible characters</text>
<text text-anchor="middle" x="138.4414" y="-96.8" font-family="Times,serif" font-size="14.00" fill="#000000">except SPACE, DOT, PLUS, AT </text>
<text text-anchor="middle" x="138.4414" y="-82.8" font-family="Times,serif" font-size="14.00" fill="#000000">%x21&#45;2A / %x2C&#45;2D / %x2F&#45;3F / %x41&#45;7E</text>
</g>
</g>
</svg>
