<?xml version="1.0" encoding="UTF-8" standalone="no"?>
<!DOCTYPE svg PUBLIC "-//W3C//DTD SVG 1.1//EN"
 "http://www.w3.org/Graphics/SVG/1.1/DTD/svg11.dtd">
<!-- Generated by graphviz version 2.40.1 (20161225.0304)
 -->
<!-- Title: finite_state_machine Pages: 1 -->
<svg width="585pt" height="207pt"
 viewBox="0.00 0.00 585.47 206.75" xmlns="http://www.w3.org/2000/svg" xmlns:xlink="http://www.w3.org/1999/xlink">
<g id="graph0" class="graph" transform="scale(1 1) rotate(0) translate(4 202.748)">
<title>finite_state_machine</title>
<polygon fill="#ffffff" stroke="transparent" points="-4,4 -4,-202.748 581.4661,-202.748 581.4661,4 -4,4"/>
<text text-anchor="middle" x="288.7331" y="-183.548" font-family="Times,serif" font-size="14.00" fill="#000000">DoNAI user FSM</text>
<!-- USER -->
<g id="node1" class="node">
<title>USER</title>
<ellipse fill="none" stroke="#000000" cx="375.8439" cy="-40.748" rx="32.9021" ry="32.9021"/>
<ellipse fill="none" stroke="#000000" cx="375.8439" cy="-40.748" rx="36.9254" ry="36.9254"/>
<text text-anchor="middle" x="375.8439" y="-36.548" font-family="Times,serif" font-size="14.00" fill="#000000">USER</text>
</g>
<!-- USER&#45;&gt;USER -->
<g id="edge3" class="edge">
<title>USER&#45;&gt;USER</title>
<path fill="none" stroke="#000000" d="M361.2198,-74.6755C361.143,-86.1984 366.0177,-95.4601 375.8439,-95.4601 382.5994,-95.4601 387.0145,-91.0825 389.0894,-84.6021"/>
<polygon fill="#000000" stroke="#000000" points="392.559,-85.062 390.468,-74.6755 385.6256,-84.0989 392.559,-85.062"/>
<text text-anchor="middle" x="375.8439" y="-98.2601" font-family="Times,serif" font-size="14.00" fill="#000000">userchar</text>
</g>
<!-- PARAM -->
<g id="node4" class="node">
<title>PARAM</title>
<ellipse fill="none" stroke="#000000" cx="536.7181" cy="-40.748" rx="40.9976" ry="40.9976"/>
<text text-anchor="middle" x="536.7181" y="-36.548" font-family="Times,serif" font-size="14.00" fill="#000000">PARAM</text>
</g>
<!-- USER&#45;&gt;PARAM -->
<g id="edge4" class="edge">
<title>USER&#45;&gt;PARAM</title>
<path fill="none" stroke="#000000" d="M412.7517,-40.748C434.3271,-40.748 461.8817,-40.748 485.531,-40.748"/>
<polygon fill="#000000" stroke="#000000" points="485.7415,-44.2481 495.7415,-40.748 485.7415,-37.2481 485.7415,-44.2481"/>
<text text-anchor="middle" x="454.263" y="-43.548" font-family="Times,serif" font-size="14.00" fill="#000000">+</text>
</g>
<!-- qi -->
<g id="node2" class="node">
<title>qi</title>
<ellipse fill="#000000" stroke="#000000" cx="91.3589" cy="-40.748" rx="1.8" ry="1.8"/>
</g>
<!-- S -->
<g id="node3" class="node">
<title>S</title>
<ellipse fill="none" stroke="#000000" cx="237.7178" cy="-40.748" rx="18" ry="18"/>
<text text-anchor="middle" x="237.7178" y="-36.548" font-family="Times,serif" font-size="14.00" fill="#000000">S</text>
</g>
<!-- qi&#45;&gt;S -->
<g id="edge1" class="edge">
<title>qi&#45;&gt;S</title>
<path fill="none" stroke="#000000" d="M93.4279,-40.748C105.8455,-40.748 171.2345,-40.748 209.5915,-40.748"/>
<polygon fill="#000000" stroke="#000000" points="209.6268,-44.2481 219.6268,-40.748 209.6268,-37.2481 209.6268,-44.2481"/>
</g>
<!-- S&#45;&gt;USER -->
<g id="edge2" class="edge">
<title>S&#45;&gt;USER</title>
<path fill="none" stroke="#000000" d="M255.7754,-40.748C274.2855,-40.748 303.8401,-40.748 328.9945,-40.748"/>
<polygon fill="#000000" stroke="#000000" points="329.1007,-44.2481 339.1007,-40.748 329.1007,-37.2481 329.1007,-44.2481"/>
<text text-anchor="middle" x="297.4248" y="-43.548" font-family="Times,serif" font-size="14.00" fill="#000000">userchar</text>
</g>
<!-- PARAM&#45;&gt;USER -->
<g id="edge6" class="edge">
<title>PARAM&#45;&gt;USER</title>
<path fill="none" stroke="#000000" d="M498.2253,-27.1791C491.5493,-25.339 484.6163,-23.7434 477.97,-22.748 457.1295,-19.627 451.3633,-19.4132 430.556,-22.748 427.0941,-23.3029 423.5542,-24.0434 420.0225,-24.9083"/>
<polygon fill="#000000" stroke="#000000" points="418.8745,-21.5941 410.1632,-27.6244 420.7337,-28.3427 418.8745,-21.5941"/>
<text text-anchor="middle" x="454.263" y="-25.548" font-family="Times,serif" font-size="14.00" fill="#000000">userchar</text>
</g>
<!-- PARAM&#45;&gt;PARAM -->
<g id="edge5" class="edge">
<title>PARAM&#45;&gt;PARAM</title>
<path fill="none" stroke="#000000" d="M521.3581,-78.6056C521.6684,-90.3072 526.7884,-99.4961 536.7181,-99.4961 543.5447,-99.4961 548.0981,-95.1529 550.3781,-88.6359"/>
<polygon fill="#000000" stroke="#000000" points="553.8577,-89.0499 552.0781,-78.6056 546.9562,-87.8801 553.8577,-89.0499"/>
<text text-anchor="middle" x="536.7181" y="-102.2961" font-family="Times,serif" font-size="14.00" fill="#000000">userchar</text>
</g>
<!-- userchar -->
<g id="node5" class="node">
<title>userchar</title>
<polygon fill="none" stroke="#000000" points="182.5769,-160.748 .1409,-160.748 .1409,-60.748 182.5769,-60.748 182.5769,-160.748"/>
<text text-anchor="middle" x="91.3589" y="-135.548" font-family="Times,serif" font-size="14.00" fill="#000000">userchar</text>
<text text-anchor="middle" x="91.3589" y="-121.548" font-family="Times,serif" font-size="14.00" fill="#000000">visible (printing) characters</text>
<text text-anchor="middle" x="91.3589" y="-107.548" font-family="Times,serif" font-size="14.00" fill="#000000">except space and plus</text>
<text text-anchor="middle" x="91.3589" y="-77.548" font-family="Times,serif" font-size="14.00" fill="#000000">%x21&#45;2A / %x2C&#45;7E</text>
</g>
</g>
</svg>
