<?xml version="1.0" encoding="UTF-8" standalone="no"?>
<!DOCTYPE svg PUBLIC "-//W3C//DTD SVG 1.1//EN"
 "http://www.w3.org/Graphics/SVG/1.1/DTD/svg11.dtd">
<!-- Generated by graphviz version 2.40.1 (20161225.0304)
 -->
<!-- Title: finite_state_machine Pages: 1 -->
<svg width="901pt" height="230pt"
 viewBox="0.00 0.00 900.65 229.58" xmlns="http://www.w3.org/2000/svg" xmlns:xlink="http://www.w3.org/1999/xlink">
<g id="graph0" class="graph" transform="scale(1 1) rotate(0) translate(4 225.5822)">
<title>finite_state_machine</title>
<polygon fill="#ffffff" stroke="transparent" points="-4,4 -4,-225.5822 896.6545,-225.5822 896.6545,4 -4,4"/>
<text text-anchor="middle" x="446.3273" y="-206.3822" font-family="Times,serif" font-size="14.00" fill="#000000">DoNAI Selector FSM</text>
<!-- DOMAIN -->
<g id="node1" class="node">
<title>DOMAIN</title>
<ellipse fill="none" stroke="#000000" cx="631.7619" cy="-93.5822" rx="46.4249" ry="46.4249"/>
<ellipse fill="none" stroke="#000000" cx="631.7619" cy="-93.5822" rx="50.4218" ry="50.4218"/>
<text text-anchor="middle" x="631.7619" y="-89.3822" font-family="Times,serif" font-size="14.00" fill="#000000">DOMAIN</text>
</g>
<!-- DOMAIN&#45;&gt;DOMAIN -->
<g id="edge8" class="edge">
<title>DOMAIN&#45;&gt;DOMAIN</title>
<path fill="none" stroke="#000000" d="M618.1613,-142.1943C619.2792,-153.6164 623.8127,-162.0431 631.7619,-162.0431 637.1028,-162.0431 640.9018,-158.2391 643.1589,-152.2785"/>
<polygon fill="#000000" stroke="#000000" points="646.6469,-152.711 645.3625,-142.1943 639.8083,-151.2165 646.6469,-152.711"/>
<text text-anchor="middle" x="631.7619" y="-164.8431" font-family="Times,serif" font-size="14.00" fill="#000000">basechar</text>
</g>
<!-- NEWLABEL -->
<g id="node2" class="node">
<title>NEWLABEL</title>
<ellipse fill="none" stroke="#000000" cx="829.9216" cy="-93.5822" rx="58.9518" ry="58.9518"/>
<ellipse fill="none" stroke="#000000" cx="829.9216" cy="-93.5822" rx="62.9667" ry="62.9667"/>
<text text-anchor="middle" x="829.9216" y="-89.3822" font-family="Times,serif" font-size="14.00" fill="#000000">NEWLABEL</text>
</g>
<!-- DOMAIN&#45;&gt;NEWLABEL -->
<g id="edge6" class="edge">
<title>DOMAIN&#45;&gt;NEWLABEL</title>
<path fill="none" stroke="#000000" d="M682.2787,-93.5822C704.9546,-93.5822 732.1393,-93.5822 756.967,-93.5822"/>
<polygon fill="#000000" stroke="#000000" points="757.077,-97.0823 767.077,-93.5822 757.0769,-90.0823 757.077,-97.0823"/>
<text text-anchor="middle" x="724.7057" y="-96.3822" font-family="Times,serif" font-size="14.00" fill="#000000">.</text>
</g>
<!-- NEWLABEL&#45;&gt;DOMAIN -->
<g id="edge7" class="edge">
<title>NEWLABEL&#45;&gt;DOMAIN</title>
<path fill="none" stroke="#000000" d="M768.8861,-78.4968C762.2716,-77.3044 755.6119,-76.2895 749.1886,-75.5822 727.5568,-73.1999 721.8058,-72.7922 700.2228,-75.5822 696.993,-75.9997 693.6982,-76.5236 690.3866,-77.1275"/>
<polygon fill="#000000" stroke="#000000" points="689.549,-73.7262 680.4492,-79.1524 690.9467,-80.5852 689.549,-73.7262"/>
<text text-anchor="middle" x="724.7057" y="-78.3822" font-family="Times,serif" font-size="14.00" fill="#000000">basechar</text>
</g>
<!-- qi -->
<g id="node3" class="node">
<title>qi</title>
<ellipse fill="#000000" stroke="#000000" cx="138.4414" cy="-93.5822" rx="1.8" ry="1.8"/>
</g>
<!-- S -->
<g id="node4" class="node">
<title>S</title>
<ellipse fill="none" stroke="#000000" cx="331.8828" cy="-93.5822" rx="18" ry="18"/>
<text text-anchor="middle" x="331.8828" y="-89.3822" font-family="Times,serif" font-size="14.00" fill="#000000">S</text>
</g>
<!-- qi&#45;&gt;S -->
<g id="edge1" class="edge">
<title>qi&#45;&gt;S</title>
<path fill="none" stroke="#000000" d="M140.6138,-93.5822C156.3969,-93.5822 254.2305,-93.5822 303.5381,-93.5822"/>
<polygon fill="#000000" stroke="#000000" points="303.8364,-97.0823 313.8363,-93.5822 303.8363,-90.0823 303.8364,-97.0823"/>
</g>
<!-- S&#45;&gt;DOMAIN -->
<g id="edge3" class="edge">
<title>S&#45;&gt;DOMAIN</title>
<path fill="none" stroke="#000000" d="M349.3668,-98.7415C372.7715,-105.3539 415.6968,-116.4559 453.2441,-120.5822 488.2177,-124.4256 497.5335,-125.2365 532.4085,-120.5822 546.0951,-118.7556 560.5686,-115.5728 574.1077,-112.0186"/>
<polygon fill="#000000" stroke="#000000" points="575.0513,-115.3892 583.7766,-109.3791 573.2078,-108.6363 575.0513,-115.3892"/>
<text text-anchor="middle" x="492.8263" y="-126.3822" font-family="Times,serif" font-size="14.00" fill="#000000">@</text>
</g>
<!-- LOCAL -->
<g id="node5" class="node">
<title>LOCAL</title>
<ellipse fill="none" stroke="#000000" cx="492.8263" cy="-39.5822" rx="39.6645" ry="39.6645"/>
<text text-anchor="middle" x="492.8263" y="-35.3822" font-family="Times,serif" font-size="14.00" fill="#000000">LOCAL</text>
</g>
<!-- S&#45;&gt;LOCAL -->
<g id="edge2" class="edge">
<title>S&#45;&gt;LOCAL</title>
<path fill="none" stroke="#000000" d="M349.1066,-87.8032C371.8883,-80.1595 412.94,-66.3857 445.3529,-55.5105"/>
<polygon fill="#000000" stroke="#000000" points="446.7377,-58.7377 455.1049,-52.2385 444.511,-52.1013 446.7377,-58.7377"/>
<text text-anchor="middle" x="401.5635" y="-83.3822" font-family="Times,serif" font-size="14.00" fill="#000000">basechar . +</text>
</g>
<!-- LOCAL&#45;&gt;DOMAIN -->
<g id="edge5" class="edge">
<title>LOCAL&#45;&gt;DOMAIN</title>
<path fill="none" stroke="#000000" d="M530.0585,-54.0532C543.9705,-59.4603 560.0987,-65.7289 575.3551,-71.6586"/>
<polygon fill="#000000" stroke="#000000" points="574.1254,-74.9356 584.7141,-75.2961 576.6613,-68.4111 574.1254,-74.9356"/>
<text text-anchor="middle" x="556.8548" y="-69.3822" font-family="Times,serif" font-size="14.00" fill="#000000">@</text>
</g>
<!-- LOCAL&#45;&gt;LOCAL -->
<g id="edge4" class="edge">
<title>LOCAL&#45;&gt;LOCAL</title>
<path fill="none" stroke="#000000" d="M480.8622,-77.5164C481.2758,-88.5883 485.2638,-97.1643 492.8263,-97.1643 497.9074,-97.1643 501.3748,-93.293 503.2288,-87.3943"/>
<polygon fill="#000000" stroke="#000000" points="506.6858,-87.9404 504.7904,-77.5164 499.7717,-86.8472 506.6858,-87.9404"/>
<text text-anchor="middle" x="492.8263" y="-99.9643" font-family="Times,serif" font-size="14.00" fill="#000000">basechar . +</text>
</g>
<!-- basechar -->
<g id="node6" class="node">
<title>basechar</title>
<polygon fill="none" stroke="#000000" points="276.8242,-183.5822 .0586,-183.5822 .0586,-113.5822 276.8242,-113.5822 276.8242,-183.5822"/>
<text text-anchor="middle" x="138.4414" y="-158.3822" font-family="Times,serif" font-size="14.00" fill="#000000">basechar &#45; visible characters</text>
<text text-anchor="middle" x="138.4414" y="-144.3822" font-family="Times,serif" font-size="14.00" fill="#000000">except SPACE, DOT, PLUS, AT </text>
<text text-anchor="middle" x="138.4414" y="-130.3822" font-family="Times,serif" font-size="14.00" fill="#000000">%x21&#45;2A / %x2C&#45;2D / %x2F&#45;3F / %x41&#45;7E</text>
</g>
</g>
</svg>
