<?xml version="1.0" encoding="UTF-8" standalone="no"?>
<!DOCTYPE svg PUBLIC "-//W3C//DTD SVG 1.1//EN"
 "http://www.w3.org/Graphics/SVG/1.1/DTD/svg11.dtd">
<!-- Generated by graphviz version 2.40.1 (20161225.0304)
 -->
<!-- Title: finite_state_machine Pages: 1 -->
<svg width="1537pt" height="734pt"
 viewBox="0.00 0.00 1536.50 733.98" xmlns="http://www.w3.org/2000/svg" xmlns:xlink="http://www.w3.org/1999/xlink">
<g id="graph0" class="graph" transform="scale(1 1) rotate(0) translate(4 729.984)">
<title>finite_state_machine</title>
<polygon fill="#ffffff" stroke="transparent" points="-4,4 -4,-729.984 1532.5021,-729.984 1532.5021,4 -4,4"/>
<text text-anchor="middle" x="764.2511" y="-710.784" font-family="Times,serif" font-size="14.00" fill="#000000">DoNAI selector FSM</text>
<!-- USERDOM -->
<g id="node1" class="node">
<title>USERDOM</title>
<ellipse fill="none" stroke="#000000" cx="372.1031" cy="-368.7502" rx="53.2075" ry="53.2075"/>
<ellipse fill="none" stroke="#000000" cx="372.1031" cy="-368.7502" rx="57.1969" ry="57.1969"/>
<text text-anchor="middle" x="372.1031" y="-364.5502" font-family="Times,serif" font-size="14.00" fill="#000000">USERDOM</text>
</g>
<!-- USERDOM&#45;&gt;USERDOM -->
<g id="edge6" class="edge">
<title>USERDOM&#45;&gt;USERDOM</title>
<path fill="none" stroke="#000000" d="M353.0792,-422.9352C354.7931,-435.1582 361.1344,-444.0985 372.1031,-444.0985 379.8155,-444.0985 385.2402,-439.6785 388.3771,-432.8053"/>
<polygon fill="#000000" stroke="#000000" points="391.8147,-433.5077 391.1271,-422.9352 385.0715,-431.6289 391.8147,-433.5077"/>
<text text-anchor="middle" x="372.1031" y="-446.8985" font-family="Times,serif" font-size="14.00" fill="#000000">0&#45;9A&#45;Za&#45;z</text>
</g>
<!-- REALMHOST -->
<g id="node6" class="node">
<title>REALMHOST</title>
<ellipse fill="none" stroke="#000000" cx="897.684" cy="-548.7502" rx="64.3046" ry="64.3046"/>
<text text-anchor="middle" x="897.684" y="-544.5502" font-family="Times,serif" font-size="14.00" fill="#000000">REALMHOST</text>
</g>
<!-- USERDOM&#45;&gt;REALMHOST -->
<g id="edge5" class="edge">
<title>USERDOM&#45;&gt;REALMHOST</title>
<path fill="none" stroke="#000000" d="M404.0483,-416.5334C431.3322,-452.9333 474.1063,-500.6054 524.5276,-523.7502 620.6744,-567.8842 745.5936,-565.966 823.7124,-558.7386"/>
<polygon fill="#000000" stroke="#000000" points="824.3334,-562.1947 833.9447,-557.7367 823.6511,-555.228 824.3334,-562.1947"/>
<text text-anchor="middle" x="601.9536" y="-562.5502" font-family="Times,serif" font-size="14.00" fill="#000000">@</text>
</g>
<!-- USERNAME -->
<g id="node7" class="node">
<title>USERNAME</title>
<ellipse fill="none" stroke="#000000" cx="601.9536" cy="-58.7502" rx="58.5015" ry="58.5015"/>
<text text-anchor="middle" x="601.9536" y="-54.5502" font-family="Times,serif" font-size="14.00" fill="#000000">USERNAME</text>
</g>
<!-- USERDOM&#45;&gt;USERNAME -->
<g id="edge7" class="edge">
<title>USERDOM&#45;&gt;USERNAME</title>
<path fill="none" stroke="#000000" d="M399.8497,-318.2215C413.3724,-294.7216 430.3774,-266.7316 447.4514,-242.7502 480.8515,-195.8377 523.1615,-146.0106 555.0574,-110.0562"/>
<polygon fill="#000000" stroke="#000000" points="558.068,-111.9385 562.1072,-102.1439 552.8416,-107.2818 558.068,-111.9385"/>
<text text-anchor="middle" x="476.9895" y="-245.5502" font-family="Times,serif" font-size="14.00" fill="#000000">userchar</text>
</g>
<!-- USERDOMDOT -->
<g id="node8" class="node">
<title>USERDOMDOT</title>
<ellipse fill="none" stroke="#000000" cx="601.9536" cy="-238.7502" rx="71.5463" ry="71.5463"/>
<text text-anchor="middle" x="601.9536" y="-234.5502" font-family="Times,serif" font-size="14.00" fill="#000000">USERDOMDOT</text>
</g>
<!-- USERDOM&#45;&gt;USERDOMDOT -->
<g id="edge8" class="edge">
<title>USERDOM&#45;&gt;USERDOMDOT</title>
<path fill="none" stroke="#000000" d="M406.2465,-322.4297C418.0347,-309.0347 432.1599,-295.4332 447.4514,-285.7502 469.722,-271.6478 496.474,-261.5645 521.4116,-254.4503"/>
<polygon fill="#000000" stroke="#000000" points="522.5053,-257.7799 531.2319,-251.7718 520.6633,-251.0266 522.5053,-257.7799"/>
<text text-anchor="middle" x="476.9895" y="-288.5502" font-family="Times,serif" font-size="14.00" fill="#000000">.</text>
</g>
<!-- USERDOMDASH -->
<g id="node9" class="node">
<title>USERDOMDASH</title>
<ellipse fill="none" stroke="#000000" cx="601.9536" cy="-405.7502" rx="77.352" ry="77.352"/>
<text text-anchor="middle" x="601.9536" y="-401.5502" font-family="Times,serif" font-size="14.00" fill="#000000">USERDOMDASH</text>
</g>
<!-- USERDOM&#45;&gt;USERDOMDASH -->
<g id="edge10" class="edge">
<title>USERDOM&#45;&gt;USERDOMDASH</title>
<path fill="none" stroke="#000000" d="M429.4324,-364.7544C453.4368,-364.221 481.5188,-365.0935 506.5276,-369.7502 511.2303,-370.6259 516.0032,-371.7176 520.7791,-372.9701"/>
<polygon fill="#000000" stroke="#000000" points="519.9891,-376.3841 530.5649,-375.749 521.9014,-369.6503 519.9891,-376.3841"/>
<text text-anchor="middle" x="476.9895" y="-372.5502" font-family="Times,serif" font-size="14.00" fill="#000000">&#45;</text>
</g>
<!-- REALMDOT -->
<g id="node2" class="node">
<title>REALMDOT</title>
<ellipse fill="none" stroke="#000000" cx="1064.57" cy="-640.7502" rx="59.4537" ry="59.4537"/>
<ellipse fill="none" stroke="#000000" cx="1064.57" cy="-640.7502" rx="63.4685" ry="63.4685"/>
<text text-anchor="middle" x="1064.57" y="-636.5502" font-family="Times,serif" font-size="14.00" fill="#000000">REALMDOT</text>
</g>
<!-- LABEL -->
<g id="node3" class="node">
<title>LABEL</title>
<ellipse fill="none" stroke="#000000" cx="1265.4776" cy="-603.7502" rx="38.6863" ry="38.6863"/>
<ellipse fill="none" stroke="#000000" cx="1265.4776" cy="-603.7502" rx="42.6955" ry="42.6955"/>
<text text-anchor="middle" x="1265.4776" y="-599.5502" font-family="Times,serif" font-size="14.00" fill="#000000">LABEL</text>
</g>
<!-- REALMDOT&#45;&gt;LABEL -->
<g id="edge15" class="edge">
<title>REALMDOT&#45;&gt;LABEL</title>
<path fill="none" stroke="#000000" d="M1127.2906,-632.1093C1151.6055,-628.4478 1179.6224,-623.8463 1204.88,-618.7502 1207.9161,-618.1376 1211.0295,-617.4749 1214.1651,-616.7808"/>
<polygon fill="#000000" stroke="#000000" points="1215.2243,-620.1288 1224.1879,-614.4805 1213.6584,-613.3062 1215.2243,-620.1288"/>
<text text-anchor="middle" x="1175.3419" y="-631.5502" font-family="Times,serif" font-size="14.00" fill="#000000">0&#45;9A&#45;Za&#45;z</text>
</g>
<!-- LABEL&#45;&gt;REALMDOT -->
<g id="edge20" class="edge">
<title>LABEL&#45;&gt;REALMDOT</title>
<path fill="none" stroke="#000000" d="M1223.1355,-597.5436C1199.9985,-595.4312 1171.0048,-594.8821 1145.8038,-600.7502 1140.3494,-602.0203 1134.84,-603.7115 1129.3964,-605.682"/>
<polygon fill="#000000" stroke="#000000" points="1127.7188,-602.5809 1119.6953,-609.5 1130.2823,-609.0946 1127.7188,-602.5809"/>
<text text-anchor="middle" x="1175.3419" y="-603.5502" font-family="Times,serif" font-size="14.00" fill="#000000">.</text>
</g>
<!-- LABEL&#45;&gt;LABEL -->
<g id="edge16" class="edge">
<title>LABEL&#45;&gt;LABEL</title>
<path fill="none" stroke="#000000" d="M1248.6284,-643.0911C1249.0507,-655.0219 1254.6671,-664.3478 1265.4776,-664.3478 1272.9099,-664.3478 1277.8871,-659.9399 1280.4093,-653.308"/>
<polygon fill="#000000" stroke="#000000" points="1283.922,-653.5652 1282.3269,-643.0911 1277.0422,-652.2739 1283.922,-653.5652"/>
<text text-anchor="middle" x="1265.4776" y="-667.1478" font-family="Times,serif" font-size="14.00" fill="#000000">0&#45;9A&#45;Za&#45;z</text>
</g>
<!-- LABELDASH -->
<g id="node10" class="node">
<title>LABELDASH</title>
<ellipse fill="none" stroke="#000000" cx="1465.8268" cy="-603.7502" rx="62.8512" ry="62.8512"/>
<text text-anchor="middle" x="1465.8268" y="-599.5502" font-family="Times,serif" font-size="14.00" fill="#000000">LABELDASH</text>
</g>
<!-- LABEL&#45;&gt;LABELDASH -->
<g id="edge17" class="edge">
<title>LABEL&#45;&gt;LABELDASH</title>
<path fill="none" stroke="#000000" d="M1308.4575,-603.7502C1333.0343,-603.7502 1364.5183,-603.7502 1392.8588,-603.7502"/>
<polygon fill="#000000" stroke="#000000" points="1393.1392,-607.2503 1403.1392,-603.7502 1393.1391,-600.2503 1393.1392,-607.2503"/>
<text text-anchor="middle" x="1355.6133" y="-606.5502" font-family="Times,serif" font-size="14.00" fill="#000000">&#45;</text>
</g>
<!-- qi -->
<g id="node4" class="node">
<title>qi</title>
<ellipse fill="#000000" stroke="#000000" cx="73.3394" cy="-536.7502" rx="1.8" ry="1.8"/>
</g>
<!-- S -->
<g id="node5" class="node">
<title>S</title>
<ellipse fill="none" stroke="#000000" cx="201.6787" cy="-536.7502" rx="18" ry="18"/>
<text text-anchor="middle" x="201.6787" y="-532.5502" font-family="Times,serif" font-size="14.00" fill="#000000">S</text>
</g>
<!-- qi&#45;&gt;S -->
<g id="edge1" class="edge">
<title>qi&#45;&gt;S</title>
<path fill="none" stroke="#000000" d="M75.1536,-536.7502C85.6554,-536.7502 139.3634,-536.7502 173.3422,-536.7502"/>
<polygon fill="#000000" stroke="#000000" points="173.6012,-540.2503 183.6012,-536.7502 173.6011,-533.2503 173.6012,-540.2503"/>
</g>
<!-- S&#45;&gt;USERDOM -->
<g id="edge2" class="edge">
<title>S&#45;&gt;USERDOM</title>
<path fill="none" stroke="#000000" d="M214.7686,-523.8465C237.7863,-501.1563 286.5933,-453.0436 323.7825,-416.3834"/>
<polygon fill="#000000" stroke="#000000" points="326.3899,-418.7279 331.0543,-409.215 321.4757,-413.7428 326.3899,-418.7279"/>
<text text-anchor="middle" x="267.2168" y="-502.5502" font-family="Times,serif" font-size="14.00" fill="#000000">0&#45;9A&#45;Za&#45;z</text>
</g>
<!-- S&#45;&gt;REALMDOT -->
<g id="edge4" class="edge">
<title>S&#45;&gt;REALMDOT</title>
<path fill="none" stroke="#000000" d="M213.7821,-550.7761C239.7071,-579.1637 303.8198,-640.7502 372.1031,-640.7502 372.1031,-640.7502 372.1031,-640.7502 897.684,-640.7502 928.2667,-640.7502 962.0018,-640.7502 991.0903,-640.7502"/>
<polygon fill="#000000" stroke="#000000" points="991.1728,-644.2503 1001.1727,-640.7502 991.1727,-637.2503 991.1728,-644.2503"/>
<text text-anchor="middle" x="601.9536" y="-643.5502" font-family="Times,serif" font-size="14.00" fill="#000000">.</text>
</g>
<!-- S&#45;&gt;REALMHOST -->
<g id="edge3" class="edge">
<title>S&#45;&gt;REALMHOST</title>
<path fill="none" stroke="#000000" d="M219.4528,-539.8106C268.0866,-548.01 407.5232,-570.3505 524.5276,-577.7502 593.2134,-582.0941 610.5606,-578.5083 679.3795,-577.7502 739.9027,-577.0835 755.8199,-584.6484 815.5319,-574.7502 819.406,-574.108 823.3493,-573.3242 827.307,-572.4344"/>
<polygon fill="#000000" stroke="#000000" points="828.2628,-575.8039 837.143,-570.0252 826.5974,-569.0048 828.2628,-575.8039"/>
<text text-anchor="middle" x="476.9895" y="-578.5502" font-family="Times,serif" font-size="14.00" fill="#000000">@</text>
</g>
<!-- S&#45;&gt;USERNAME -->
<g id="edge21" class="edge">
<title>S&#45;&gt;USERNAME</title>
<path fill="none" stroke="#000000" d="M206.7036,-519.4563C219.5987,-477.0546 256.9641,-365.777 314.7549,-288.7502 377.8228,-204.6897 478.4364,-133.6855 542.295,-93.6712"/>
<polygon fill="#000000" stroke="#000000" points="544.4048,-96.4811 551.0541,-88.2326 540.7123,-90.5342 544.4048,-96.4811"/>
<text text-anchor="middle" x="372.1031" y="-291.5502" font-family="Times,serif" font-size="14.00" fill="#000000">&#45; userchar</text>
</g>
<!-- REALMHOST&#45;&gt;REALMDOT -->
<g id="edge14" class="edge">
<title>REALMHOST&#45;&gt;REALMDOT</title>
<path fill="none" stroke="#000000" d="M954.184,-579.8972C968.9657,-588.046 985.0111,-596.8914 1000.1706,-605.2484"/>
<polygon fill="#000000" stroke="#000000" points="998.5304,-608.3408 1008.9776,-610.1035 1001.9099,-602.2106 998.5304,-608.3408"/>
<text text-anchor="middle" x="981.5862" y="-597.5502" font-family="Times,serif" font-size="14.00" fill="#000000">.</text>
</g>
<!-- REALMHOST&#45;&gt;LABEL -->
<g id="edge13" class="edge">
<title>REALMHOST&#45;&gt;LABEL</title>
<path fill="none" stroke="#000000" d="M961.7372,-545.0531C1008.2218,-543.667 1072.4045,-544.4401 1127.8038,-554.7502 1158.3249,-560.4303 1191.1238,-571.8759 1217.0496,-582.2773"/>
<polygon fill="#000000" stroke="#000000" points="1216.0496,-585.6498 1226.6302,-586.1984 1218.7011,-579.1714 1216.0496,-585.6498"/>
<text text-anchor="middle" x="1064.57" y="-557.5502" font-family="Times,serif" font-size="14.00" fill="#000000">0&#45;9A&#45;Za&#45;z</text>
</g>
<!-- USERNAME&#45;&gt;REALMHOST -->
<g id="edge25" class="edge">
<title>USERNAME&#45;&gt;REALMHOST</title>
<path fill="none" stroke="#000000" d="M639.7144,-103.9876C652.8483,-120.4949 667.3041,-139.5766 679.3795,-157.7502 752.0438,-267.1106 823.8427,-402.3475 864.2937,-481.7242"/>
<polygon fill="#000000" stroke="#000000" points="861.4187,-483.7925 869.0693,-491.1218 867.6591,-480.6213 861.4187,-483.7925"/>
<text text-anchor="middle" x="756.4557" y="-389.5502" font-family="Times,serif" font-size="14.00" fill="#000000">@</text>
</g>
<!-- USERNAME&#45;&gt;USERNAME -->
<g id="edge22" class="edge">
<title>USERNAME&#45;&gt;USERNAME</title>
<path fill="none" stroke="#000000" d="M579.1137,-112.8982C580.8989,-125.8809 588.5121,-135.5004 601.9536,-135.5004 611.7196,-135.5004 618.409,-130.4223 622.0218,-122.6658"/>
<polygon fill="#000000" stroke="#000000" points="625.4306,-123.4739 624.7934,-112.8982 618.6964,-121.5629 625.4306,-123.4739"/>
<text text-anchor="middle" x="601.9536" y="-138.3004" font-family="Times,serif" font-size="14.00" fill="#000000">&#45; userchar 0&#45;9A&#45;Za&#45;z</text>
</g>
<!-- USERDOT -->
<g id="node11" class="node">
<title>USERDOT</title>
<ellipse fill="none" stroke="#000000" cx="897.684" cy="-59.7502" rx="50.7741" ry="50.7741"/>
<text text-anchor="middle" x="897.684" y="-55.5502" font-family="Times,serif" font-size="14.00" fill="#000000">USERDOT</text>
</g>
<!-- USERNAME&#45;&gt;USERDOT -->
<g id="edge23" class="edge">
<title>USERNAME&#45;&gt;USERDOT</title>
<path fill="none" stroke="#000000" d="M659.5138,-46.8097C671.9471,-44.704 685.0591,-42.8391 697.3795,-41.7502 749.6878,-37.1273 763.3248,-36.0978 815.5319,-41.7502 822.8999,-42.5479 830.5757,-43.7369 838.1477,-45.1307"/>
<polygon fill="#000000" stroke="#000000" points="837.5205,-48.5743 848.0073,-47.0652 838.8683,-41.7053 837.5205,-48.5743"/>
<text text-anchor="middle" x="756.4557" y="-44.5502" font-family="Times,serif" font-size="14.00" fill="#000000">.</text>
</g>
<!-- USERDOMDOT&#45;&gt;USERDOM -->
<g id="edge9" class="edge">
<title>USERDOMDOT&#45;&gt;USERDOM</title>
<path fill="none" stroke="#000000" d="M542.1627,-278.1865C530.4671,-285.5536 518.2061,-293.0402 506.5276,-299.7502 482.8332,-313.364 456.1637,-327.3236 432.8637,-339.0935"/>
<polygon fill="#000000" stroke="#000000" points="431.1419,-336.0416 423.7779,-343.6589 434.2848,-342.2964 431.1419,-336.0416"/>
<text text-anchor="middle" x="476.9895" y="-334.5502" font-family="Times,serif" font-size="14.00" fill="#000000">0&#45;9A&#45;Za&#45;z</text>
</g>
<!-- USERDOMDASH&#45;&gt;USERDOM -->
<g id="edge12" class="edge">
<title>USERDOMDASH&#45;&gt;USERDOM</title>
<path fill="none" stroke="#000000" d="M524.8073,-395.6159C500.0566,-392.1371 472.5569,-388.0332 447.4514,-383.7502 444.4582,-383.2396 441.4014,-382.7011 438.3162,-382.1438"/>
<polygon fill="#000000" stroke="#000000" points="438.8782,-378.6885 428.4083,-380.311 437.6048,-385.5717 438.8782,-378.6885"/>
<text text-anchor="middle" x="476.9895" y="-394.5502" font-family="Times,serif" font-size="14.00" fill="#000000">0&#45;9A&#45;Za&#45;z</text>
</g>
<!-- USERDOMDASH&#45;&gt;USERDOMDASH -->
<g id="edge11" class="edge">
<title>USERDOMDASH&#45;&gt;USERDOMDASH</title>
<path fill="none" stroke="#000000" d="M580.344,-480.1685C583.3676,-492.5989 590.5707,-501.1762 601.9536,-501.1762 610.1349,-501.1762 616.1571,-496.7451 620.0201,-489.6372"/>
<polygon fill="#000000" stroke="#000000" points="623.3366,-490.7609 623.5631,-480.1685 616.7805,-488.3077 623.3366,-490.7609"/>
<text text-anchor="middle" x="601.9536" y="-503.9762" font-family="Times,serif" font-size="14.00" fill="#000000">&#45;</text>
</g>
<!-- LABELDASH&#45;&gt;LABEL -->
<g id="edge19" class="edge">
<title>LABELDASH&#45;&gt;LABEL</title>
<path fill="none" stroke="#000000" d="M1404.8352,-588.6649C1398.2253,-587.4725 1391.5703,-586.4576 1385.1514,-585.7502 1359.0534,-582.8741 1352.0582,-581.9728 1326.0753,-585.7502 1322.6593,-586.2468 1319.1679,-586.8931 1315.6713,-587.6448"/>
<polygon fill="#000000" stroke="#000000" points="1314.7649,-584.263 1305.8614,-590.0057 1316.4028,-591.0687 1314.7649,-584.263"/>
<text text-anchor="middle" x="1355.6133" y="-588.5502" font-family="Times,serif" font-size="14.00" fill="#000000">0&#45;9A&#45;Za&#45;z</text>
</g>
<!-- LABELDASH&#45;&gt;LABELDASH -->
<g id="edge18" class="edge">
<title>LABELDASH&#45;&gt;LABELDASH</title>
<path fill="none" stroke="#000000" d="M1445.9269,-663.2054C1448.0216,-675.5492 1454.6549,-684.4256 1465.8268,-684.4256 1473.682,-684.4256 1479.2934,-680.0372 1482.6611,-673.1408"/>
<polygon fill="#000000" stroke="#000000" points="1486.1226,-673.7929 1485.7267,-663.2054 1479.4338,-671.7289 1486.1226,-673.7929"/>
<text text-anchor="middle" x="1465.8268" y="-687.2256" font-family="Times,serif" font-size="14.00" fill="#000000">&#45;</text>
</g>
<!-- USERDOT&#45;&gt;USERNAME -->
<g id="edge24" class="edge">
<title>USERDOT&#45;&gt;USERNAME</title>
<path fill="none" stroke="#000000" d="M846.4184,-59.5768C797.8398,-59.4126 724.5261,-59.1647 670.8545,-58.9832"/>
<polygon fill="#000000" stroke="#000000" points="670.7458,-55.4829 660.734,-58.949 670.722,-62.4829 670.7458,-55.4829"/>
<text text-anchor="middle" x="756.4557" y="-62.5502" font-family="Times,serif" font-size="14.00" fill="#000000">&#45; userchar 0&#45;9A&#45;Za&#45;z</text>
</g>
<!-- userchar -->
<g id="node12" class="node">
<title>userchar</title>
<polygon fill="none" stroke="#000000" points="146.5184,-642.7502 .1603,-642.7502 .1603,-556.7502 146.5184,-556.7502 146.5184,-642.7502"/>
<text text-anchor="middle" x="73.3394" y="-617.5502" font-family="Times,serif" font-size="14.00" fill="#000000">userchar </text>
<text text-anchor="middle" x="73.3394" y="-587.5502" font-family="Times,serif" font-size="14.00" fill="#000000">!#$%&amp;&#39;*+/=?^_`{}|~</text>
<text text-anchor="middle" x="73.3394" y="-573.5502" font-family="Times,serif" font-size="14.00" fill="#000000">%x80&#45;FF</text>
</g>
</g>
</svg>
