<?xml version="1.0" encoding="UTF-8" standalone="no"?>
<!DOCTYPE svg PUBLIC "-//W3C//DTD SVG 1.1//EN"
 "http://www.w3.org/Graphics/SVG/1.1/DTD/svg11.dtd">
<!-- Generated by graphviz version 2.40.1 (20161225.0304)
 -->
<!-- Title: finite_state_machine Pages: 1 -->
<svg width="656pt" height="205pt"
 viewBox="0.00 0.00 656.42 204.75" xmlns="http://www.w3.org/2000/svg" xmlns:xlink="http://www.w3.org/1999/xlink">
<g id="graph0" class="graph" transform="scale(1 1) rotate(0) translate(4 200.748)">
<title>finite_state_machine</title>
<polygon fill="#ffffff" stroke="transparent" points="-4,4 -4,-200.748 652.4163,-200.748 652.4163,4 -4,4"/>
<text text-anchor="middle" x="324.2082" y="-181.548" font-family="Times,serif" font-size="14.00" fill="#000000">DoNAI user FSM</text>
<!-- USER -->
<g id="node1" class="node">
<title>USER</title>
<ellipse fill="none" stroke="#000000" cx="446.7941" cy="-40.748" rx="32.9021" ry="32.9021"/>
<ellipse fill="none" stroke="#000000" cx="446.7941" cy="-40.748" rx="36.9254" ry="36.9254"/>
<text text-anchor="middle" x="446.7941" y="-36.548" font-family="Times,serif" font-size="14.00" fill="#000000">USER</text>
</g>
<!-- USER&#45;&gt;USER -->
<g id="edge3" class="edge">
<title>USER&#45;&gt;USER</title>
<path fill="none" stroke="#000000" d="M432.17,-74.6755C432.0932,-86.1984 436.9679,-95.4601 446.7941,-95.4601 453.5496,-95.4601 457.9647,-91.0825 460.0395,-84.6021"/>
<polygon fill="#000000" stroke="#000000" points="463.5092,-85.062 461.4182,-74.6755 456.5757,-84.0989 463.5092,-85.062"/>
<text text-anchor="middle" x="446.7941" y="-98.2601" font-family="Times,serif" font-size="14.00" fill="#000000">userchar</text>
</g>
<!-- PARAM -->
<g id="node4" class="node">
<title>PARAM</title>
<ellipse fill="none" stroke="#000000" cx="607.6683" cy="-40.748" rx="40.9976" ry="40.9976"/>
<text text-anchor="middle" x="607.6683" y="-36.548" font-family="Times,serif" font-size="14.00" fill="#000000">PARAM</text>
</g>
<!-- USER&#45;&gt;PARAM -->
<g id="edge4" class="edge">
<title>USER&#45;&gt;PARAM</title>
<path fill="none" stroke="#000000" d="M483.7019,-40.748C505.2773,-40.748 532.8319,-40.748 556.4812,-40.748"/>
<polygon fill="#000000" stroke="#000000" points="556.6917,-44.2481 566.6917,-40.748 556.6916,-37.2481 556.6917,-44.2481"/>
<text text-anchor="middle" x="525.2132" y="-43.548" font-family="Times,serif" font-size="14.00" fill="#000000">+</text>
</g>
<!-- qi -->
<g id="node2" class="node">
<title>qi</title>
<ellipse fill="#000000" stroke="#000000" cx="126.834" cy="-40.748" rx="1.8" ry="1.8"/>
</g>
<!-- S -->
<g id="node3" class="node">
<title>S</title>
<ellipse fill="none" stroke="#000000" cx="308.668" cy="-40.748" rx="18" ry="18"/>
<text text-anchor="middle" x="308.668" y="-36.548" font-family="Times,serif" font-size="14.00" fill="#000000">S</text>
</g>
<!-- qi&#45;&gt;S -->
<g id="edge1" class="edge">
<title>qi&#45;&gt;S</title>
<path fill="none" stroke="#000000" d="M128.8761,-40.748C143.5361,-40.748 233.5046,-40.748 280.3559,-40.748"/>
<polygon fill="#000000" stroke="#000000" points="280.4635,-44.2481 290.4635,-40.748 280.4634,-37.2481 280.4635,-44.2481"/>
</g>
<!-- S&#45;&gt;USER -->
<g id="edge2" class="edge">
<title>S&#45;&gt;USER</title>
<path fill="none" stroke="#000000" d="M326.7255,-40.748C345.2357,-40.748 374.7903,-40.748 399.9447,-40.748"/>
<polygon fill="#000000" stroke="#000000" points="400.0509,-44.2481 410.0509,-40.748 400.0509,-37.2481 400.0509,-44.2481"/>
<text text-anchor="middle" x="368.375" y="-43.548" font-family="Times,serif" font-size="14.00" fill="#000000">userchar</text>
</g>
<!-- PARAM&#45;&gt;USER -->
<g id="edge5" class="edge">
<title>PARAM&#45;&gt;USER</title>
<path fill="none" stroke="#000000" d="M569.1755,-27.1791C562.4995,-25.339 555.5665,-23.7434 548.9202,-22.748 528.0797,-19.627 522.3135,-19.4132 501.5062,-22.748 498.0443,-23.3029 494.5044,-24.0434 490.9727,-24.9083"/>
<polygon fill="#000000" stroke="#000000" points="489.8247,-21.5941 481.1134,-27.6244 491.6839,-28.3427 489.8247,-21.5941"/>
<text text-anchor="middle" x="525.2132" y="-25.548" font-family="Times,serif" font-size="14.00" fill="#000000">userchar</text>
</g>
<!-- userchar -->
<g id="node5" class="node">
<title>userchar</title>
<polygon fill="none" stroke="#000000" points="253.5022,-158.748 .1658,-158.748 .1658,-60.748 253.5022,-60.748 253.5022,-158.748"/>
<text text-anchor="middle" x="126.834" y="-133.548" font-family="Times,serif" font-size="14.00" fill="#000000">userchar</text>
<text text-anchor="middle" x="126.834" y="-119.548" font-family="Times,serif" font-size="14.00" fill="#000000">visible (printing) characters</text>
<text text-anchor="middle" x="126.834" y="-105.548" font-family="Times,serif" font-size="14.00" fill="#000000">				except &#39; &#39;, &#39;+&#39; and &#39;@&#39;</text>
<text text-anchor="middle" x="126.834" y="-91.548" font-family="Times,serif" font-size="14.00" fill="#000000">				</text>
<text text-anchor="middle" x="126.834" y="-77.548" font-family="Times,serif" font-size="14.00" fill="#000000">%x21&#45;2A / %x2C&#45;3F / %x41&#45;7E</text>
</g>
</g>
</svg>
