<?xml version="1.0" encoding="UTF-8" standalone="no"?>
<!DOCTYPE svg PUBLIC "-//W3C//DTD SVG 1.1//EN"
 "http://www.w3.org/Graphics/SVG/1.1/DTD/svg11.dtd">
<!-- Generated by graphviz version 2.40.1 (20161225.0304)
 -->
<!-- Title: finite_state_machine Pages: 1 -->
<svg width="1487pt" height="507pt"
 viewBox="0.00 0.00 1487.23 507.03" xmlns="http://www.w3.org/2000/svg" xmlns:xlink="http://www.w3.org/1999/xlink">
<g id="graph0" class="graph" transform="scale(1 1) rotate(0) translate(4 503.0279)">
<title>finite_state_machine</title>
<polygon fill="#ffffff" stroke="transparent" points="-4,4 -4,-503.0279 1483.2266,-503.0279 1483.2266,4 -4,4"/>
<text text-anchor="middle" x="739.6133" y="-483.8279" font-family="Times,serif" font-size="14.00" fill="#000000">RFC 4282 NAI FSM</text>
<!-- USERNAME -->
<g id="node1" class="node">
<title>USERNAME</title>
<ellipse fill="none" stroke="#000000" cx="370.5051" cy="-297.0971" rx="58.5173" ry="58.5173"/>
<ellipse fill="none" stroke="#000000" cx="370.5051" cy="-297.0971" rx="62.5014" ry="62.5014"/>
<text text-anchor="middle" x="370.5051" y="-292.8971" font-family="Times,serif" font-size="14.00" fill="#000000">USERNAME</text>
</g>
<!-- USERNAME&#45;&gt;USERNAME -->
<g id="edge17" class="edge">
<title>USERNAME&#45;&gt;USERNAME</title>
<path fill="none" stroke="#000000" d="M351.8096,-357.3164C353.9139,-369.3011 360.1457,-377.8473 370.5051,-377.8473 377.789,-377.8473 383.0324,-373.6222 386.2351,-366.9475"/>
<polygon fill="#000000" stroke="#000000" points="389.6028,-367.9036 389.2005,-357.3164 382.9127,-365.8436 389.6028,-367.9036"/>
<text text-anchor="middle" x="370.5051" y="-380.6473" font-family="Times,serif" font-size="14.00" fill="#000000">userchar</text>
</g>
<!-- REALMHOST -->
<g id="node5" class="node">
<title>REALMHOST</title>
<ellipse fill="none" stroke="#000000" cx="586.3039" cy="-177.0971" rx="64.3046" ry="64.3046"/>
<text text-anchor="middle" x="586.3039" y="-172.8971" font-family="Times,serif" font-size="14.00" fill="#000000">REALMHOST</text>
</g>
<!-- USERNAME&#45;&gt;REALMHOST -->
<g id="edge22" class="edge">
<title>USERNAME&#45;&gt;REALMHOST</title>
<path fill="none" stroke="#000000" d="M425.5186,-266.5055C454.6144,-250.3261 490.5265,-230.3564 521.0253,-213.3968"/>
<polygon fill="#000000" stroke="#000000" points="522.8485,-216.3878 529.8872,-208.4689 519.4465,-210.27 522.8485,-216.3878"/>
<text text-anchor="middle" x="477.7035" y="-254.8971" font-family="Times,serif" font-size="14.00" fill="#000000">@</text>
</g>
<!-- USERESC -->
<g id="node10" class="node">
<title>USERESC</title>
<ellipse fill="none" stroke="#000000" cx="586.3039" cy="-428.0971" rx="48.8618" ry="48.8618"/>
<text text-anchor="middle" x="586.3039" y="-423.8971" font-family="Times,serif" font-size="14.00" fill="#000000">USERESC</text>
</g>
<!-- USERNAME&#45;&gt;USERESC -->
<g id="edge18" class="edge">
<title>USERNAME&#45;&gt;USERESC</title>
<path fill="none" stroke="#000000" d="M415.4453,-341.6509C426.607,-351.4184 438.9213,-361.1908 451.2553,-369.0971 475.799,-384.83 505.2483,-398.246 530.374,-408.2908"/>
<polygon fill="#000000" stroke="#000000" points="529.1851,-411.5839 539.7728,-411.9733 531.7388,-405.0664 529.1851,-411.5839"/>
<text text-anchor="middle" x="477.7035" y="-397.8971" font-family="Times,serif" font-size="14.00" fill="#000000">\</text>
</g>
<!-- USERDOT -->
<g id="node11" class="node">
<title>USERDOT</title>
<ellipse fill="none" stroke="#000000" cx="586.3039" cy="-310.0971" rx="50.7741" ry="50.7741"/>
<text text-anchor="middle" x="586.3039" y="-305.8971" font-family="Times,serif" font-size="14.00" fill="#000000">USERDOT</text>
</g>
<!-- USERNAME&#45;&gt;USERDOT -->
<g id="edge20" class="edge">
<title>USERNAME&#45;&gt;USERDOT</title>
<path fill="none" stroke="#000000" d="M430.5638,-278.6423C453.6446,-273.9082 480.1937,-271.3352 504.1518,-276.0971 513.0463,-277.8649 522.185,-280.6121 530.9875,-283.7958"/>
<polygon fill="#000000" stroke="#000000" points="529.7893,-287.0848 540.3796,-287.3963 532.295,-280.5486 529.7893,-287.0848"/>
<text text-anchor="middle" x="477.7035" y="-278.8971" font-family="Times,serif" font-size="14.00" fill="#000000">.</text>
</g>
<!-- LABEL2 -->
<g id="node2" class="node">
<title>LABEL2</title>
<ellipse fill="none" stroke="#000000" cx="1202.9368" cy="-67.0971" rx="43.0371" ry="43.0371"/>
<ellipse fill="none" stroke="#000000" cx="1202.9368" cy="-67.0971" rx="47.0387" ry="47.0387"/>
<text text-anchor="middle" x="1202.9368" y="-62.8971" font-family="Times,serif" font-size="14.00" fill="#000000">LABEL2</text>
</g>
<!-- LABEL2&#45;&gt;LABEL2 -->
<g id="edge10" class="edge">
<title>LABEL2&#45;&gt;LABEL2</title>
<path fill="none" stroke="#000000" d="M1185.4194,-110.8555C1186.2657,-122.907 1192.1048,-132.1165 1202.9368,-132.1165 1210.5531,-132.1165 1215.701,-127.5634 1218.3804,-120.6708"/>
<polygon fill="#000000" stroke="#000000" points="1221.8114,-121.363 1220.4543,-110.8555 1214.9626,-119.9159 1221.8114,-121.363"/>
<text text-anchor="middle" x="1202.9368" y="-134.9165" font-family="Times,serif" font-size="14.00" fill="#000000">0&#45;9A&#45;Za&#45;z</text>
</g>
<!-- REALMDOM -->
<g id="node8" class="node">
<title>REALMDOM</title>
<ellipse fill="none" stroke="#000000" cx="993.7442" cy="-67.0971" rx="61.8909" ry="61.8909"/>
<text text-anchor="middle" x="993.7442" y="-62.8971" font-family="Times,serif" font-size="14.00" fill="#000000">REALMDOM</text>
</g>
<!-- LABEL2&#45;&gt;REALMDOM -->
<g id="edge14" class="edge">
<title>LABEL2&#45;&gt;REALMDOM</title>
<path fill="none" stroke="#000000" d="M1157.7908,-52.9211C1151.184,-51.3382 1144.4169,-49.9801 1137.9175,-49.0971 1111.9004,-45.5623 1104.9549,-46.3655 1078.8413,-49.0971 1074.0259,-49.6008 1069.0819,-50.2607 1064.117,-51.0297"/>
<polygon fill="#000000" stroke="#000000" points="1063.2102,-47.6331 1053.931,-52.7465 1064.3737,-54.5357 1063.2102,-47.6331"/>
<text text-anchor="middle" x="1108.3794" y="-51.8971" font-family="Times,serif" font-size="14.00" fill="#000000">.</text>
</g>
<!-- LABELDASH2 -->
<g id="node9" class="node">
<title>LABELDASH2</title>
<ellipse fill="none" stroke="#000000" cx="1412.1295" cy="-67.0971" rx="67.1943" ry="67.1943"/>
<text text-anchor="middle" x="1412.1295" y="-62.8971" font-family="Times,serif" font-size="14.00" fill="#000000">LABELDASH2</text>
</g>
<!-- LABEL2&#45;&gt;LABELDASH2 -->
<g id="edge11" class="edge">
<title>LABEL2&#45;&gt;LABELDASH2</title>
<path fill="none" stroke="#000000" d="M1250.1446,-67.0971C1275.0442,-67.0971 1306.2282,-67.0971 1334.5689,-67.0971"/>
<polygon fill="#000000" stroke="#000000" points="1334.8648,-70.5972 1344.8647,-67.0971 1334.8647,-63.5972 1334.8648,-70.5972"/>
<text text-anchor="middle" x="1297.4943" y="-69.8971" font-family="Times,serif" font-size="14.00" fill="#000000">&#45;</text>
</g>
<!-- qi -->
<g id="node3" class="node">
<title>qi</title>
<ellipse fill="#000000" stroke="#000000" cx="75.6704" cy="-297.0971" rx="1.8" ry="1.8"/>
</g>
<!-- S -->
<g id="node4" class="node">
<title>S</title>
<ellipse fill="none" stroke="#000000" cx="206.3408" cy="-297.0971" rx="18" ry="18"/>
<text text-anchor="middle" x="206.3408" y="-292.8971" font-family="Times,serif" font-size="14.00" fill="#000000">S</text>
</g>
<!-- qi&#45;&gt;S -->
<g id="edge1" class="edge">
<title>qi&#45;&gt;S</title>
<path fill="none" stroke="#000000" d="M77.5176,-297.0971C88.2381,-297.0971 143.1803,-297.0971 177.7609,-297.0971"/>
<polygon fill="#000000" stroke="#000000" points="178.191,-300.5972 188.191,-297.0971 178.1909,-293.5972 178.191,-300.5972"/>
</g>
<!-- S&#45;&gt;USERNAME -->
<g id="edge15" class="edge">
<title>S&#45;&gt;USERNAME</title>
<path fill="none" stroke="#000000" d="M224.5365,-297.0971C242.3023,-297.0971 270.5176,-297.0971 297.4264,-297.0971"/>
<polygon fill="#000000" stroke="#000000" points="297.651,-300.5972 307.651,-297.0971 297.651,-293.5972 297.651,-300.5972"/>
<text text-anchor="middle" x="266.0479" y="-299.8971" font-family="Times,serif" font-size="14.00" fill="#000000">userchar</text>
</g>
<!-- S&#45;&gt;REALMHOST -->
<g id="edge2" class="edge">
<title>S&#45;&gt;REALMHOST</title>
<path fill="none" stroke="#000000" d="M218.0713,-282.9315C235.3991,-263.1063 269.8972,-227.6593 307.7549,-211.0971 372.8081,-182.6372 454.0761,-175.5629 512.0095,-174.7481"/>
<polygon fill="#000000" stroke="#000000" points="512.2125,-178.2466 522.1838,-174.6657 512.1558,-171.2469 512.2125,-178.2466"/>
<text text-anchor="middle" x="370.5051" y="-213.8971" font-family="Times,serif" font-size="14.00" fill="#000000">@</text>
</g>
<!-- S&#45;&gt;USERESC -->
<g id="edge16" class="edge">
<title>S&#45;&gt;USERESC</title>
<path fill="none" stroke="#000000" d="M215.9662,-312.3864C231.8306,-336.0805 265.9174,-381.026 307.7549,-401.0971 377.6967,-434.6509 468.7462,-436.8532 527.368,-433.7591"/>
<polygon fill="#000000" stroke="#000000" points="527.7914,-437.2401 537.5649,-433.1501 527.374,-430.2526 527.7914,-437.2401"/>
<text text-anchor="middle" x="370.5051" y="-433.8971" font-family="Times,serif" font-size="14.00" fill="#000000">\</text>
</g>
<!-- LABEL1 -->
<g id="node6" class="node">
<title>LABEL1</title>
<ellipse fill="none" stroke="#000000" cx="788.5516" cy="-177.0971" rx="43.0387" ry="43.0387"/>
<text text-anchor="middle" x="788.5516" y="-172.8971" font-family="Times,serif" font-size="14.00" fill="#000000">LABEL1</text>
</g>
<!-- REALMHOST&#45;&gt;LABEL1 -->
<g id="edge3" class="edge">
<title>REALMHOST&#45;&gt;LABEL1</title>
<path fill="none" stroke="#000000" d="M650.5742,-177.0971C677.9401,-177.0971 709.4774,-177.0971 735.4874,-177.0971"/>
<polygon fill="#000000" stroke="#000000" points="735.5306,-180.5972 745.5305,-177.0971 735.5305,-173.5972 735.5306,-180.5972"/>
<text text-anchor="middle" x="697.9941" y="-179.8971" font-family="Times,serif" font-size="14.00" fill="#000000">0&#45;9A&#45;Za&#45;z</text>
</g>
<!-- LABEL1&#45;&gt;LABEL1 -->
<g id="edge4" class="edge">
<title>LABEL1&#45;&gt;LABEL1</title>
<path fill="none" stroke="#000000" d="M771.7023,-216.7118C772.1246,-228.7256 777.741,-238.1165 788.5516,-238.1165 795.9838,-238.1165 800.9611,-233.6778 803.4832,-226.9997"/>
<polygon fill="#000000" stroke="#000000" points="807.0091,-227.1839 805.4008,-216.7118 800.1276,-225.9012 807.0091,-227.1839"/>
<text text-anchor="middle" x="788.5516" y="-240.9165" font-family="Times,serif" font-size="14.00" fill="#000000">0&#45;9A&#45;Za&#45;z</text>
</g>
<!-- LABELDASH1 -->
<g id="node7" class="node">
<title>LABELDASH1</title>
<ellipse fill="none" stroke="#000000" cx="993.7442" cy="-214.0971" rx="67.1943" ry="67.1943"/>
<text text-anchor="middle" x="993.7442" y="-209.8971" font-family="Times,serif" font-size="14.00" fill="#000000">LABELDASH1</text>
</g>
<!-- LABEL1&#45;&gt;LABELDASH1 -->
<g id="edge5" class="edge">
<title>LABEL1&#45;&gt;LABELDASH1</title>
<path fill="none" stroke="#000000" d="M830.4567,-187.9221C836.8392,-189.4188 843.3652,-190.8634 849.571,-192.0971 871.4296,-196.4424 895.3008,-200.4005 917.2165,-203.7238"/>
<polygon fill="#000000" stroke="#000000" points="916.7266,-207.1894 927.134,-205.2052 917.7608,-200.2662 916.7266,-207.1894"/>
<text text-anchor="middle" x="879.109" y="-204.8971" font-family="Times,serif" font-size="14.00" fill="#000000">&#45;</text>
</g>
<!-- LABEL1&#45;&gt;REALMDOM -->
<g id="edge8" class="edge">
<title>LABEL1&#45;&gt;REALMDOM</title>
<path fill="none" stroke="#000000" d="M826.6659,-156.6647C855.7107,-141.0943 896.3505,-119.308 930.2763,-101.1211"/>
<polygon fill="#000000" stroke="#000000" points="932.0376,-104.1482 939.1973,-96.3387 928.7302,-97.9787 932.0376,-104.1482"/>
<text text-anchor="middle" x="879.109" y="-144.8971" font-family="Times,serif" font-size="14.00" fill="#000000">.</text>
</g>
<!-- LABELDASH1&#45;&gt;LABEL1 -->
<g id="edge7" class="edge">
<title>LABELDASH1&#45;&gt;LABEL1</title>
<path fill="none" stroke="#000000" d="M934.4787,-182.2741C926.0107,-178.9087 917.2505,-176.0183 908.6471,-174.0971 886.9562,-169.2534 862.5142,-168.962 841.3699,-170.2723"/>
<polygon fill="#000000" stroke="#000000" points="840.9906,-166.7908 831.2813,-171.0312 841.5157,-173.7711 840.9906,-166.7908"/>
<text text-anchor="middle" x="879.109" y="-176.8971" font-family="Times,serif" font-size="14.00" fill="#000000">0&#45;9A&#45;Za&#45;z</text>
</g>
<!-- LABELDASH1&#45;&gt;LABELDASH1 -->
<g id="edge6" class="edge">
<title>LABELDASH1&#45;&gt;LABELDASH1</title>
<path fill="none" stroke="#000000" d="M973.392,-278.2968C975.8274,-290.5376 982.6114,-299.1942 993.7442,-299.1942 1001.572,-299.1942 1007.2498,-294.9145 1010.7776,-288.1184"/>
<polygon fill="#000000" stroke="#000000" points="1014.2109,-288.891 1014.0964,-278.2968 1007.5793,-286.6501 1014.2109,-288.891"/>
<text text-anchor="middle" x="993.7442" y="-301.9942" font-family="Times,serif" font-size="14.00" fill="#000000">&#45;</text>
</g>
<!-- REALMDOM&#45;&gt;LABEL2 -->
<g id="edge9" class="edge">
<title>REALMDOM&#45;&gt;LABEL2</title>
<path fill="none" stroke="#000000" d="M1055.6598,-67.0971C1084.2023,-67.0971 1117.8629,-67.0971 1145.7943,-67.0971"/>
<polygon fill="#000000" stroke="#000000" points="1145.8056,-70.5972 1155.8056,-67.0971 1145.8055,-63.5972 1145.8056,-70.5972"/>
<text text-anchor="middle" x="1108.3794" y="-69.8971" font-family="Times,serif" font-size="14.00" fill="#000000">0&#45;9A&#45;Za&#45;z</text>
</g>
<!-- LABELDASH2&#45;&gt;LABEL2 -->
<g id="edge13" class="edge">
<title>LABELDASH2&#45;&gt;LABEL2</title>
<path fill="none" stroke="#000000" d="M1346.376,-51.7749C1339.8689,-50.6847 1333.3403,-49.7569 1327.0324,-49.0971 1300.9188,-46.3655 1293.9733,-45.5623 1267.9562,-49.0971 1264.7065,-49.5386 1261.3899,-50.0989 1258.0598,-50.7466"/>
<polygon fill="#000000" stroke="#000000" points="1257.1081,-47.3718 1248.0828,-52.9211 1258.5988,-54.2113 1257.1081,-47.3718"/>
<text text-anchor="middle" x="1297.4943" y="-51.8971" font-family="Times,serif" font-size="14.00" fill="#000000">0&#45;9A&#45;Za&#45;z</text>
</g>
<!-- LABELDASH2&#45;&gt;LABELDASH2 -->
<g id="edge12" class="edge">
<title>LABELDASH2&#45;&gt;LABELDASH2</title>
<path fill="none" stroke="#000000" d="M1391.7773,-131.2968C1394.2126,-143.5376 1400.9967,-152.1942 1412.1295,-152.1942 1419.9572,-152.1942 1425.635,-147.9145 1429.1629,-141.1184"/>
<polygon fill="#000000" stroke="#000000" points="1432.5962,-141.891 1432.4816,-131.2968 1425.9645,-139.6501 1432.5962,-141.891"/>
<text text-anchor="middle" x="1412.1295" y="-154.9942" font-family="Times,serif" font-size="14.00" fill="#000000">&#45;</text>
</g>
<!-- USERESC&#45;&gt;USERNAME -->
<g id="edge19" class="edge">
<title>USERESC&#45;&gt;USERNAME</title>
<path fill="none" stroke="#000000" d="M549.5505,-395.7569C540.4678,-387.5233 530.8511,-378.596 522.1518,-370.0971 513.8313,-361.9682 513.764,-357.6479 504.1518,-351.0971 484.7871,-337.9 461.707,-327.1322 440.2205,-318.7824"/>
<polygon fill="#000000" stroke="#000000" points="441.3955,-315.485 430.8036,-315.2344 438.9274,-322.0355 441.3955,-315.485"/>
<text text-anchor="middle" x="477.7035" y="-353.8971" font-family="Times,serif" font-size="14.00" fill="#000000">%x00&#45;FF</text>
</g>
<!-- USERDOT&#45;&gt;USERNAME -->
<g id="edge21" class="edge">
<title>USERDOT&#45;&gt;USERNAME</title>
<path fill="none" stroke="#000000" d="M535.4183,-307.0317C507.9463,-305.3767 473.5563,-303.305 443.2995,-301.4823"/>
<polygon fill="#000000" stroke="#000000" points="443.4053,-297.9824 433.2129,-300.8747 442.9843,-304.9698 443.4053,-297.9824"/>
<text text-anchor="middle" x="477.7035" y="-307.8971" font-family="Times,serif" font-size="14.00" fill="#000000">userchar</text>
</g>
<!-- userchar -->
<g id="node12" class="node">
<title>userchar</title>
<polygon fill="none" stroke="#000000" points="151.5116,-417.0971 -.1708,-417.0971 -.1708,-317.0971 151.5116,-317.0971 151.5116,-417.0971"/>
<text text-anchor="middle" x="75.6704" y="-391.8971" font-family="Times,serif" font-size="14.00" fill="#000000">userchar </text>
<text text-anchor="middle" x="75.6704" y="-361.8971" font-family="Times,serif" font-size="14.00" fill="#000000">0&#45;9A&#45;Za&#45;z</text>
<text text-anchor="middle" x="75.6704" y="-347.8971" font-family="Times,serif" font-size="14.00" fill="#000000">!#$%&amp;&#39;*+&#45;/=?^_`{}|~</text>
<text text-anchor="middle" x="75.6704" y="-333.8971" font-family="Times,serif" font-size="14.00" fill="#000000">%x80&#45;FF</text>
</g>
</g>
</svg>
