<?xml version="1.0" encoding="UTF-8" standalone="no"?>
<!DOCTYPE svg PUBLIC "-//W3C//DTD SVG 1.1//EN"
 "http://www.w3.org/Graphics/SVG/1.1/DTD/svg11.dtd">
<!-- Generated by graphviz version 2.40.1 (20161225.0304)
 -->
<!-- Title: finite_state_machine Pages: 1 -->
<svg width="1060pt" height="387pt"
 viewBox="0.00 0.00 1060.27 387.16" xmlns="http://www.w3.org/2000/svg" xmlns:xlink="http://www.w3.org/1999/xlink">
<g id="graph0" class="graph" transform="scale(1 1) rotate(0) translate(4 383.1647)">
<title>finite_state_machine</title>
<polygon fill="#ffffff" stroke="transparent" points="-4,4 -4,-383.1647 1056.2713,-383.1647 1056.2713,4 -4,4"/>
<!-- USERNAME -->
<g id="node1" class="node">
<title>USERNAME</title>
<ellipse fill="none" stroke="#000000" cx="370.5051" cy="-199.2338" rx="58.5173" ry="58.5173"/>
<ellipse fill="none" stroke="#000000" cx="370.5051" cy="-199.2338" rx="62.5014" ry="62.5014"/>
<text text-anchor="middle" x="370.5051" y="-195.0338" font-family="Times,serif" font-size="14.00" fill="#000000">USERNAME</text>
</g>
<!-- USERNAME&#45;&gt;USERNAME -->
<g id="edge13" class="edge">
<title>USERNAME&#45;&gt;USERNAME</title>
<path fill="none" stroke="#000000" d="M351.8096,-259.4531C353.9139,-271.4378 360.1457,-279.984 370.5051,-279.984 377.789,-279.984 383.0324,-275.7589 386.2351,-269.0842"/>
<polygon fill="#000000" stroke="#000000" points="389.6028,-270.0403 389.2005,-259.4531 382.9127,-267.9804 389.6028,-270.0403"/>
<text text-anchor="middle" x="370.5051" y="-282.784" font-family="Times,serif" font-size="14.00" fill="#000000">userchar</text>
</g>
<!-- REALMHOST -->
<g id="node6" class="node">
<title>REALMHOST</title>
<ellipse fill="none" stroke="#000000" cx="586.3039" cy="-79.2338" rx="64.3046" ry="64.3046"/>
<text text-anchor="middle" x="586.3039" y="-75.0338" font-family="Times,serif" font-size="14.00" fill="#000000">REALMHOST</text>
</g>
<!-- USERNAME&#45;&gt;REALMHOST -->
<g id="edge18" class="edge">
<title>USERNAME&#45;&gt;REALMHOST</title>
<path fill="none" stroke="#000000" d="M425.5186,-168.6423C454.6144,-152.4629 490.5265,-132.4931 521.0253,-115.5335"/>
<polygon fill="#000000" stroke="#000000" points="522.8485,-118.5245 529.8872,-110.6057 519.4465,-112.4067 522.8485,-118.5245"/>
<text text-anchor="middle" x="477.7035" y="-157.0338" font-family="Times,serif" font-size="14.00" fill="#000000">@</text>
</g>
<!-- USERESC -->
<g id="node8" class="node">
<title>USERESC</title>
<ellipse fill="none" stroke="#000000" cx="586.3039" cy="-330.2338" rx="48.8618" ry="48.8618"/>
<text text-anchor="middle" x="586.3039" y="-326.0338" font-family="Times,serif" font-size="14.00" fill="#000000">USERESC</text>
</g>
<!-- USERNAME&#45;&gt;USERESC -->
<g id="edge14" class="edge">
<title>USERNAME&#45;&gt;USERESC</title>
<path fill="none" stroke="#000000" d="M415.4453,-243.7876C426.607,-253.5551 438.9213,-263.3276 451.2553,-271.2338 475.799,-286.9667 505.2483,-300.3827 530.374,-310.4275"/>
<polygon fill="#000000" stroke="#000000" points="529.1851,-313.7207 539.7728,-314.11 531.7388,-307.2031 529.1851,-313.7207"/>
<text text-anchor="middle" x="477.7035" y="-300.0338" font-family="Times,serif" font-size="14.00" fill="#000000">\</text>
</g>
<!-- USERDOT -->
<g id="node9" class="node">
<title>USERDOT</title>
<ellipse fill="none" stroke="#000000" cx="586.3039" cy="-212.2338" rx="50.7741" ry="50.7741"/>
<text text-anchor="middle" x="586.3039" y="-208.0338" font-family="Times,serif" font-size="14.00" fill="#000000">USERDOT</text>
</g>
<!-- USERNAME&#45;&gt;USERDOT -->
<g id="edge16" class="edge">
<title>USERNAME&#45;&gt;USERDOT</title>
<path fill="none" stroke="#000000" d="M430.5638,-180.7791C453.6446,-176.0449 480.1937,-173.472 504.1518,-178.2338 513.0463,-180.0017 522.185,-182.7488 530.9875,-185.9326"/>
<polygon fill="#000000" stroke="#000000" points="529.7893,-189.2216 540.3796,-189.533 532.295,-182.6854 529.7893,-189.2216"/>
<text text-anchor="middle" x="477.7035" y="-181.0338" font-family="Times,serif" font-size="14.00" fill="#000000">.</text>
</g>
<!-- LABEL -->
<g id="node2" class="node">
<title>LABEL</title>
<ellipse fill="none" stroke="#000000" cx="788.1299" cy="-138.2338" rx="38.6863" ry="38.6863"/>
<ellipse fill="none" stroke="#000000" cx="788.1299" cy="-138.2338" rx="42.6955" ry="42.6955"/>
<text text-anchor="middle" x="788.1299" y="-134.0338" font-family="Times,serif" font-size="14.00" fill="#000000">LABEL</text>
</g>
<!-- LABEL&#45;&gt;LABEL -->
<g id="edge6" class="edge">
<title>LABEL&#45;&gt;LABEL</title>
<path fill="none" stroke="#000000" d="M771.2806,-177.5748C771.7029,-189.5055 777.3193,-198.8315 788.1299,-198.8315 795.5621,-198.8315 800.5393,-194.4235 803.0615,-187.7916"/>
<polygon fill="#000000" stroke="#000000" points="806.5743,-188.0488 804.9791,-177.5748 799.6944,-186.7575 806.5743,-188.0488"/>
<text text-anchor="middle" x="788.1299" y="-201.6315" font-family="Times,serif" font-size="14.00" fill="#000000">0&#45;9A&#45;Za&#45;z</text>
</g>
<!-- REALMDOT -->
<g id="node3" class="node">
<title>REALMDOT</title>
<ellipse fill="none" stroke="#000000" cx="989.0375" cy="-63.2338" rx="59.4537" ry="59.4537"/>
<ellipse fill="none" stroke="#000000" cx="989.0375" cy="-63.2338" rx="63.4685" ry="63.4685"/>
<text text-anchor="middle" x="989.0375" y="-59.0338" font-family="Times,serif" font-size="14.00" fill="#000000">REALMDOT</text>
</g>
<!-- LABEL&#45;&gt;REALMDOT -->
<g id="edge10" class="edge">
<title>LABEL&#45;&gt;REALMDOT</title>
<path fill="none" stroke="#000000" d="M820.4893,-110.2633C829.2009,-103.8695 838.9368,-97.6613 848.7275,-93.2338 869.6895,-83.7545 893.7882,-77.2102 916.0322,-72.7171"/>
<polygon fill="#000000" stroke="#000000" points="916.938,-76.1074 926.104,-70.7938 915.625,-69.2317 916.938,-76.1074"/>
<text text-anchor="middle" x="878.2656" y="-96.0338" font-family="Times,serif" font-size="14.00" fill="#000000">.</text>
</g>
<!-- LABELDASH -->
<g id="node7" class="node">
<title>LABELDASH</title>
<ellipse fill="none" stroke="#000000" cx="989.0375" cy="-207.2338" rx="62.8512" ry="62.8512"/>
<text text-anchor="middle" x="989.0375" y="-203.0338" font-family="Times,serif" font-size="14.00" fill="#000000">LABELDASH</text>
</g>
<!-- LABEL&#45;&gt;LABELDASH -->
<g id="edge7" class="edge">
<title>LABEL&#45;&gt;LABELDASH</title>
<path fill="none" stroke="#000000" d="M829.5854,-148.053C852.8404,-153.9613 882.2308,-162.0982 907.8037,-171.2338 912.5839,-172.9415 917.4774,-174.805 922.3761,-176.756"/>
<polygon fill="#000000" stroke="#000000" points="921.1937,-180.0538 931.7746,-180.5979 923.8425,-173.5742 921.1937,-180.0538"/>
<text text-anchor="middle" x="878.2656" y="-174.0338" font-family="Times,serif" font-size="14.00" fill="#000000">&#45;</text>
</g>
<!-- REALMDOT&#45;&gt;LABEL -->
<g id="edge5" class="edge">
<title>REALMDOT&#45;&gt;LABEL</title>
<path fill="none" stroke="#000000" d="M935.6093,-97.9407C926.5654,-102.8932 917.0915,-107.5479 907.8037,-111.2338 886.3553,-119.7458 861.6269,-125.8889 840.2363,-130.1437"/>
<polygon fill="#000000" stroke="#000000" points="839.52,-126.7171 830.3507,-132.0251 840.8288,-133.5937 839.52,-126.7171"/>
<text text-anchor="middle" x="878.2656" y="-131.0338" font-family="Times,serif" font-size="14.00" fill="#000000">0&#45;9A&#45;Za&#45;z</text>
</g>
<!-- qi -->
<g id="node4" class="node">
<title>qi</title>
<ellipse fill="#000000" stroke="#000000" cx="75.6704" cy="-199.2338" rx="1.8" ry="1.8"/>
</g>
<!-- S -->
<g id="node5" class="node">
<title>S</title>
<ellipse fill="none" stroke="#000000" cx="206.3408" cy="-199.2338" rx="18" ry="18"/>
<text text-anchor="middle" x="206.3408" y="-195.0338" font-family="Times,serif" font-size="14.00" fill="#000000">S</text>
</g>
<!-- qi&#45;&gt;S -->
<g id="edge1" class="edge">
<title>qi&#45;&gt;S</title>
<path fill="none" stroke="#000000" d="M77.5176,-199.2338C88.2381,-199.2338 143.1803,-199.2338 177.7609,-199.2338"/>
<polygon fill="#000000" stroke="#000000" points="178.191,-202.7339 188.191,-199.2338 178.1909,-195.7339 178.191,-202.7339"/>
</g>
<!-- S&#45;&gt;USERNAME -->
<g id="edge11" class="edge">
<title>S&#45;&gt;USERNAME</title>
<path fill="none" stroke="#000000" d="M224.5365,-199.2338C242.3023,-199.2338 270.5176,-199.2338 297.4264,-199.2338"/>
<polygon fill="#000000" stroke="#000000" points="297.651,-202.7339 307.651,-199.2338 297.651,-195.7339 297.651,-202.7339"/>
<text text-anchor="middle" x="266.0479" y="-202.0338" font-family="Times,serif" font-size="14.00" fill="#000000">userchar</text>
</g>
<!-- S&#45;&gt;REALMHOST -->
<g id="edge2" class="edge">
<title>S&#45;&gt;REALMHOST</title>
<path fill="none" stroke="#000000" d="M218.0713,-185.0682C235.3991,-165.243 269.8972,-129.796 307.7549,-113.2338 372.8081,-84.774 454.0761,-77.6996 512.0095,-76.8848"/>
<polygon fill="#000000" stroke="#000000" points="512.2125,-80.3834 522.1838,-76.8025 512.1558,-73.3836 512.2125,-80.3834"/>
<text text-anchor="middle" x="370.5051" y="-116.0338" font-family="Times,serif" font-size="14.00" fill="#000000">@</text>
</g>
<!-- S&#45;&gt;USERESC -->
<g id="edge12" class="edge">
<title>S&#45;&gt;USERESC</title>
<path fill="none" stroke="#000000" d="M215.9662,-214.5231C231.8306,-238.2173 265.9174,-283.1627 307.7549,-303.2338 377.6967,-336.7876 468.7462,-338.9899 527.368,-335.8958"/>
<polygon fill="#000000" stroke="#000000" points="527.7914,-339.3769 537.5649,-335.2869 527.374,-332.3893 527.7914,-339.3769"/>
<text text-anchor="middle" x="370.5051" y="-336.0338" font-family="Times,serif" font-size="14.00" fill="#000000">\</text>
</g>
<!-- REALMHOST&#45;&gt;LABEL -->
<g id="edge3" class="edge">
<title>REALMHOST&#45;&gt;LABEL</title>
<path fill="none" stroke="#000000" d="M647.955,-97.2564C676.5539,-105.6167 710.1372,-115.4341 737.2616,-123.3634"/>
<polygon fill="#000000" stroke="#000000" points="736.361,-126.7466 746.9413,-126.1931 738.3251,-120.0278 736.361,-126.7466"/>
<text text-anchor="middle" x="697.9941" y="-122.0338" font-family="Times,serif" font-size="14.00" fill="#000000">0&#45;9A&#45;Za&#45;z</text>
</g>
<!-- REALMHOST&#45;&gt;REALMDOT -->
<g id="edge4" class="edge">
<title>REALMHOST&#45;&gt;REALMDOT</title>
<path fill="none" stroke="#000000" d="M650.6035,-76.3047C679.605,-75.0099 714.2901,-73.4979 745.5322,-72.2338 802.6543,-69.9226 867.3239,-67.5436 915.6551,-65.8124"/>
<polygon fill="#000000" stroke="#000000" points="915.8432,-69.308 925.7118,-65.453 915.5932,-62.3124 915.8432,-69.308"/>
<text text-anchor="middle" x="788.1299" y="-75.0338" font-family="Times,serif" font-size="14.00" fill="#000000">.</text>
</g>
<!-- LABELDASH&#45;&gt;LABEL -->
<g id="edge9" class="edge">
<title>LABELDASH&#45;&gt;LABEL</title>
<path fill="none" stroke="#000000" d="M926.3885,-204.18C901.4346,-201.2517 872.949,-195.6925 848.7275,-185.2338 841.5082,-182.1166 834.3946,-177.936 827.7221,-173.3486"/>
<polygon fill="#000000" stroke="#000000" points="829.6721,-170.4388 819.5315,-167.3698 825.545,-176.0927 829.6721,-170.4388"/>
<text text-anchor="middle" x="878.2656" y="-203.0338" font-family="Times,serif" font-size="14.00" fill="#000000">0&#45;9A&#45;Za&#45;z</text>
</g>
<!-- LABELDASH&#45;&gt;LABELDASH -->
<g id="edge8" class="edge">
<title>LABELDASH&#45;&gt;LABELDASH</title>
<path fill="none" stroke="#000000" d="M969.1376,-266.6891C971.2323,-279.0328 977.8656,-287.9092 989.0375,-287.9092 996.8927,-287.9092 1002.5041,-283.5208 1005.8718,-276.6244"/>
<polygon fill="#000000" stroke="#000000" points="1009.3333,-277.2765 1008.9374,-266.6891 1002.6445,-275.2126 1009.3333,-277.2765"/>
<text text-anchor="middle" x="989.0375" y="-290.7092" font-family="Times,serif" font-size="14.00" fill="#000000">&#45;</text>
</g>
<!-- USERESC&#45;&gt;USERNAME -->
<g id="edge15" class="edge">
<title>USERESC&#45;&gt;USERNAME</title>
<path fill="none" stroke="#000000" d="M549.5505,-297.8937C540.4678,-289.66 530.8511,-280.7328 522.1518,-272.2338 513.8313,-264.105 513.764,-259.7846 504.1518,-253.2338 484.7871,-240.0367 461.707,-229.269 440.2205,-220.9192"/>
<polygon fill="#000000" stroke="#000000" points="441.3955,-217.6217 430.8036,-217.3711 438.9274,-224.1722 441.3955,-217.6217"/>
<text text-anchor="middle" x="477.7035" y="-256.0338" font-family="Times,serif" font-size="14.00" fill="#000000">%x00&#45;FF</text>
</g>
<!-- USERDOT&#45;&gt;USERNAME -->
<g id="edge17" class="edge">
<title>USERDOT&#45;&gt;USERNAME</title>
<path fill="none" stroke="#000000" d="M535.4183,-209.1684C507.9463,-207.5135 473.5563,-205.4418 443.2995,-203.6191"/>
<polygon fill="#000000" stroke="#000000" points="443.4053,-200.1192 433.2129,-203.0114 442.9843,-207.1065 443.4053,-200.1192"/>
<text text-anchor="middle" x="477.7035" y="-210.0338" font-family="Times,serif" font-size="14.00" fill="#000000">userchar</text>
</g>
<!-- userchar -->
<g id="node10" class="node">
<title>userchar</title>
<polygon fill="none" stroke="#000000" points="151.5116,-319.2338 -.1708,-319.2338 -.1708,-219.2338 151.5116,-219.2338 151.5116,-319.2338"/>
<text text-anchor="middle" x="75.6704" y="-294.0338" font-family="Times,serif" font-size="14.00" fill="#000000">userchar </text>
<text text-anchor="middle" x="75.6704" y="-264.0338" font-family="Times,serif" font-size="14.00" fill="#000000">!#$%&amp;&#39;*+&#45;/=?^_`{}|~</text>
<text text-anchor="middle" x="75.6704" y="-250.0338" font-family="Times,serif" font-size="14.00" fill="#000000">%x80&#45;FF</text>
<text text-anchor="middle" x="75.6704" y="-236.0338" font-family="Times,serif" font-size="14.00" fill="#000000">0&#45;9A&#45;Za&#45;z</text>
</g>
</g>
</svg>
