<?xml version="1.0" encoding="UTF-8" standalone="no"?>
<!DOCTYPE svg PUBLIC "-//W3C//DTD SVG 1.1//EN"
 "http://www.w3.org/Graphics/SVG/1.1/DTD/svg11.dtd">
<!-- Generated by graphviz version 2.40.1 (20161225.0304)
 -->
<!-- Title: finite_state_machine Pages: 1 -->
<svg width="1210pt" height="285pt"
 viewBox="0.00 0.00 1209.63 284.95" xmlns="http://www.w3.org/2000/svg" xmlns:xlink="http://www.w3.org/1999/xlink">
<g id="graph0" class="graph" transform="scale(1 1) rotate(0) translate(4 280.9502)">
<title>finite_state_machine</title>
<polygon fill="#ffffff" stroke="transparent" points="-4,4 -4,-280.9502 1205.6324,-280.9502 1205.6324,4 -4,4"/>
<!-- S -->
<g id="node1" class="node">
<title>S</title>
<ellipse fill="none" stroke="#000000" cx="210.3408" cy="-107.9308" rx="18" ry="18"/>
<ellipse fill="none" stroke="#000000" cx="210.3408" cy="-107.9308" rx="22" ry="22"/>
<text text-anchor="middle" x="210.3408" y="-103.7308" font-family="Times,serif" font-size="14.00" fill="#000000">S</text>
</g>
<!-- REALM1 -->
<g id="node4" class="node">
<title>REALM1</title>
<ellipse fill="none" stroke="#000000" cx="571.0826" cy="-202.9308" rx="45.4614" ry="45.4614"/>
<text text-anchor="middle" x="571.0826" y="-198.7308" font-family="Times,serif" font-size="14.00" fill="#000000">REALM1</text>
</g>
<!-- S&#45;&gt;REALM1 -->
<g id="edge2" class="edge">
<title>S&#45;&gt;REALM1</title>
<path fill="none" stroke="#000000" d="M222.7084,-126.3054C240.1565,-150.3851 274.5169,-191.4826 315.7549,-207.9308 381.1375,-234.0094 463.6282,-225.8177 516.8584,-215.833"/>
<polygon fill="#000000" stroke="#000000" points="517.6337,-219.2477 526.7733,-213.8888 516.2867,-212.3785 517.6337,-219.2477"/>
<text text-anchor="middle" x="374.5051" y="-228.7308" font-family="Times,serif" font-size="14.00" fill="#000000">@</text>
</g>
<!-- USERNAME -->
<g id="node8" class="node">
<title>USERNAME</title>
<ellipse fill="none" stroke="#000000" cx="374.5051" cy="-107.9308" rx="58.5015" ry="58.5015"/>
<text text-anchor="middle" x="374.5051" y="-103.7308" font-family="Times,serif" font-size="14.00" fill="#000000">USERNAME</text>
</g>
<!-- S&#45;&gt;USERNAME -->
<g id="edge11" class="edge">
<title>S&#45;&gt;USERNAME</title>
<path fill="none" stroke="#000000" d="M232.4807,-107.9308C251.2557,-107.9308 279.2304,-107.9308 305.3997,-107.9308"/>
<polygon fill="#000000" stroke="#000000" points="305.6999,-111.4309 315.6999,-107.9308 305.6999,-104.4309 305.6999,-111.4309"/>
<text text-anchor="middle" x="274.0479" y="-110.7308" font-family="Times,serif" font-size="14.00" fill="#000000">userchar</text>
</g>
<!-- USERESC -->
<g id="node9" class="node">
<title>USERESC</title>
<ellipse fill="none" stroke="#000000" cx="571.0826" cy="-48.9308" rx="48.8618" ry="48.8618"/>
<text text-anchor="middle" x="571.0826" y="-44.7308" font-family="Times,serif" font-size="14.00" fill="#000000">USERESC</text>
</g>
<!-- S&#45;&gt;USERESC -->
<g id="edge12" class="edge">
<title>S&#45;&gt;USERESC</title>
<path fill="none" stroke="#000000" d="M225.0844,-91.0699C243.8175,-71.0633 278.2531,-38.7994 315.7549,-25.9308 381.4059,-3.403 461.8219,-16.8573 514.6511,-30.8147"/>
<polygon fill="#000000" stroke="#000000" points="513.9414,-34.249 524.5104,-33.5101 515.7874,-27.4968 513.9414,-34.249"/>
<text text-anchor="middle" x="374.5051" y="-28.7308" font-family="Times,serif" font-size="14.00" fill="#000000">\</text>
</g>
<!-- E -->
<g id="node2" class="node">
<title>E</title>
<ellipse fill="none" stroke="#000000" cx="1179.6324" cy="-141.9308" rx="18" ry="18"/>
<ellipse fill="none" stroke="#000000" cx="1179.6324" cy="-141.9308" rx="22" ry="22"/>
<text text-anchor="middle" x="1179.6324" y="-137.7308" font-family="Times,serif" font-size="14.00" fill="#000000">E</text>
</g>
<!-- qi -->
<g id="node3" class="node">
<title>qi</title>
<ellipse fill="#000000" stroke="#000000" cx="75.6704" cy="-107.9308" rx="1.8" ry="1.8"/>
</g>
<!-- qi&#45;&gt;S -->
<g id="edge1" class="edge">
<title>qi&#45;&gt;S</title>
<path fill="none" stroke="#000000" d="M77.5742,-107.9308C88.294,-107.9308 141.9169,-107.9308 177.6501,-107.9308"/>
<polygon fill="#000000" stroke="#000000" points="178.0981,-111.4309 188.098,-107.9308 178.098,-104.4309 178.0981,-111.4309"/>
</g>
<!-- LABEL1 -->
<g id="node5" class="node">
<title>LABEL1</title>
<ellipse fill="none" stroke="#000000" cx="758.109" cy="-201.9308" rx="43.0387" ry="43.0387"/>
<text text-anchor="middle" x="758.109" y="-197.7308" font-family="Times,serif" font-size="14.00" fill="#000000">LABEL1</text>
</g>
<!-- REALM1&#45;&gt;LABEL1 -->
<g id="edge3" class="edge">
<title>REALM1&#45;&gt;LABEL1</title>
<path fill="none" stroke="#000000" d="M616.8344,-202.6862C643.3965,-202.5442 676.9862,-202.3646 704.748,-202.2162"/>
<polygon fill="#000000" stroke="#000000" points="705.0946,-205.7145 715.0757,-202.1609 705.0571,-198.7146 705.0946,-205.7145"/>
<text text-anchor="middle" x="667.5515" y="-205.7308" font-family="Times,serif" font-size="14.00" fill="#000000">0&#45;9A&#45;Za&#45;z</text>
</g>
<!-- LABEL1&#45;&gt;REALM1 -->
<g id="edge5" class="edge">
<title>LABEL1&#45;&gt;REALM1</title>
<path fill="none" stroke="#000000" d="M717.0705,-188.8661C710.452,-187.2331 703.6271,-185.8245 697.0896,-184.9308 671.0755,-181.3748 664.0433,-181.4918 638.0135,-184.9308 633.5997,-185.514 629.0636,-186.3046 624.5328,-187.2305"/>
<polygon fill="#000000" stroke="#000000" points="623.6618,-183.8388 614.672,-189.4455 625.196,-190.6686 623.6618,-183.8388"/>
<text text-anchor="middle" x="667.5515" y="-187.7308" font-family="Times,serif" font-size="14.00" fill="#000000">&#45;</text>
</g>
<!-- LABEL1&#45;&gt;LABEL1 -->
<g id="edge4" class="edge">
<title>LABEL1&#45;&gt;LABEL1</title>
<path fill="none" stroke="#000000" d="M746.1976,-243.2842C746.826,-254.4532 750.7965,-262.9502 758.109,-262.9502 763.0221,-262.9502 766.4265,-259.1145 768.3223,-253.2098"/>
<polygon fill="#000000" stroke="#000000" points="771.7839,-253.7312 770.0204,-243.2842 764.8841,-252.5508 771.7839,-253.7312"/>
<text text-anchor="middle" x="758.109" y="-265.7502" font-family="Times,serif" font-size="14.00" fill="#000000">0&#45;9A&#45;Za&#45;z</text>
</g>
<!-- REALM2 -->
<g id="node6" class="node">
<title>REALM2</title>
<ellipse fill="none" stroke="#000000" cx="888.8229" cy="-201.9308" rx="45.4614" ry="45.4614"/>
<text text-anchor="middle" x="888.8229" y="-197.7308" font-family="Times,serif" font-size="14.00" fill="#000000">REALM2</text>
</g>
<!-- LABEL1&#45;&gt;REALM2 -->
<g id="edge6" class="edge">
<title>LABEL1&#45;&gt;REALM2</title>
<path fill="none" stroke="#000000" d="M801.2719,-201.9308C811.4155,-201.9308 822.3685,-201.9308 832.9796,-201.9308"/>
<polygon fill="#000000" stroke="#000000" points="833.0109,-205.4309 843.0109,-201.9308 833.0108,-198.4309 833.0109,-205.4309"/>
<text text-anchor="middle" x="822.2353" y="-204.7308" font-family="Times,serif" font-size="14.00" fill="#000000">.</text>
</g>
<!-- LABEL2 -->
<g id="node7" class="node">
<title>LABEL2</title>
<ellipse fill="none" stroke="#000000" cx="1072.3991" cy="-196.9308" rx="43.0387" ry="43.0387"/>
<text text-anchor="middle" x="1072.3991" y="-192.7308" font-family="Times,serif" font-size="14.00" fill="#000000">LABEL2</text>
</g>
<!-- REALM2&#45;&gt;LABEL2 -->
<g id="edge7" class="edge">
<title>REALM2&#45;&gt;LABEL2</title>
<path fill="none" stroke="#000000" d="M934.6734,-200.682C960.2682,-199.9849 992.2838,-199.1129 1019.0043,-198.3851"/>
<polygon fill="#000000" stroke="#000000" points="1019.4369,-201.8748 1029.3378,-198.1037 1019.2462,-194.8773 1019.4369,-201.8748"/>
<text text-anchor="middle" x="981.8417" y="-203.7308" font-family="Times,serif" font-size="14.00" fill="#000000">0&#45;9A&#45;Za&#45;z</text>
</g>
<!-- LABEL2&#45;&gt;E -->
<g id="edge10" class="edge">
<title>LABEL2&#45;&gt;E</title>
<path fill="none" stroke="#000000" d="M1110.8099,-177.2299C1124.0274,-170.4507 1138.5889,-162.9821 1150.9008,-156.6673"/>
<polygon fill="#000000" stroke="#000000" points="1152.5171,-159.7719 1159.8177,-152.0938 1149.3225,-153.5433 1152.5171,-159.7719"/>
<text text-anchor="middle" x="1136.5254" y="-167.7308" font-family="Times,serif" font-size="14.00" fill="#000000">ε</text>
</g>
<!-- LABEL2&#45;&gt;REALM2 -->
<g id="edge9" class="edge">
<title>LABEL2&#45;&gt;REALM2</title>
<path fill="none" stroke="#000000" d="M1030.994,-184.5565C1024.484,-183.0523 1017.7883,-181.7571 1011.3798,-180.9308 985.3392,-177.5735 978.2254,-176.7545 952.3036,-180.9308 948.6506,-181.5194 944.923,-182.2869 941.1963,-183.1798"/>
<polygon fill="#000000" stroke="#000000" points="940.1435,-179.8382 931.3845,-185.799 941.949,-186.6014 940.1435,-179.8382"/>
<text text-anchor="middle" x="981.8417" y="-183.7308" font-family="Times,serif" font-size="14.00" fill="#000000">. &#45;</text>
</g>
<!-- LABEL2&#45;&gt;LABEL2 -->
<g id="edge8" class="edge">
<title>LABEL2&#45;&gt;LABEL2</title>
<path fill="none" stroke="#000000" d="M1060.4878,-238.2842C1061.1162,-249.4532 1065.0866,-257.9502 1072.3991,-257.9502 1077.3122,-257.9502 1080.7167,-254.1145 1082.6124,-248.2098"/>
<polygon fill="#000000" stroke="#000000" points="1086.074,-248.7312 1084.3105,-238.2842 1079.1743,-247.5508 1086.074,-248.7312"/>
<text text-anchor="middle" x="1072.3991" y="-260.7502" font-family="Times,serif" font-size="14.00" fill="#000000">0&#45;9A&#45;Za&#45;z</text>
</g>
<!-- USERNAME&#45;&gt;E -->
<g id="edge17" class="edge">
<title>USERNAME&#45;&gt;E</title>
<path fill="none" stroke="#000000" d="M432.868,-116.0882C471.9079,-120.8508 524.4743,-125.9308 571.0826,-125.9308 571.0826,-125.9308 571.0826,-125.9308 1072.3991,-125.9308 1098.119,-125.9308 1126.9326,-130.4891 1148.21,-134.7397"/>
<polygon fill="#000000" stroke="#000000" points="1147.4996,-138.1667 1158.0034,-136.7803 1148.9276,-131.3139 1147.4996,-138.1667"/>
<text text-anchor="middle" x="822.2353" y="-128.7308" font-family="Times,serif" font-size="14.00" fill="#000000">ε</text>
</g>
<!-- USERNAME&#45;&gt;REALM1 -->
<g id="edge16" class="edge">
<title>USERNAME&#45;&gt;REALM1</title>
<path fill="none" stroke="#000000" d="M427.4428,-133.5141C456.4821,-147.5479 492.2859,-164.8507 520.8827,-178.6707"/>
<polygon fill="#000000" stroke="#000000" points="519.3698,-181.8268 529.8964,-183.0268 522.4157,-175.5242 519.3698,-181.8268"/>
<text text-anchor="middle" x="477.7035" y="-172.7308" font-family="Times,serif" font-size="14.00" fill="#000000">@</text>
</g>
<!-- USERNAME&#45;&gt;USERNAME -->
<g id="edge13" class="edge">
<title>USERNAME&#45;&gt;USERNAME</title>
<path fill="none" stroke="#000000" d="M356.309,-163.8123C358.0882,-175.9086 364.1535,-184.681 374.5051,-184.681 381.7835,-184.681 386.9429,-180.3441 389.9833,-173.5642"/>
<polygon fill="#000000" stroke="#000000" points="393.3879,-174.3848 392.7012,-163.8123 386.6449,-172.5055 393.3879,-174.3848"/>
<text text-anchor="middle" x="374.5051" y="-187.481" font-family="Times,serif" font-size="14.00" fill="#000000">userchar .</text>
</g>
<!-- USERNAME&#45;&gt;USERESC -->
<g id="edge14" class="edge">
<title>USERNAME&#45;&gt;USERESC</title>
<path fill="none" stroke="#000000" d="M431.0512,-91.6088C453.7953,-84.978 480.2481,-77.1832 504.1518,-69.9308 507.5168,-68.9099 510.9743,-67.8521 514.4605,-66.7787"/>
<polygon fill="#000000" stroke="#000000" points="515.7908,-70.0308 524.3086,-63.7303 513.7208,-63.3439 515.7908,-70.0308"/>
<text text-anchor="middle" x="477.7035" y="-87.7308" font-family="Times,serif" font-size="14.00" fill="#000000">\</text>
</g>
<!-- USERESC&#45;&gt;USERNAME -->
<g id="edge15" class="edge">
<title>USERESC&#45;&gt;USERNAME</title>
<path fill="none" stroke="#000000" d="M522.4023,-43.6384C500.1651,-42.853 473.8147,-44.2619 451.2553,-51.9308 443.0613,-54.7163 435.0021,-58.7124 427.3667,-63.3058"/>
<polygon fill="#000000" stroke="#000000" points="425.1317,-60.5819 418.6152,-68.9357 428.9189,-66.4689 425.1317,-60.5819"/>
<text text-anchor="middle" x="477.7035" y="-54.7308" font-family="Times,serif" font-size="14.00" fill="#000000">%x00&#45;FF</text>
</g>
<!-- userchar -->
<g id="node10" class="node">
<title>userchar</title>
<polygon fill="none" stroke="#000000" points="151.5116,-227.9308 -.1708,-227.9308 -.1708,-127.9308 151.5116,-127.9308 151.5116,-227.9308"/>
<text text-anchor="middle" x="75.6704" y="-202.7308" font-family="Times,serif" font-size="14.00" fill="#000000">userchar </text>
<text text-anchor="middle" x="75.6704" y="-172.7308" font-family="Times,serif" font-size="14.00" fill="#000000">!#$%&amp;&#39;*+&#45;/=?^_`{}|~</text>
<text text-anchor="middle" x="75.6704" y="-158.7308" font-family="Times,serif" font-size="14.00" fill="#000000">%x80&#45;FF</text>
<text text-anchor="middle" x="75.6704" y="-144.7308" font-family="Times,serif" font-size="14.00" fill="#000000">0&#45;9A&#45;Za&#45;z</text>
</g>
</g>
</svg>
