<?xml version="1.0" encoding="UTF-8" standalone="no"?>
<!DOCTYPE svg PUBLIC "-//W3C//DTD SVG 1.1//EN"
 "http://www.w3.org/Graphics/SVG/1.1/DTD/svg11.dtd">
<!-- Generated by graphviz version 2.40.1 (20161225.0304)
 -->
<!-- Title: finite_state_machine Pages: 1 -->
<svg width="1214pt" height="372pt"
 viewBox="0.00 0.00 1213.54 372.41" xmlns="http://www.w3.org/2000/svg" xmlns:xlink="http://www.w3.org/1999/xlink">
<g id="graph0" class="graph" transform="scale(1 1) rotate(0) translate(4 368.4115)">
<title>finite_state_machine</title>
<polygon fill="#ffffff" stroke="transparent" points="-4,4 -4,-368.4115 1209.5446,-368.4115 1209.5446,4 -4,4"/>
<!-- S -->
<g id="node1" class="node">
<title>S</title>
<ellipse fill="none" stroke="#000000" cx="210.3408" cy="-144.9308" rx="18" ry="18"/>
<ellipse fill="none" stroke="#000000" cx="210.3408" cy="-144.9308" rx="22" ry="22"/>
<text text-anchor="middle" x="210.3408" y="-140.7308" font-family="Times,serif" font-size="14.00" fill="#000000">S</text>
</g>
<!-- REALM1 -->
<g id="node4" class="node">
<title>REALM1</title>
<ellipse fill="none" stroke="#000000" cx="573.0387" cy="-318.9308" rx="45.4614" ry="45.4614"/>
<text text-anchor="middle" x="573.0387" y="-314.7308" font-family="Times,serif" font-size="14.00" fill="#000000">REALM1</text>
</g>
<!-- S&#45;&gt;REALM1 -->
<g id="edge2" class="edge">
<title>S&#45;&gt;REALM1</title>
<path fill="none" stroke="#000000" d="M224.1312,-162.4303C242.648,-184.7725 277.6542,-223.1384 315.7549,-244.9308 379.8096,-281.5682 463.3719,-301.2243 517.6077,-310.8703"/>
<polygon fill="#000000" stroke="#000000" points="517.2663,-314.363 527.7155,-312.6125 518.4553,-307.4647 517.2663,-314.363"/>
<text text-anchor="middle" x="374.5051" y="-293.7308" font-family="Times,serif" font-size="14.00" fill="#000000">@</text>
</g>
<!-- USERNAME -->
<g id="node8" class="node">
<title>USERNAME</title>
<ellipse fill="none" stroke="#000000" cx="374.5051" cy="-144.9308" rx="58.5015" ry="58.5015"/>
<text text-anchor="middle" x="374.5051" y="-140.7308" font-family="Times,serif" font-size="14.00" fill="#000000">USERNAME</text>
</g>
<!-- S&#45;&gt;USERNAME -->
<g id="edge11" class="edge">
<title>S&#45;&gt;USERNAME</title>
<path fill="none" stroke="#000000" d="M232.4807,-144.9308C251.2557,-144.9308 279.2304,-144.9308 305.3997,-144.9308"/>
<polygon fill="#000000" stroke="#000000" points="305.6999,-148.4309 315.6999,-144.9308 305.6999,-141.4309 305.6999,-148.4309"/>
<text text-anchor="middle" x="274.0479" y="-147.7308" font-family="Times,serif" font-size="14.00" fill="#000000">userchar</text>
</g>
<!-- USERESC -->
<g id="node9" class="node">
<title>USERESC</title>
<ellipse fill="none" stroke="#000000" cx="573.0387" cy="-48.9308" rx="48.8618" ry="48.8618"/>
<text text-anchor="middle" x="573.0387" y="-44.7308" font-family="Times,serif" font-size="14.00" fill="#000000">USERESC</text>
</g>
<!-- S&#45;&gt;USERESC -->
<g id="edge12" class="edge">
<title>S&#45;&gt;USERESC</title>
<path fill="none" stroke="#000000" d="M225.7846,-128.6743C244.9545,-109.5851 279.5651,-78.5498 315.7549,-62.9308 379.4198,-35.4541 460.3158,-36.1191 514.2338,-40.9199"/>
<polygon fill="#000000" stroke="#000000" points="514.0205,-44.4155 524.3107,-41.8932 514.6935,-37.4479 514.0205,-44.4155"/>
<text text-anchor="middle" x="374.5051" y="-65.7308" font-family="Times,serif" font-size="14.00" fill="#000000">\</text>
</g>
<!-- E -->
<g id="node2" class="node">
<title>E</title>
<ellipse fill="none" stroke="#000000" cx="1183.5446" cy="-141.9308" rx="18" ry="18"/>
<ellipse fill="none" stroke="#000000" cx="1183.5446" cy="-141.9308" rx="22" ry="22"/>
<text text-anchor="middle" x="1183.5446" y="-137.7308" font-family="Times,serif" font-size="14.00" fill="#000000">E</text>
</g>
<!-- qi -->
<g id="node3" class="node">
<title>qi</title>
<ellipse fill="#000000" stroke="#000000" cx="75.6704" cy="-144.9308" rx="1.8" ry="1.8"/>
</g>
<!-- qi&#45;&gt;S -->
<g id="edge1" class="edge">
<title>qi&#45;&gt;S</title>
<path fill="none" stroke="#000000" d="M77.5742,-144.9308C88.294,-144.9308 141.9169,-144.9308 177.6501,-144.9308"/>
<polygon fill="#000000" stroke="#000000" points="178.0981,-148.4309 188.098,-144.9308 178.098,-141.4309 178.0981,-148.4309"/>
</g>
<!-- LABEL1 -->
<g id="node5" class="node">
<title>LABEL1</title>
<ellipse fill="none" stroke="#000000" cx="762.0212" cy="-281.9308" rx="43.0387" ry="43.0387"/>
<text text-anchor="middle" x="762.0212" y="-277.7308" font-family="Times,serif" font-size="14.00" fill="#000000">LABEL1</text>
</g>
<!-- REALM1&#45;&gt;LABEL1 -->
<g id="edge3" class="edge">
<title>REALM1&#45;&gt;LABEL1</title>
<path fill="none" stroke="#000000" d="M611.8272,-294.6224C621.3305,-289.8224 631.7144,-285.4833 641.9257,-282.9308 663.4814,-277.5427 687.9008,-276.467 709.0648,-277.0472"/>
<polygon fill="#000000" stroke="#000000" points="709.0335,-280.5487 719.166,-277.4534 709.3148,-273.5544 709.0335,-280.5487"/>
<text text-anchor="middle" x="671.4637" y="-285.7308" font-family="Times,serif" font-size="14.00" fill="#000000">0&#45;9A&#45;Za&#45;z</text>
</g>
<!-- LABEL1&#45;&gt;REALM1 -->
<g id="edge5" class="edge">
<title>LABEL1&#45;&gt;REALM1</title>
<path fill="none" stroke="#000000" d="M720.0947,-292.6511C713.7152,-294.1622 707.1957,-295.6388 701.0018,-296.9308 677.2732,-301.8807 650.9013,-306.5538 628.2933,-310.3094"/>
<polygon fill="#000000" stroke="#000000" points="627.4942,-306.8936 618.1937,-311.9681 628.6287,-313.8011 627.4942,-306.8936"/>
<text text-anchor="middle" x="671.4637" y="-309.7308" font-family="Times,serif" font-size="14.00" fill="#000000">&#45;</text>
</g>
<!-- LABEL1&#45;&gt;LABEL1 -->
<g id="edge4" class="edge">
<title>LABEL1&#45;&gt;LABEL1</title>
<path fill="none" stroke="#000000" d="M750.1098,-323.2842C750.7382,-334.4532 754.7087,-342.9502 762.0212,-342.9502 766.9343,-342.9502 770.3387,-339.1145 772.2345,-333.2098"/>
<polygon fill="#000000" stroke="#000000" points="775.6961,-333.7312 773.9326,-323.2842 768.7963,-332.5508 775.6961,-333.7312"/>
<text text-anchor="middle" x="762.0212" y="-345.7502" font-family="Times,serif" font-size="14.00" fill="#000000">0&#45;9A&#45;Za&#45;z</text>
</g>
<!-- REALM2 -->
<g id="node6" class="node">
<title>REALM2</title>
<ellipse fill="none" stroke="#000000" cx="892.7351" cy="-249.9308" rx="45.4614" ry="45.4614"/>
<text text-anchor="middle" x="892.7351" y="-245.7308" font-family="Times,serif" font-size="14.00" fill="#000000">REALM2</text>
</g>
<!-- LABEL1&#45;&gt;REALM2 -->
<g id="edge6" class="edge">
<title>LABEL1&#45;&gt;REALM2</title>
<path fill="none" stroke="#000000" d="M804.0994,-271.6297C815.0669,-268.9448 827.0404,-266.0135 838.5389,-263.1986"/>
<polygon fill="#000000" stroke="#000000" points="839.6033,-266.5414 848.4842,-260.7639 837.9387,-259.7422 839.6033,-266.5414"/>
<text text-anchor="middle" x="826.1475" y="-269.7308" font-family="Times,serif" font-size="14.00" fill="#000000">.</text>
</g>
<!-- LABEL2 -->
<g id="node7" class="node">
<title>LABEL2</title>
<ellipse fill="none" stroke="#000000" cx="1076.3113" cy="-212.9308" rx="43.0387" ry="43.0387"/>
<text text-anchor="middle" x="1076.3113" y="-208.7308" font-family="Times,serif" font-size="14.00" fill="#000000">LABEL2</text>
</g>
<!-- REALM2&#45;&gt;LABEL2 -->
<g id="edge7" class="edge">
<title>REALM2&#45;&gt;LABEL2</title>
<path fill="none" stroke="#000000" d="M930.6636,-224.3539C938.7755,-220.0688 947.5275,-216.2617 956.2158,-213.9308 977.6759,-208.1737 1002.0793,-207.0362 1023.2572,-207.6699"/>
<polygon fill="#000000" stroke="#000000" points="1023.2244,-211.1717 1033.3674,-208.1109 1023.5295,-204.1784 1023.2244,-211.1717"/>
<text text-anchor="middle" x="985.7539" y="-216.7308" font-family="Times,serif" font-size="14.00" fill="#000000">0&#45;9A&#45;Za&#45;z</text>
</g>
<!-- LABEL2&#45;&gt;E -->
<g id="edge10" class="edge">
<title>LABEL2&#45;&gt;E</title>
<path fill="none" stroke="#000000" d="M1112.3168,-189.0914C1126.6532,-179.5991 1142.8795,-168.8555 1156.2199,-160.0227"/>
<polygon fill="#000000" stroke="#000000" points="1158.53,-162.6909 1164.9358,-154.2519 1154.6656,-156.8542 1158.53,-162.6909"/>
<text text-anchor="middle" x="1140.4376" y="-174.7308" font-family="Times,serif" font-size="14.00" fill="#000000">ε</text>
</g>
<!-- LABEL2&#45;&gt;REALM2 -->
<g id="edge9" class="edge">
<title>LABEL2&#45;&gt;REALM2</title>
<path fill="none" stroke="#000000" d="M1034.3763,-223.6102C1027.9979,-225.127 1021.4811,-226.616 1015.292,-227.9308 993.304,-232.602 968.958,-237.1082 947.7974,-240.8127"/>
<polygon fill="#000000" stroke="#000000" points="946.9452,-237.4082 937.6896,-242.5641 948.1403,-244.3054 946.9452,-237.4082"/>
<text text-anchor="middle" x="985.7539" y="-242.7308" font-family="Times,serif" font-size="14.00" fill="#000000">. &#45;</text>
</g>
<!-- LABEL2&#45;&gt;LABEL2 -->
<g id="edge8" class="edge">
<title>LABEL2&#45;&gt;LABEL2</title>
<path fill="none" stroke="#000000" d="M1064.4,-254.2842C1065.0284,-265.4532 1068.9988,-273.9502 1076.3113,-273.9502 1081.2244,-273.9502 1084.6289,-270.1145 1086.5246,-264.2098"/>
<polygon fill="#000000" stroke="#000000" points="1089.9862,-264.7312 1088.2227,-254.2842 1083.0865,-263.5508 1089.9862,-264.7312"/>
<text text-anchor="middle" x="1076.3113" y="-276.7502" font-family="Times,serif" font-size="14.00" fill="#000000">0&#45;9A&#45;Za&#45;z</text>
</g>
<!-- USERNAME&#45;&gt;E -->
<g id="edge19" class="edge">
<title>USERNAME&#45;&gt;E</title>
<path fill="none" stroke="#000000" d="M433.0026,-136.3757C472.4698,-131.3327 525.7754,-125.9308 573.0387,-125.9308 573.0387,-125.9308 573.0387,-125.9308 1076.3113,-125.9308 1102.0312,-125.9308 1130.8448,-130.4891 1152.1222,-134.7397"/>
<polygon fill="#000000" stroke="#000000" points="1151.4118,-138.1667 1161.9156,-136.7803 1152.8398,-131.3139 1151.4118,-138.1667"/>
<text text-anchor="middle" x="826.1475" y="-128.7308" font-family="Times,serif" font-size="14.00" fill="#000000">ε</text>
</g>
<!-- USERNAME&#45;&gt;REALM1 -->
<g id="edge18" class="edge">
<title>USERNAME&#45;&gt;REALM1</title>
<path fill="none" stroke="#000000" d="M419.0599,-183.9798C452.6111,-213.385 498.289,-253.4183 531.1687,-282.2349"/>
<polygon fill="#000000" stroke="#000000" points="528.9895,-284.979 538.8169,-288.938 533.6033,-279.7146 528.9895,-284.979"/>
<text text-anchor="middle" x="477.7035" y="-260.7308" font-family="Times,serif" font-size="14.00" fill="#000000">@</text>
</g>
<!-- USERNAME&#45;&gt;USERNAME -->
<g id="edge13" class="edge">
<title>USERNAME&#45;&gt;USERNAME</title>
<path fill="none" stroke="#000000" d="M356.309,-200.8123C358.0882,-212.9086 364.1535,-221.681 374.5051,-221.681 381.7835,-221.681 386.9429,-217.3441 389.9833,-210.5642"/>
<polygon fill="#000000" stroke="#000000" points="393.3879,-211.3848 392.7012,-200.8123 386.6449,-209.5055 393.3879,-211.3848"/>
<text text-anchor="middle" x="374.5051" y="-224.481" font-family="Times,serif" font-size="14.00" fill="#000000">userchar</text>
</g>
<!-- USERNAME&#45;&gt;USERESC -->
<g id="edge14" class="edge">
<title>USERNAME&#45;&gt;USERESC</title>
<path fill="none" stroke="#000000" d="M424.1878,-112.8566C433.0582,-107.6079 442.3218,-102.4239 451.2553,-97.9308 463.6312,-91.7064 491.7169,-80.3435 517.8007,-70.1262"/>
<polygon fill="#000000" stroke="#000000" points="519.243,-73.3205 527.2871,-66.4254 516.6989,-66.7992 519.243,-73.3205"/>
<text text-anchor="middle" x="477.7035" y="-100.7308" font-family="Times,serif" font-size="14.00" fill="#000000">\</text>
</g>
<!-- USERDOT -->
<g id="node10" class="node">
<title>USERDOT</title>
<ellipse fill="none" stroke="#000000" cx="573.0387" cy="-204.9308" rx="50.7741" ry="50.7741"/>
<text text-anchor="middle" x="573.0387" y="-200.7308" font-family="Times,serif" font-size="14.00" fill="#000000">USERDOT</text>
</g>
<!-- USERNAME&#45;&gt;USERDOT -->
<g id="edge16" class="edge">
<title>USERNAME&#45;&gt;USERDOT</title>
<path fill="none" stroke="#000000" d="M427.5672,-170.9845C435.3996,-174.284 443.4581,-177.3888 451.2553,-179.9308 470.9167,-186.341 492.9199,-191.4549 512.7577,-195.3448"/>
<polygon fill="#000000" stroke="#000000" points="512.1284,-198.7878 522.6054,-197.212 513.4325,-191.9103 512.1284,-198.7878"/>
<text text-anchor="middle" x="477.7035" y="-196.7308" font-family="Times,serif" font-size="14.00" fill="#000000">.</text>
</g>
<!-- USERESC&#45;&gt;USERNAME -->
<g id="edge15" class="edge">
<title>USERESC&#45;&gt;USERNAME</title>
<path fill="none" stroke="#000000" d="M524.264,-44.7874C501.0541,-44.8008 473.5681,-47.819 451.2553,-58.9308 437.2955,-65.8829 424.7226,-76.5717 413.9858,-88.0781"/>
<polygon fill="#000000" stroke="#000000" points="411.2184,-85.9235 407.1992,-95.7264 416.4543,-90.5695 411.2184,-85.9235"/>
<text text-anchor="middle" x="477.7035" y="-61.7308" font-family="Times,serif" font-size="14.00" fill="#000000">%x00&#45;FF</text>
</g>
<!-- USERDOT&#45;&gt;USERNAME -->
<g id="edge17" class="edge">
<title>USERDOT&#45;&gt;USERNAME</title>
<path fill="none" stroke="#000000" d="M531.4989,-175.0917C522.8017,-169.9851 513.4417,-165.2611 504.1518,-161.9308 485.0484,-155.0827 463.4774,-150.9444 443.4917,-148.4583"/>
<polygon fill="#000000" stroke="#000000" points="443.8462,-144.9762 433.5172,-147.3346 443.0625,-151.9322 443.8462,-144.9762"/>
<text text-anchor="middle" x="477.7035" y="-164.7308" font-family="Times,serif" font-size="14.00" fill="#000000">userchar</text>
</g>
<!-- userchar -->
<g id="node11" class="node">
<title>userchar</title>
<polygon fill="none" stroke="#000000" points="151.5116,-264.9308 -.1708,-264.9308 -.1708,-164.9308 151.5116,-164.9308 151.5116,-264.9308"/>
<text text-anchor="middle" x="75.6704" y="-239.7308" font-family="Times,serif" font-size="14.00" fill="#000000">userchar </text>
<text text-anchor="middle" x="75.6704" y="-209.7308" font-family="Times,serif" font-size="14.00" fill="#000000">!#$%&amp;&#39;*+&#45;/=?^_`{}|~</text>
<text text-anchor="middle" x="75.6704" y="-195.7308" font-family="Times,serif" font-size="14.00" fill="#000000">%x80&#45;FF</text>
<text text-anchor="middle" x="75.6704" y="-181.7308" font-family="Times,serif" font-size="14.00" fill="#000000">0&#45;9A&#45;Za&#45;z</text>
</g>
</g>
</svg>
