<?xml version="1.0" encoding="UTF-8" standalone="no"?>
<!DOCTYPE svg PUBLIC "-//W3C//DTD SVG 1.1//EN"
 "http://www.w3.org/Graphics/SVG/1.1/DTD/svg11.dtd">
<!-- Generated by graphviz version 2.40.1 (20161225.0304)
 -->
<!-- Title: finite_state_machine Pages: 1 -->
<svg width="1577pt" height="343pt"
 viewBox="0.00 0.00 1576.78 342.95" xmlns="http://www.w3.org/2000/svg" xmlns:xlink="http://www.w3.org/1999/xlink">
<g id="graph0" class="graph" transform="scale(1 1) rotate(0) translate(4 338.9502)">
<title>finite_state_machine</title>
<polygon fill="#ffffff" stroke="transparent" points="-4,4 -4,-338.9502 1572.7848,-338.9502 1572.7848,4 -4,4"/>
<!-- S -->
<g id="node1" class="node">
<title>S</title>
<ellipse fill="none" stroke="#000000" cx="210.3408" cy="-105.9308" rx="18" ry="18"/>
<ellipse fill="none" stroke="#000000" cx="210.3408" cy="-105.9308" rx="22" ry="22"/>
<text text-anchor="middle" x="210.3408" y="-101.7308" font-family="Times,serif" font-size="14.00" fill="#000000">S</text>
</g>
<!-- REALM1 -->
<g id="node4" class="node">
<title>REALM1</title>
<ellipse fill="none" stroke="#000000" cx="571.0826" cy="-201.9308" rx="45.4614" ry="45.4614"/>
<text text-anchor="middle" x="571.0826" y="-197.7308" font-family="Times,serif" font-size="14.00" fill="#000000">REALM1</text>
</g>
<!-- S&#45;&gt;REALM1 -->
<g id="edge2" class="edge">
<title>S&#45;&gt;REALM1</title>
<path fill="none" stroke="#000000" d="M222.7084,-124.3054C240.1565,-148.3851 274.5169,-189.4826 315.7549,-205.9308 381.133,-232.0076 463.6247,-224.2009 516.8565,-214.509"/>
<polygon fill="#000000" stroke="#000000" points="517.6033,-217.9298 526.7717,-212.6202 516.2933,-211.0534 517.6033,-217.9298"/>
<text text-anchor="middle" x="374.5051" y="-225.7308" font-family="Times,serif" font-size="14.00" fill="#000000">@</text>
</g>
<!-- USERNAME -->
<g id="node10" class="node">
<title>USERNAME</title>
<ellipse fill="none" stroke="#000000" cx="374.5051" cy="-105.9308" rx="58.5015" ry="58.5015"/>
<text text-anchor="middle" x="374.5051" y="-101.7308" font-family="Times,serif" font-size="14.00" fill="#000000">USERNAME</text>
</g>
<!-- S&#45;&gt;USERNAME -->
<g id="edge12" class="edge">
<title>S&#45;&gt;USERNAME</title>
<path fill="none" stroke="#000000" d="M232.4807,-105.9308C251.2557,-105.9308 279.2304,-105.9308 305.3997,-105.9308"/>
<polygon fill="#000000" stroke="#000000" points="305.6999,-109.4309 315.6999,-105.9308 305.6999,-102.4309 305.6999,-109.4309"/>
<text text-anchor="middle" x="274.0479" y="-108.7308" font-family="Times,serif" font-size="14.00" fill="#000000">userchar</text>
</g>
<!-- USERESC -->
<g id="node11" class="node">
<title>USERESC</title>
<ellipse fill="none" stroke="#000000" cx="571.0826" cy="-48.9308" rx="48.8618" ry="48.8618"/>
<text text-anchor="middle" x="571.0826" y="-44.7308" font-family="Times,serif" font-size="14.00" fill="#000000">USERESC</text>
</g>
<!-- S&#45;&gt;USERESC -->
<g id="edge13" class="edge">
<title>S&#45;&gt;USERESC</title>
<path fill="none" stroke="#000000" d="M225.0844,-89.0699C243.8175,-69.0633 278.2531,-36.7994 315.7549,-23.9308 381.4538,-1.3866 461.8594,-15.5866 514.6731,-30.1295"/>
<polygon fill="#000000" stroke="#000000" points="513.9531,-33.5635 524.5293,-32.9358 515.8701,-26.8311 513.9531,-33.5635"/>
<text text-anchor="middle" x="374.5051" y="-26.7308" font-family="Times,serif" font-size="14.00" fill="#000000">\</text>
</g>
<!-- E -->
<g id="node2" class="node">
<title>E</title>
<ellipse fill="none" stroke="#000000" cx="1546.7848" cy="-141.9308" rx="18" ry="18"/>
<ellipse fill="none" stroke="#000000" cx="1546.7848" cy="-141.9308" rx="22" ry="22"/>
<text text-anchor="middle" x="1546.7848" y="-137.7308" font-family="Times,serif" font-size="14.00" fill="#000000">E</text>
</g>
<!-- qi -->
<g id="node3" class="node">
<title>qi</title>
<ellipse fill="#000000" stroke="#000000" cx="75.6704" cy="-105.9308" rx="1.8" ry="1.8"/>
</g>
<!-- qi&#45;&gt;S -->
<g id="edge1" class="edge">
<title>qi&#45;&gt;S</title>
<path fill="none" stroke="#000000" d="M77.5742,-105.9308C88.294,-105.9308 141.9169,-105.9308 177.6501,-105.9308"/>
<polygon fill="#000000" stroke="#000000" points="178.0981,-109.4309 188.098,-105.9308 178.098,-102.4309 178.0981,-109.4309"/>
</g>
<!-- LABEL1 -->
<g id="node5" class="node">
<title>LABEL1</title>
<ellipse fill="none" stroke="#000000" cx="758.109" cy="-201.9308" rx="43.0387" ry="43.0387"/>
<text text-anchor="middle" x="758.109" y="-197.7308" font-family="Times,serif" font-size="14.00" fill="#000000">LABEL1</text>
</g>
<!-- REALM1&#45;&gt;LABEL1 -->
<g id="edge3" class="edge">
<title>REALM1&#45;&gt;LABEL1</title>
<path fill="none" stroke="#000000" d="M616.8344,-201.9308C643.3965,-201.9308 676.9862,-201.9308 704.748,-201.9308"/>
<polygon fill="#000000" stroke="#000000" points="705.0758,-205.4309 715.0757,-201.9308 705.0757,-198.4309 705.0758,-205.4309"/>
<text text-anchor="middle" x="667.5515" y="-204.7308" font-family="Times,serif" font-size="14.00" fill="#000000">0&#45;9A&#45;Za&#45;z</text>
</g>
<!-- LABEL1&#45;&gt;LABEL1 -->
<g id="edge4" class="edge">
<title>LABEL1&#45;&gt;LABEL1</title>
<path fill="none" stroke="#000000" d="M741.2597,-241.5456C741.682,-253.5593 747.2985,-262.9502 758.109,-262.9502 765.5413,-262.9502 770.5185,-258.5115 773.0406,-251.8335"/>
<polygon fill="#000000" stroke="#000000" points="776.5665,-252.0176 774.9583,-241.5456 769.685,-250.7349 776.5665,-252.0176"/>
<text text-anchor="middle" x="758.109" y="-265.7502" font-family="Times,serif" font-size="14.00" fill="#000000">0&#45;9A&#45;Za&#45;z&#45;</text>
</g>
<!-- LABEL2 -->
<g id="node6" class="node">
<title>LABEL2</title>
<ellipse fill="none" stroke="#000000" cx="939.2239" cy="-201.9308" rx="43.0387" ry="43.0387"/>
<text text-anchor="middle" x="939.2239" y="-197.7308" font-family="Times,serif" font-size="14.00" fill="#000000">LABEL2</text>
</g>
<!-- LABEL1&#45;&gt;LABEL2 -->
<g id="edge5" class="edge">
<title>LABEL1&#45;&gt;LABEL2</title>
<path fill="none" stroke="#000000" d="M801.4905,-201.9308C826.9166,-201.9308 859.2267,-201.9308 886.1619,-201.9308"/>
<polygon fill="#000000" stroke="#000000" points="886.1964,-205.4309 896.1964,-201.9308 886.1963,-198.4309 886.1964,-205.4309"/>
<text text-anchor="middle" x="848.6665" y="-204.7308" font-family="Times,serif" font-size="14.00" fill="#000000">0&#45;9A&#45;Za&#45;z</text>
</g>
<!-- REALM2 -->
<g id="node7" class="node">
<title>REALM2</title>
<ellipse fill="none" stroke="#000000" cx="1069.9378" cy="-201.9308" rx="45.4614" ry="45.4614"/>
<text text-anchor="middle" x="1069.9378" y="-197.7308" font-family="Times,serif" font-size="14.00" fill="#000000">REALM2</text>
</g>
<!-- LABEL2&#45;&gt;REALM2 -->
<g id="edge6" class="edge">
<title>LABEL2&#45;&gt;REALM2</title>
<path fill="none" stroke="#000000" d="M982.3868,-201.9308C992.5304,-201.9308 1003.4834,-201.9308 1014.0945,-201.9308"/>
<polygon fill="#000000" stroke="#000000" points="1014.1258,-205.4309 1024.1258,-201.9308 1014.1257,-198.4309 1014.1258,-205.4309"/>
<text text-anchor="middle" x="1003.3502" y="-204.7308" font-family="Times,serif" font-size="14.00" fill="#000000">.</text>
</g>
<!-- LABEL3 -->
<g id="node8" class="node">
<title>LABEL3</title>
<ellipse fill="none" stroke="#000000" cx="1253.514" cy="-259.9308" rx="43.0387" ry="43.0387"/>
<text text-anchor="middle" x="1253.514" y="-255.7308" font-family="Times,serif" font-size="14.00" fill="#000000">LABEL3</text>
</g>
<!-- REALM2&#45;&gt;LABEL3 -->
<g id="edge7" class="edge">
<title>REALM2&#45;&gt;LABEL3</title>
<path fill="none" stroke="#000000" d="M1113.4428,-215.676C1140.189,-224.1264 1174.5815,-234.9925 1202.5933,-243.8427"/>
<polygon fill="#000000" stroke="#000000" points="1201.6224,-247.2064 1212.2123,-246.8818 1203.7313,-240.5316 1201.6224,-247.2064"/>
<text text-anchor="middle" x="1162.9566" y="-241.7308" font-family="Times,serif" font-size="14.00" fill="#000000">0&#45;9A&#45;Za&#45;z</text>
</g>
<!-- LABEL3&#45;&gt;LABEL3 -->
<g id="edge8" class="edge">
<title>LABEL3&#45;&gt;LABEL3</title>
<path fill="none" stroke="#000000" d="M1236.6648,-299.5456C1237.0871,-311.5593 1242.7035,-320.9502 1253.514,-320.9502 1260.9463,-320.9502 1265.9235,-316.5115 1268.4457,-309.8335"/>
<polygon fill="#000000" stroke="#000000" points="1271.9716,-310.0176 1270.3633,-299.5456 1265.0901,-308.7349 1271.9716,-310.0176"/>
<text text-anchor="middle" x="1253.514" y="-323.7502" font-family="Times,serif" font-size="14.00" fill="#000000">0&#45;9A&#45;Za&#45;z&#45;</text>
</g>
<!-- REALM3 -->
<g id="node9" class="node">
<title>REALM3</title>
<ellipse fill="none" stroke="#000000" cx="1437.0903" cy="-198.9308" rx="45.4614" ry="45.4614"/>
<text text-anchor="middle" x="1437.0903" y="-194.7308" font-family="Times,serif" font-size="14.00" fill="#000000">REALM3</text>
</g>
<!-- LABEL3&#45;&gt;REALM3 -->
<g id="edge9" class="edge">
<title>LABEL3&#45;&gt;REALM3</title>
<path fill="none" stroke="#000000" d="M1294.7121,-246.2413C1321.095,-237.4746 1355.5873,-226.0132 1384.0144,-216.5673"/>
<polygon fill="#000000" stroke="#000000" points="1385.4071,-219.7927 1393.7932,-213.3179 1383.1997,-213.1499 1385.4071,-219.7927"/>
<text text-anchor="middle" x="1344.0715" y="-240.7308" font-family="Times,serif" font-size="14.00" fill="#000000">0&#45;9A&#45;Za&#45;z</text>
</g>
<!-- REALM3&#45;&gt;E -->
<g id="edge11" class="edge">
<title>REALM3&#45;&gt;E</title>
<path fill="none" stroke="#000000" d="M1477.6248,-177.8681C1491.0478,-170.8932 1505.7006,-163.2792 1518.0496,-156.8624"/>
<polygon fill="#000000" stroke="#000000" points="1519.7258,-159.9358 1526.9855,-152.2191 1516.4981,-153.7243 1519.7258,-159.9358"/>
<text text-anchor="middle" x="1503.6779" y="-168.7308" font-family="Times,serif" font-size="14.00" fill="#000000">ε</text>
</g>
<!-- REALM3&#45;&gt;REALM2 -->
<g id="edge10" class="edge">
<title>REALM3&#45;&gt;REALM2</title>
<path fill="none" stroke="#000000" d="M1391.5144,-196.5746C1345.7536,-194.5269 1273.2311,-192.1469 1210.4947,-193.9308 1182.4553,-194.7282 1151.3077,-196.4184 1125.4739,-198.0407"/>
<polygon fill="#000000" stroke="#000000" points="1125.2424,-194.5483 1115.4868,-198.6809 1125.6902,-201.5339 1125.2424,-194.5483"/>
<text text-anchor="middle" x="1253.514" y="-196.7308" font-family="Times,serif" font-size="14.00" fill="#000000">.</text>
</g>
<!-- USERNAME&#45;&gt;E -->
<g id="edge18" class="edge">
<title>USERNAME&#45;&gt;E</title>
<path fill="none" stroke="#000000" d="M432.8381,-114.9946C471.8653,-120.2863 524.4289,-125.9308 571.0826,-125.9308 571.0826,-125.9308 571.0826,-125.9308 1437.0903,-125.9308 1463.5531,-125.9308 1493.2345,-130.5466 1515.0428,-134.8198"/>
<polygon fill="#000000" stroke="#000000" points="1514.5693,-138.2953 1525.0676,-136.8683 1515.9708,-131.4371 1514.5693,-138.2953"/>
<text text-anchor="middle" x="1003.3502" y="-128.7308" font-family="Times,serif" font-size="14.00" fill="#000000">ε</text>
</g>
<!-- USERNAME&#45;&gt;REALM1 -->
<g id="edge17" class="edge">
<title>USERNAME&#45;&gt;REALM1</title>
<path fill="none" stroke="#000000" d="M427.4428,-131.7834C456.5847,-146.015 492.539,-163.5735 521.1856,-177.5633"/>
<polygon fill="#000000" stroke="#000000" points="519.6901,-180.728 530.2117,-181.9713 522.7619,-174.438 519.6901,-180.728"/>
<text text-anchor="middle" x="477.7035" y="-171.7308" font-family="Times,serif" font-size="14.00" fill="#000000">@</text>
</g>
<!-- USERNAME&#45;&gt;USERNAME -->
<g id="edge14" class="edge">
<title>USERNAME&#45;&gt;USERNAME</title>
<path fill="none" stroke="#000000" d="M356.309,-161.8123C358.0882,-173.9086 364.1535,-182.681 374.5051,-182.681 381.7835,-182.681 386.9429,-178.3441 389.9833,-171.5642"/>
<polygon fill="#000000" stroke="#000000" points="393.3879,-172.3848 392.7012,-161.8123 386.6449,-170.5055 393.3879,-172.3848"/>
<text text-anchor="middle" x="374.5051" y="-185.481" font-family="Times,serif" font-size="14.00" fill="#000000">userchar .</text>
</g>
<!-- USERNAME&#45;&gt;USERESC -->
<g id="edge15" class="edge">
<title>USERNAME&#45;&gt;USERESC</title>
<path fill="none" stroke="#000000" d="M431.4191,-90.5661C454.0975,-84.3293 480.4063,-76.9507 504.1518,-69.9308 507.524,-68.9339 510.9871,-67.8947 514.4775,-66.8354"/>
<polygon fill="#000000" stroke="#000000" points="515.7981,-70.0915 524.3342,-63.8156 513.7475,-63.3986 515.7981,-70.0915"/>
<text text-anchor="middle" x="477.7035" y="-87.7308" font-family="Times,serif" font-size="14.00" fill="#000000">\</text>
</g>
<!-- USERESC&#45;&gt;USERNAME -->
<g id="edge16" class="edge">
<title>USERESC&#45;&gt;USERNAME</title>
<path fill="none" stroke="#000000" d="M522.1707,-43.8069C500.007,-43.0802 473.7811,-44.4891 451.2553,-51.9308 443.3608,-54.5389 435.5639,-58.253 428.1394,-62.5285"/>
<polygon fill="#000000" stroke="#000000" points="426.2961,-59.5531 419.6111,-67.7728 429.9628,-65.5159 426.2961,-59.5531"/>
<text text-anchor="middle" x="477.7035" y="-54.7308" font-family="Times,serif" font-size="14.00" fill="#000000">%x00&#45;FF</text>
</g>
<!-- userchar -->
<g id="node12" class="node">
<title>userchar</title>
<polygon fill="none" stroke="#000000" points="151.5116,-225.9308 -.1708,-225.9308 -.1708,-125.9308 151.5116,-125.9308 151.5116,-225.9308"/>
<text text-anchor="middle" x="75.6704" y="-200.7308" font-family="Times,serif" font-size="14.00" fill="#000000">userchar </text>
<text text-anchor="middle" x="75.6704" y="-170.7308" font-family="Times,serif" font-size="14.00" fill="#000000">!#$%&amp;&#39;*+&#45;/=?^_`{}|~</text>
<text text-anchor="middle" x="75.6704" y="-156.7308" font-family="Times,serif" font-size="14.00" fill="#000000">%x80&#45;FF</text>
<text text-anchor="middle" x="75.6704" y="-142.7308" font-family="Times,serif" font-size="14.00" fill="#000000">0&#45;9A&#45;Za&#45;z</text>
</g>
</g>
</svg>
