<?xml version="1.0" encoding="UTF-8" standalone="no"?>
<!DOCTYPE svg PUBLIC "-//W3C//DTD SVG 1.1//EN"
 "http://www.w3.org/Graphics/SVG/1.1/DTD/svg11.dtd">
<!-- Generated by graphviz version 2.40.1 (20161225.0304)
 -->
<!-- Title: finite_state_machine Pages: 1 -->
<svg width="1192pt" height="372pt"
 viewBox="0.00 0.00 1191.58 372.08" xmlns="http://www.w3.org/2000/svg" xmlns:xlink="http://www.w3.org/1999/xlink">
<g id="graph0" class="graph" transform="scale(1 1) rotate(0) translate(4 368.083)">
<title>finite_state_machine</title>
<polygon fill="#ffffff" stroke="transparent" points="-4,4 -4,-368.083 1187.5762,-368.083 1187.5762,4 -4,4"/>
<!-- USERNAME -->
<g id="node1" class="node">
<title>USERNAME</title>
<ellipse fill="none" stroke="#000000" cx="370.5051" cy="-184.1521" rx="58.5173" ry="58.5173"/>
<ellipse fill="none" stroke="#000000" cx="370.5051" cy="-184.1521" rx="62.5014" ry="62.5014"/>
<text text-anchor="middle" x="370.5051" y="-179.9521" font-family="Times,serif" font-size="14.00" fill="#000000">USERNAME</text>
</g>
<!-- USERNAME&#45;&gt;USERNAME -->
<g id="edge12" class="edge">
<title>USERNAME&#45;&gt;USERNAME</title>
<path fill="none" stroke="#000000" d="M351.8096,-244.3714C353.9139,-256.3562 360.1457,-264.9023 370.5051,-264.9023 377.789,-264.9023 383.0324,-260.6772 386.2351,-254.0025"/>
<polygon fill="#000000" stroke="#000000" points="389.6028,-254.9586 389.2005,-244.3714 382.9127,-252.8987 389.6028,-254.9586"/>
<text text-anchor="middle" x="370.5051" y="-267.7023" font-family="Times,serif" font-size="14.00" fill="#000000">userchar</text>
</g>
<!-- REALMHOST -->
<g id="node5" class="node">
<title>REALMHOST</title>
<ellipse fill="none" stroke="#000000" cx="586.3039" cy="-64.1521" rx="64.3046" ry="64.3046"/>
<text text-anchor="middle" x="586.3039" y="-59.9521" font-family="Times,serif" font-size="14.00" fill="#000000">REALMHOST</text>
</g>
<!-- USERNAME&#45;&gt;REALMHOST -->
<g id="edge17" class="edge">
<title>USERNAME&#45;&gt;REALMHOST</title>
<path fill="none" stroke="#000000" d="M425.5186,-153.5606C454.6144,-137.3812 490.5265,-117.4114 521.0253,-100.4518"/>
<polygon fill="#000000" stroke="#000000" points="522.8485,-103.4428 529.8872,-95.524 519.4465,-97.325 522.8485,-103.4428"/>
<text text-anchor="middle" x="477.7035" y="-141.9521" font-family="Times,serif" font-size="14.00" fill="#000000">@</text>
</g>
<!-- USERESC -->
<g id="node8" class="node">
<title>USERESC</title>
<ellipse fill="none" stroke="#000000" cx="586.3039" cy="-315.1521" rx="48.8618" ry="48.8618"/>
<text text-anchor="middle" x="586.3039" y="-310.9521" font-family="Times,serif" font-size="14.00" fill="#000000">USERESC</text>
</g>
<!-- USERNAME&#45;&gt;USERESC -->
<g id="edge13" class="edge">
<title>USERNAME&#45;&gt;USERESC</title>
<path fill="none" stroke="#000000" d="M415.4453,-228.706C426.607,-238.4734 438.9213,-248.2459 451.2553,-256.1521 475.799,-271.885 505.2483,-285.301 530.374,-295.3458"/>
<polygon fill="#000000" stroke="#000000" points="529.1851,-298.639 539.7728,-299.0283 531.7388,-292.1214 529.1851,-298.639"/>
<text text-anchor="middle" x="477.7035" y="-284.9521" font-family="Times,serif" font-size="14.00" fill="#000000">\</text>
</g>
<!-- USERDOT -->
<g id="node9" class="node">
<title>USERDOT</title>
<ellipse fill="none" stroke="#000000" cx="586.3039" cy="-197.1521" rx="50.7741" ry="50.7741"/>
<text text-anchor="middle" x="586.3039" y="-192.9521" font-family="Times,serif" font-size="14.00" fill="#000000">USERDOT</text>
</g>
<!-- USERNAME&#45;&gt;USERDOT -->
<g id="edge15" class="edge">
<title>USERNAME&#45;&gt;USERDOT</title>
<path fill="none" stroke="#000000" d="M430.5638,-165.6974C453.6446,-160.9632 480.1937,-158.3903 504.1518,-163.1521 513.0463,-164.92 522.185,-167.6671 530.9875,-170.8509"/>
<polygon fill="#000000" stroke="#000000" points="529.7893,-174.1399 540.3796,-174.4514 532.295,-167.6037 529.7893,-174.1399"/>
<text text-anchor="middle" x="477.7035" y="-165.9521" font-family="Times,serif" font-size="14.00" fill="#000000">.</text>
</g>
<!-- LABEL2 -->
<g id="node2" class="node">
<title>LABEL2</title>
<ellipse fill="none" stroke="#000000" cx="1136.5568" cy="-64.1521" rx="43.0371" ry="43.0371"/>
<ellipse fill="none" stroke="#000000" cx="1136.5568" cy="-64.1521" rx="47.0387" ry="47.0387"/>
<text text-anchor="middle" x="1136.5568" y="-59.9521" font-family="Times,serif" font-size="14.00" fill="#000000">LABEL2</text>
</g>
<!-- LABEL2&#45;&gt;LABEL2 -->
<g id="edge8" class="edge">
<title>LABEL2&#45;&gt;LABEL2</title>
<path fill="none" stroke="#000000" d="M1119.0394,-107.9105C1119.8856,-119.962 1125.7248,-129.1715 1136.5568,-129.1715 1144.1731,-129.1715 1149.3209,-124.6185 1152.0004,-117.7259"/>
<polygon fill="#000000" stroke="#000000" points="1155.4313,-118.4181 1154.0742,-107.9105 1148.5825,-116.971 1155.4313,-118.4181"/>
<text text-anchor="middle" x="1136.5568" y="-131.9715" font-family="Times,serif" font-size="14.00" fill="#000000">0&#45;9A&#45;Za&#45;z</text>
</g>
<!-- REALMDOM -->
<g id="node7" class="node">
<title>REALMDOM</title>
<ellipse fill="none" stroke="#000000" cx="932.7661" cy="-64.1521" rx="61.8909" ry="61.8909"/>
<text text-anchor="middle" x="932.7661" y="-59.9521" font-family="Times,serif" font-size="14.00" fill="#000000">REALMDOM</text>
</g>
<!-- LABEL2&#45;&gt;REALMDOM -->
<g id="edge9" class="edge">
<title>LABEL2&#45;&gt;REALMDOM</title>
<path fill="none" stroke="#000000" d="M1091.4108,-49.9762C1084.804,-48.3932 1078.0368,-47.0352 1071.5374,-46.1521 1045.5204,-42.6173 1038.5556,-43.242 1012.4613,-46.1521 1009.3885,-46.4948 1006.2613,-46.9097 1003.1111,-47.3818"/>
<polygon fill="#000000" stroke="#000000" points="1002.2986,-43.9689 993.011,-49.067 1003.4507,-50.8735 1002.2986,-43.9689"/>
<text text-anchor="middle" x="1041.9993" y="-48.9521" font-family="Times,serif" font-size="14.00" fill="#000000">. &#45;</text>
</g>
<!-- qi -->
<g id="node3" class="node">
<title>qi</title>
<ellipse fill="#000000" stroke="#000000" cx="75.6704" cy="-184.1521" rx="1.8" ry="1.8"/>
</g>
<!-- S -->
<g id="node4" class="node">
<title>S</title>
<ellipse fill="none" stroke="#000000" cx="206.3408" cy="-184.1521" rx="18" ry="18"/>
<text text-anchor="middle" x="206.3408" y="-179.9521" font-family="Times,serif" font-size="14.00" fill="#000000">S</text>
</g>
<!-- qi&#45;&gt;S -->
<g id="edge1" class="edge">
<title>qi&#45;&gt;S</title>
<path fill="none" stroke="#000000" d="M77.5176,-184.1521C88.2381,-184.1521 143.1803,-184.1521 177.7609,-184.1521"/>
<polygon fill="#000000" stroke="#000000" points="178.191,-187.6522 188.191,-184.1521 178.1909,-180.6522 178.191,-187.6522"/>
</g>
<!-- S&#45;&gt;USERNAME -->
<g id="edge10" class="edge">
<title>S&#45;&gt;USERNAME</title>
<path fill="none" stroke="#000000" d="M224.5365,-184.1521C242.3023,-184.1521 270.5176,-184.1521 297.4264,-184.1521"/>
<polygon fill="#000000" stroke="#000000" points="297.651,-187.6522 307.651,-184.1521 297.651,-180.6522 297.651,-187.6522"/>
<text text-anchor="middle" x="266.0479" y="-186.9521" font-family="Times,serif" font-size="14.00" fill="#000000">userchar</text>
</g>
<!-- S&#45;&gt;REALMHOST -->
<g id="edge2" class="edge">
<title>S&#45;&gt;REALMHOST</title>
<path fill="none" stroke="#000000" d="M218.0713,-169.9865C235.3991,-150.1613 269.8972,-114.7143 307.7549,-98.1521 372.8081,-69.6923 454.0761,-62.6179 512.0095,-61.8031"/>
<polygon fill="#000000" stroke="#000000" points="512.2125,-65.3017 522.1838,-61.7208 512.1558,-58.3019 512.2125,-65.3017"/>
<text text-anchor="middle" x="370.5051" y="-100.9521" font-family="Times,serif" font-size="14.00" fill="#000000">@</text>
</g>
<!-- S&#45;&gt;USERESC -->
<g id="edge11" class="edge">
<title>S&#45;&gt;USERESC</title>
<path fill="none" stroke="#000000" d="M215.9662,-199.4414C231.8306,-223.1356 265.9174,-268.0811 307.7549,-288.1521 377.6967,-321.7059 468.7462,-323.9083 527.368,-320.8141"/>
<polygon fill="#000000" stroke="#000000" points="527.7914,-324.2952 537.5649,-320.2052 527.374,-317.3076 527.7914,-324.2952"/>
<text text-anchor="middle" x="370.5051" y="-320.9521" font-family="Times,serif" font-size="14.00" fill="#000000">\</text>
</g>
<!-- LABEL1 -->
<g id="node6" class="node">
<title>LABEL1</title>
<ellipse fill="none" stroke="#000000" cx="788.5516" cy="-64.1521" rx="43.0387" ry="43.0387"/>
<text text-anchor="middle" x="788.5516" y="-59.9521" font-family="Times,serif" font-size="14.00" fill="#000000">LABEL1</text>
</g>
<!-- REALMHOST&#45;&gt;LABEL1 -->
<g id="edge3" class="edge">
<title>REALMHOST&#45;&gt;LABEL1</title>
<path fill="none" stroke="#000000" d="M650.5742,-64.1521C677.9401,-64.1521 709.4774,-64.1521 735.4874,-64.1521"/>
<polygon fill="#000000" stroke="#000000" points="735.5306,-67.6522 745.5305,-64.1521 735.5305,-60.6522 735.5306,-67.6522"/>
<text text-anchor="middle" x="697.9941" y="-66.9521" font-family="Times,serif" font-size="14.00" fill="#000000">0&#45;9A&#45;Za&#45;z</text>
</g>
<!-- LABEL1&#45;&gt;REALMHOST -->
<g id="edge5" class="edge">
<title>LABEL1&#45;&gt;REALMHOST</title>
<path fill="none" stroke="#000000" d="M747.5509,-50.3207C740.9275,-48.5914 734.0912,-47.0994 727.5322,-46.1521 701.5457,-42.3992 694.5596,-43.3259 668.4561,-46.1521 665.3623,-46.4871 662.2143,-46.891 659.0425,-47.3502"/>
<polygon fill="#000000" stroke="#000000" points="658.186,-43.9429 648.8692,-48.9873 659.2982,-50.854 658.186,-43.9429"/>
<text text-anchor="middle" x="697.9941" y="-48.9521" font-family="Times,serif" font-size="14.00" fill="#000000">&#45;</text>
</g>
<!-- LABEL1&#45;&gt;LABEL1 -->
<g id="edge4" class="edge">
<title>LABEL1&#45;&gt;LABEL1</title>
<path fill="none" stroke="#000000" d="M777.0288,-105.7913C777.6872,-116.8191 781.5282,-125.1715 788.5516,-125.1715 793.1607,-125.1715 796.3993,-121.5744 798.2672,-115.9847"/>
<polygon fill="#000000" stroke="#000000" points="801.7749,-116.2487 800.0744,-105.7913 794.8824,-115.0267 801.7749,-116.2487"/>
<text text-anchor="middle" x="788.5516" y="-127.9715" font-family="Times,serif" font-size="14.00" fill="#000000">0&#45;9A&#45;Za&#45;z</text>
</g>
<!-- LABEL1&#45;&gt;REALMDOM -->
<g id="edge6" class="edge">
<title>LABEL1&#45;&gt;REALMDOM</title>
<path fill="none" stroke="#000000" d="M831.8207,-64.1521C840.9342,-64.1521 850.7834,-64.1521 860.6333,-64.1521"/>
<polygon fill="#000000" stroke="#000000" points="860.8674,-67.6522 870.8674,-64.1521 860.8673,-60.6522 860.8674,-67.6522"/>
<text text-anchor="middle" x="851.321" y="-66.9521" font-family="Times,serif" font-size="14.00" fill="#000000">.</text>
</g>
<!-- REALMDOM&#45;&gt;LABEL2 -->
<g id="edge7" class="edge">
<title>REALMDOM&#45;&gt;LABEL2</title>
<path fill="none" stroke="#000000" d="M994.4631,-64.1521C1021.3527,-64.1521 1052.6903,-64.1521 1079.0836,-64.1521"/>
<polygon fill="#000000" stroke="#000000" points="1079.311,-67.6522 1089.3109,-64.1521 1079.3109,-60.6522 1079.311,-67.6522"/>
<text text-anchor="middle" x="1041.9993" y="-66.9521" font-family="Times,serif" font-size="14.00" fill="#000000">0&#45;9A&#45;Za&#45;z</text>
</g>
<!-- USERESC&#45;&gt;USERNAME -->
<g id="edge14" class="edge">
<title>USERESC&#45;&gt;USERNAME</title>
<path fill="none" stroke="#000000" d="M549.5505,-282.812C540.4678,-274.5783 530.8511,-265.6511 522.1518,-257.1521 513.8313,-249.0233 513.764,-244.703 504.1518,-238.1521 484.7871,-224.955 461.707,-214.1873 440.2205,-205.8375"/>
<polygon fill="#000000" stroke="#000000" points="441.3955,-202.5401 430.8036,-202.2895 438.9274,-209.0905 441.3955,-202.5401"/>
<text text-anchor="middle" x="477.7035" y="-240.9521" font-family="Times,serif" font-size="14.00" fill="#000000">%x00&#45;FF</text>
</g>
<!-- USERDOT&#45;&gt;USERNAME -->
<g id="edge16" class="edge">
<title>USERDOT&#45;&gt;USERNAME</title>
<path fill="none" stroke="#000000" d="M535.4183,-194.0867C507.9463,-192.4318 473.5563,-190.3601 443.2995,-188.5374"/>
<polygon fill="#000000" stroke="#000000" points="443.4053,-185.0375 433.2129,-187.9297 442.9843,-192.0248 443.4053,-185.0375"/>
<text text-anchor="middle" x="477.7035" y="-194.9521" font-family="Times,serif" font-size="14.00" fill="#000000">userchar</text>
</g>
<!-- userchar -->
<g id="node10" class="node">
<title>userchar</title>
<polygon fill="none" stroke="#000000" points="151.5116,-304.1521 -.1708,-304.1521 -.1708,-204.1521 151.5116,-204.1521 151.5116,-304.1521"/>
<text text-anchor="middle" x="75.6704" y="-278.9521" font-family="Times,serif" font-size="14.00" fill="#000000">userchar </text>
<text text-anchor="middle" x="75.6704" y="-248.9521" font-family="Times,serif" font-size="14.00" fill="#000000">!#$%&amp;&#39;*+&#45;/=?^_`{}|~</text>
<text text-anchor="middle" x="75.6704" y="-234.9521" font-family="Times,serif" font-size="14.00" fill="#000000">%x80&#45;FF</text>
<text text-anchor="middle" x="75.6704" y="-220.9521" font-family="Times,serif" font-size="14.00" fill="#000000">0&#45;9A&#45;Za&#45;z</text>
</g>
</g>
</svg>
