<?xml version="1.0" encoding="UTF-8" standalone="no"?>
<!DOCTYPE svg PUBLIC "-//W3C//DTD SVG 1.1//EN"
 "http://www.w3.org/Graphics/SVG/1.1/DTD/svg11.dtd">
<!-- Generated by graphviz version 2.40.1 (20161225.0304)
 -->
<!-- Title: finite_state_machine Pages: 1 -->
<svg width="1273pt" height="410pt"
 viewBox="0.00 0.00 1272.50 410.08" xmlns="http://www.w3.org/2000/svg" xmlns:xlink="http://www.w3.org/1999/xlink">
<g id="graph0" class="graph" transform="scale(1 1) rotate(0) translate(4 406.083)">
<title>finite_state_machine</title>
<polygon fill="#ffffff" stroke="transparent" points="-4,4 -4,-406.083 1268.5039,-406.083 1268.5039,4 -4,4"/>
<!-- S -->
<g id="node1" class="node">
<title>S</title>
<ellipse fill="none" stroke="#000000" cx="210.3408" cy="-144.9308" rx="18" ry="18"/>
<ellipse fill="none" stroke="#000000" cx="210.3408" cy="-144.9308" rx="22" ry="22"/>
<text text-anchor="middle" x="210.3408" y="-140.7308" font-family="Times,serif" font-size="14.00" fill="#000000">S</text>
</g>
<!-- REALMHOST -->
<g id="node4" class="node">
<title>REALMHOST</title>
<ellipse fill="none" stroke="#000000" cx="586.3039" cy="-337.9308" rx="64.3046" ry="64.3046"/>
<text text-anchor="middle" x="586.3039" y="-333.7308" font-family="Times,serif" font-size="14.00" fill="#000000">REALMHOST</text>
</g>
<!-- S&#45;&gt;REALMHOST -->
<g id="edge2" class="edge">
<title>S&#45;&gt;REALMHOST</title>
<path fill="none" stroke="#000000" d="M224.3062,-162.1333C243.0121,-184.1544 278.2226,-222.1734 315.7549,-244.9308 377.6553,-282.4637 456.7675,-307.4042 513.4286,-321.9249"/>
<polygon fill="#000000" stroke="#000000" points="512.8316,-325.3836 523.3832,-324.4282 514.5388,-318.595 512.8316,-325.3836"/>
<text text-anchor="middle" x="374.5051" y="-299.7308" font-family="Times,serif" font-size="14.00" fill="#000000">@</text>
</g>
<!-- USERNAME -->
<g id="node8" class="node">
<title>USERNAME</title>
<ellipse fill="none" stroke="#000000" cx="374.5051" cy="-144.9308" rx="58.5015" ry="58.5015"/>
<text text-anchor="middle" x="374.5051" y="-140.7308" font-family="Times,serif" font-size="14.00" fill="#000000">USERNAME</text>
</g>
<!-- S&#45;&gt;USERNAME -->
<g id="edge11" class="edge">
<title>S&#45;&gt;USERNAME</title>
<path fill="none" stroke="#000000" d="M232.4807,-144.9308C251.2557,-144.9308 279.2304,-144.9308 305.3997,-144.9308"/>
<polygon fill="#000000" stroke="#000000" points="305.6999,-148.4309 315.6999,-144.9308 305.6999,-141.4309 305.6999,-148.4309"/>
<text text-anchor="middle" x="274.0479" y="-147.7308" font-family="Times,serif" font-size="14.00" fill="#000000">userchar</text>
</g>
<!-- USERESC -->
<g id="node9" class="node">
<title>USERESC</title>
<ellipse fill="none" stroke="#000000" cx="586.3039" cy="-48.9308" rx="48.8618" ry="48.8618"/>
<text text-anchor="middle" x="586.3039" y="-44.7308" font-family="Times,serif" font-size="14.00" fill="#000000">USERESC</text>
</g>
<!-- S&#45;&gt;USERESC -->
<g id="edge12" class="edge">
<title>S&#45;&gt;USERESC</title>
<path fill="none" stroke="#000000" d="M225.7846,-128.6743C244.9545,-109.5851 279.5651,-78.5498 315.7549,-62.9308 383.95,-33.499 470.9634,-35.0513 527.627,-40.5609"/>
<polygon fill="#000000" stroke="#000000" points="527.5329,-44.07 537.8427,-41.6291 528.261,-37.108 527.5329,-44.07"/>
<text text-anchor="middle" x="374.5051" y="-65.7308" font-family="Times,serif" font-size="14.00" fill="#000000">\</text>
</g>
<!-- E -->
<g id="node2" class="node">
<title>E</title>
<ellipse fill="none" stroke="#000000" cx="1242.5039" cy="-141.9308" rx="18" ry="18"/>
<ellipse fill="none" stroke="#000000" cx="1242.5039" cy="-141.9308" rx="22" ry="22"/>
<text text-anchor="middle" x="1242.5039" y="-137.7308" font-family="Times,serif" font-size="14.00" fill="#000000">E</text>
</g>
<!-- qi -->
<g id="node3" class="node">
<title>qi</title>
<ellipse fill="#000000" stroke="#000000" cx="75.6704" cy="-144.9308" rx="1.8" ry="1.8"/>
</g>
<!-- qi&#45;&gt;S -->
<g id="edge1" class="edge">
<title>qi&#45;&gt;S</title>
<path fill="none" stroke="#000000" d="M77.5742,-144.9308C88.294,-144.9308 141.9169,-144.9308 177.6501,-144.9308"/>
<polygon fill="#000000" stroke="#000000" points="178.0981,-148.4309 188.098,-144.9308 178.098,-141.4309 178.0981,-148.4309"/>
</g>
<!-- LABEL1 -->
<g id="node5" class="node">
<title>LABEL1</title>
<ellipse fill="none" stroke="#000000" cx="788.5516" cy="-300.9308" rx="43.0387" ry="43.0387"/>
<text text-anchor="middle" x="788.5516" y="-296.7308" font-family="Times,serif" font-size="14.00" fill="#000000">LABEL1</text>
</g>
<!-- REALMHOST&#45;&gt;LABEL1 -->
<g id="edge3" class="edge">
<title>REALMHOST&#45;&gt;LABEL1</title>
<path fill="none" stroke="#000000" d="M644.1261,-309.1766C652.1354,-306.2109 660.3854,-303.6567 668.4561,-301.9308 690.0962,-297.3033 714.4349,-296.3409 735.5151,-296.8"/>
<polygon fill="#000000" stroke="#000000" points="735.4664,-300.3002 745.5757,-297.1297 735.6958,-293.3039 735.4664,-300.3002"/>
<text text-anchor="middle" x="697.9941" y="-304.7308" font-family="Times,serif" font-size="14.00" fill="#000000">0&#45;9A&#45;Za&#45;z</text>
</g>
<!-- LABEL1&#45;&gt;REALMHOST -->
<g id="edge5" class="edge">
<title>LABEL1&#45;&gt;REALMHOST</title>
<path fill="none" stroke="#000000" d="M746.643,-311.7386C740.261,-313.2376 733.7361,-314.6875 727.5322,-315.9308 705.7928,-320.2876 682.0246,-324.2831 660.2919,-327.6388"/>
<polygon fill="#000000" stroke="#000000" points="659.4956,-324.2196 650.1357,-329.1839 660.5484,-331.14 659.4956,-324.2196"/>
<text text-anchor="middle" x="697.9941" y="-328.7308" font-family="Times,serif" font-size="14.00" fill="#000000">&#45;</text>
</g>
<!-- LABEL1&#45;&gt;LABEL1 -->
<g id="edge4" class="edge">
<title>LABEL1&#45;&gt;LABEL1</title>
<path fill="none" stroke="#000000" d="M776.6402,-342.2842C777.2686,-353.4532 781.2391,-361.9502 788.5516,-361.9502 793.4647,-361.9502 796.8691,-358.1145 798.7649,-352.2098"/>
<polygon fill="#000000" stroke="#000000" points="802.2265,-352.7312 800.463,-342.2842 795.3267,-351.5508 802.2265,-352.7312"/>
<text text-anchor="middle" x="788.5516" y="-364.7502" font-family="Times,serif" font-size="14.00" fill="#000000">0&#45;9A&#45;Za&#45;z</text>
</g>
<!-- REALMDOM -->
<g id="node6" class="node">
<title>REALMDOM</title>
<ellipse fill="none" stroke="#000000" cx="935.48" cy="-261.9308" rx="61.8909" ry="61.8909"/>
<text text-anchor="middle" x="935.48" y="-257.7308" font-family="Times,serif" font-size="14.00" fill="#000000">REALMDOM</text>
</g>
<!-- LABEL1&#45;&gt;REALMDOM -->
<g id="edge6" class="edge">
<title>LABEL1&#45;&gt;REALMDOM</title>
<path fill="none" stroke="#000000" d="M830.2624,-289.8593C841.4421,-286.8918 853.8367,-283.6019 866.0804,-280.352"/>
<polygon fill="#000000" stroke="#000000" points="867.0737,-283.7096 875.841,-277.7611 865.2778,-276.9439 867.0737,-283.7096"/>
<text text-anchor="middle" x="852.6779" y="-286.7308" font-family="Times,serif" font-size="14.00" fill="#000000">.</text>
</g>
<!-- LABEL2 -->
<g id="node7" class="node">
<title>LABEL2</title>
<ellipse fill="none" stroke="#000000" cx="1135.2707" cy="-224.9308" rx="43.0387" ry="43.0387"/>
<text text-anchor="middle" x="1135.2707" y="-220.7308" font-family="Times,serif" font-size="14.00" fill="#000000">LABEL2</text>
</g>
<!-- REALMDOM&#45;&gt;LABEL2 -->
<g id="edge7" class="edge">
<title>REALMDOM&#45;&gt;LABEL2</title>
<path fill="none" stroke="#000000" d="M990.6371,-233.5163C998.6898,-230.4067 1007.0195,-227.723 1015.1751,-225.9308 1036.7888,-221.1814 1061.123,-220.1981 1082.207,-220.6746"/>
<polygon fill="#000000" stroke="#000000" points="1082.1572,-224.1748 1092.2701,-221.0156 1082.3944,-217.1788 1082.1572,-224.1748"/>
<text text-anchor="middle" x="1044.7132" y="-228.7308" font-family="Times,serif" font-size="14.00" fill="#000000">0&#45;9A&#45;Za&#45;z</text>
</g>
<!-- LABEL2&#45;&gt;E -->
<g id="edge10" class="edge">
<title>LABEL2&#45;&gt;E</title>
<path fill="none" stroke="#000000" d="M1169.4948,-198.4409C1184.824,-186.5759 1202.5975,-172.819 1216.7698,-161.8494"/>
<polygon fill="#000000" stroke="#000000" points="1219.309,-164.31 1225.0747,-155.4213 1215.0244,-158.7744 1219.309,-164.31"/>
<text text-anchor="middle" x="1199.397" y="-179.7308" font-family="Times,serif" font-size="14.00" fill="#000000">ε</text>
</g>
<!-- LABEL2&#45;&gt;REALMDOM -->
<g id="edge9" class="edge">
<title>LABEL2&#45;&gt;REALMDOM</title>
<path fill="none" stroke="#000000" d="M1093.3591,-235.7236C1086.9775,-237.2247 1080.4535,-238.6792 1074.2513,-239.9308 1052.474,-244.3257 1028.6277,-248.378 1006.941,-251.7753"/>
<polygon fill="#000000" stroke="#000000" points="1006.1652,-248.3535 996.8166,-253.3388 1007.2336,-255.2715 1006.1652,-248.3535"/>
<text text-anchor="middle" x="1044.7132" y="-253.7308" font-family="Times,serif" font-size="14.00" fill="#000000">. &#45;</text>
</g>
<!-- LABEL2&#45;&gt;LABEL2 -->
<g id="edge8" class="edge">
<title>LABEL2&#45;&gt;LABEL2</title>
<path fill="none" stroke="#000000" d="M1123.3593,-266.2842C1123.9877,-277.4532 1127.9582,-285.9502 1135.2707,-285.9502 1140.1837,-285.9502 1143.5882,-282.1145 1145.484,-276.2098"/>
<polygon fill="#000000" stroke="#000000" points="1148.9455,-276.7312 1147.182,-266.2842 1142.0458,-275.5508 1148.9455,-276.7312"/>
<text text-anchor="middle" x="1135.2707" y="-288.7502" font-family="Times,serif" font-size="14.00" fill="#000000">0&#45;9A&#45;Za&#45;z</text>
</g>
<!-- USERNAME&#45;&gt;E -->
<g id="edge19" class="edge">
<title>USERNAME&#45;&gt;E</title>
<path fill="none" stroke="#000000" d="M432.8133,-136.8731C475.2847,-131.6947 534.2491,-125.9308 586.3039,-125.9308 586.3039,-125.9308 586.3039,-125.9308 1135.2707,-125.9308 1160.9905,-125.9308 1189.8041,-130.4891 1211.0816,-134.7397"/>
<polygon fill="#000000" stroke="#000000" points="1210.3712,-138.1667 1220.8749,-136.7803 1211.7991,-131.3139 1210.3712,-138.1667"/>
<text text-anchor="middle" x="852.6779" y="-128.7308" font-family="Times,serif" font-size="14.00" fill="#000000">ε</text>
</g>
<!-- USERNAME&#45;&gt;REALMHOST -->
<g id="edge18" class="edge">
<title>USERNAME&#45;&gt;REALMHOST</title>
<path fill="none" stroke="#000000" d="M418.1331,-184.6866C450.7818,-214.4374 495.6778,-255.3485 530.8696,-287.4168"/>
<polygon fill="#000000" stroke="#000000" points="528.9294,-290.384 538.6783,-294.5324 533.6442,-285.2099 528.9294,-290.384"/>
<text text-anchor="middle" x="477.7035" y="-261.7308" font-family="Times,serif" font-size="14.00" fill="#000000">@</text>
</g>
<!-- USERNAME&#45;&gt;USERNAME -->
<g id="edge13" class="edge">
<title>USERNAME&#45;&gt;USERNAME</title>
<path fill="none" stroke="#000000" d="M356.309,-200.8123C358.0882,-212.9086 364.1535,-221.681 374.5051,-221.681 381.7835,-221.681 386.9429,-217.3441 389.9833,-210.5642"/>
<polygon fill="#000000" stroke="#000000" points="393.3879,-211.3848 392.7012,-200.8123 386.6449,-209.5055 393.3879,-211.3848"/>
<text text-anchor="middle" x="374.5051" y="-224.481" font-family="Times,serif" font-size="14.00" fill="#000000">userchar</text>
</g>
<!-- USERNAME&#45;&gt;USERESC -->
<g id="edge14" class="edge">
<title>USERNAME&#45;&gt;USERESC</title>
<path fill="none" stroke="#000000" d="M424.0594,-112.5957C432.944,-107.376 442.2457,-102.2693 451.2553,-97.9308 476.351,-85.8464 505.2512,-74.9806 529.861,-66.5698"/>
<polygon fill="#000000" stroke="#000000" points="531.055,-69.8609 539.4156,-63.3531 528.8215,-63.2268 531.055,-69.8609"/>
<text text-anchor="middle" x="477.7035" y="-100.7308" font-family="Times,serif" font-size="14.00" fill="#000000">\</text>
</g>
<!-- USERDOT -->
<g id="node10" class="node">
<title>USERDOT</title>
<ellipse fill="none" stroke="#000000" cx="586.3039" cy="-204.9308" rx="50.7741" ry="50.7741"/>
<text text-anchor="middle" x="586.3039" y="-200.7308" font-family="Times,serif" font-size="14.00" fill="#000000">USERDOT</text>
</g>
<!-- USERNAME&#45;&gt;USERDOT -->
<g id="edge16" class="edge">
<title>USERNAME&#45;&gt;USERDOT</title>
<path fill="none" stroke="#000000" d="M427.5227,-171.1233C435.3616,-174.4025 443.4338,-177.4646 451.2553,-179.9308 475.0263,-187.4263 501.9013,-192.9688 525.3821,-196.9035"/>
<polygon fill="#000000" stroke="#000000" points="525.1324,-200.4084 535.5622,-198.5458 526.2473,-193.4978 525.1324,-200.4084"/>
<text text-anchor="middle" x="477.7035" y="-195.7308" font-family="Times,serif" font-size="14.00" fill="#000000">.</text>
</g>
<!-- USERESC&#45;&gt;USERNAME -->
<g id="edge15" class="edge">
<title>USERESC&#45;&gt;USERNAME</title>
<path fill="none" stroke="#000000" d="M537.4323,-43.9061C510.6922,-43.2257 477.7191,-45.8839 451.2553,-58.9308 437.2678,-65.8269 424.684,-76.4938 413.9455,-87.9968"/>
<polygon fill="#000000" stroke="#000000" points="411.1779,-85.8423 407.159,-95.6454 416.414,-90.4882 411.1779,-85.8423"/>
<text text-anchor="middle" x="477.7035" y="-61.7308" font-family="Times,serif" font-size="14.00" fill="#000000">%x00&#45;FF</text>
</g>
<!-- USERDOT&#45;&gt;USERNAME -->
<g id="edge17" class="edge">
<title>USERDOT&#45;&gt;USERNAME</title>
<path fill="none" stroke="#000000" d="M542.7714,-178.5272C530.638,-172.1833 517.1983,-166.0568 504.1518,-161.9308 484.8026,-155.8117 463.1574,-151.8932 443.1793,-149.3846"/>
<polygon fill="#000000" stroke="#000000" points="443.5517,-145.9044 433.2153,-148.23 442.7459,-152.8579 443.5517,-145.9044"/>
<text text-anchor="middle" x="477.7035" y="-164.7308" font-family="Times,serif" font-size="14.00" fill="#000000">userchar</text>
</g>
<!-- userchar -->
<g id="node11" class="node">
<title>userchar</title>
<polygon fill="none" stroke="#000000" points="151.5116,-264.9308 -.1708,-264.9308 -.1708,-164.9308 151.5116,-164.9308 151.5116,-264.9308"/>
<text text-anchor="middle" x="75.6704" y="-239.7308" font-family="Times,serif" font-size="14.00" fill="#000000">userchar </text>
<text text-anchor="middle" x="75.6704" y="-209.7308" font-family="Times,serif" font-size="14.00" fill="#000000">!#$%&amp;&#39;*+&#45;/=?^_`{}|~</text>
<text text-anchor="middle" x="75.6704" y="-195.7308" font-family="Times,serif" font-size="14.00" fill="#000000">%x80&#45;FF</text>
<text text-anchor="middle" x="75.6704" y="-181.7308" font-family="Times,serif" font-size="14.00" fill="#000000">0&#45;9A&#45;Za&#45;z</text>
</g>
</g>
</svg>
